<svg width="1440" height="512" viewBox="0 0 1440 512" fill="none" xmlns="http://www.w3.org/2000/svg">
<path fill-rule="evenodd" clip-rule="evenodd" d="M290.507 123.621C289.239 122.454 288.584 122.432 288.474 122.432C288.364 122.432 287.709 122.454 286.441 123.621C285.139 124.82 283.582 126.887 281.905 130.077C278.557 136.445 275.353 146.07 272.592 158.49C269.486 172.456 267.032 189.527 265.484 208.636C272.961 212.254 280.65 216.187 288.472 220.41C296.295 216.186 303.985 212.252 311.464 208.634C309.916 189.526 307.462 172.456 304.356 158.49C301.595 146.07 298.391 136.445 295.043 130.077C293.366 126.887 291.81 124.82 290.507 123.621ZM281.928 223.995C276.184 220.943 270.525 218.056 264.984 215.343C264.564 221.495 264.237 227.836 264.01 234.334C266.94 232.579 269.914 230.83 272.927 229.092C275.94 227.353 278.942 225.654 281.928 223.995ZM259.452 205.764C263.939 153.363 275.241 116.182 288.474 116.182C301.707 116.182 313.009 153.362 317.496 205.762C365.147 183.447 403.016 174.638 409.633 186.091C416.249 197.544 389.681 225.916 346.517 255.999C389.681 286.083 416.249 314.455 409.633 325.907C403.016 337.36 365.147 328.552 317.496 306.237C313.009 358.636 301.707 395.817 288.474 395.817C275.241 395.817 263.939 358.636 259.452 306.235C211.8 328.552 173.928 337.361 167.311 325.907C160.695 314.455 187.263 286.083 230.427 255.999C187.263 225.916 160.695 197.544 167.311 186.091C173.928 174.638 211.8 183.447 259.452 205.764ZM235.934 252.213C220.148 241.318 206.581 230.658 196.03 220.986C186.648 212.386 179.909 204.8 176.065 198.719C174.139 195.672 173.125 193.291 172.738 191.566C172.361 189.886 172.669 189.31 172.723 189.218L172.723 189.218C172.777 189.124 173.123 188.569 174.769 188.054C176.46 187.526 179.031 187.213 182.635 187.356C189.828 187.643 199.771 189.683 211.915 193.502C225.571 197.798 241.591 204.209 258.924 212.424C258.321 220.703 257.885 229.323 257.634 238.203C250.063 242.861 242.809 247.55 235.934 252.213ZM235.934 259.786C220.148 270.681 206.581 281.341 196.03 291.012C186.648 299.613 179.909 307.198 176.065 313.28C174.139 316.327 173.125 318.707 172.738 320.433C172.361 322.113 172.669 322.688 172.723 322.781C172.777 322.874 173.122 323.43 174.769 323.944C176.46 324.472 179.031 324.786 182.635 324.642C189.828 324.356 199.771 322.316 211.915 318.496C225.571 314.201 241.591 307.789 258.924 299.575C258.321 291.295 257.885 282.675 257.634 273.795C250.063 269.137 242.809 264.449 235.934 259.786ZM257.469 266.34C251.951 262.894 246.618 259.439 241.496 255.999C246.618 252.559 251.951 249.105 257.469 245.659C257.413 249.073 257.385 252.522 257.385 255.999C257.385 259.477 257.413 262.925 257.469 266.34ZM263.796 270.237C263.689 265.559 263.635 260.809 263.635 255.999C263.635 251.189 263.689 246.44 263.796 241.762C267.795 239.331 271.883 236.91 276.051 234.505C280.22 232.1 284.364 229.771 288.472 227.524C292.58 229.771 296.724 232.1 300.893 234.505C305.062 236.911 309.152 239.333 313.153 241.764C313.259 246.441 313.313 251.19 313.313 255.999C313.313 260.809 313.259 265.557 313.153 270.235C309.152 272.666 305.062 275.088 300.893 277.493C296.724 279.899 292.58 282.227 288.472 284.475C284.364 282.227 280.22 279.899 276.051 277.493C271.883 275.089 267.795 272.667 263.796 270.237ZM264.01 277.665C264.237 284.162 264.564 290.504 264.984 296.656C270.525 293.943 276.184 291.056 281.928 288.004C278.942 286.345 275.94 284.646 272.927 282.907C269.914 281.168 266.94 279.42 264.01 277.665ZM288.472 291.588C280.65 295.812 272.961 299.745 265.484 303.363C267.032 322.472 269.486 339.543 272.592 353.509C275.353 365.929 278.557 375.554 281.905 381.921C283.582 385.112 285.139 387.179 286.441 388.378C287.709 389.545 288.364 389.567 288.474 389.567C288.584 389.567 289.239 389.545 290.507 388.378C291.81 387.179 293.366 385.112 295.043 381.921C298.391 375.554 301.595 365.929 304.356 353.509C307.462 339.543 309.916 322.473 311.464 303.365C303.985 299.746 296.295 295.813 288.472 291.588ZM318.024 299.577C335.356 307.79 351.374 314.201 365.029 318.496C377.173 322.316 387.116 324.356 394.31 324.642C397.913 324.786 400.484 324.472 402.175 323.944C403.822 323.43 404.168 322.874 404.221 322.781C404.275 322.689 404.583 322.114 404.206 320.433C403.819 318.707 402.805 316.327 400.879 313.28C397.035 307.198 390.296 299.613 380.914 291.012C370.364 281.341 356.797 270.681 341.01 259.786C334.137 264.448 326.884 269.136 319.314 273.793C319.063 282.674 318.627 291.296 318.024 299.577ZM341.01 252.213C356.797 241.318 370.364 230.658 380.914 220.986C390.296 212.386 397.035 204.8 400.879 198.719C402.805 195.672 403.819 193.291 404.206 191.566C404.583 189.885 404.275 189.31 404.221 189.218C404.168 189.125 403.822 188.569 402.175 188.054C400.484 187.526 397.913 187.213 394.31 187.356C387.116 187.643 377.173 189.683 365.029 193.502C351.374 197.797 335.356 204.208 318.024 212.422C318.627 220.703 319.063 229.324 319.314 238.206C326.884 242.863 334.137 247.551 341.01 252.213ZM319.48 245.662C324.996 249.107 330.327 252.56 335.448 255.999C330.327 259.438 324.996 262.892 319.48 266.337C319.535 262.924 319.563 259.476 319.563 255.999C319.563 252.522 319.535 249.075 319.48 245.662ZM312.939 234.336C312.712 227.837 312.384 221.495 311.964 215.341C306.422 218.054 300.762 220.942 295.016 223.995C298.002 225.654 301.004 227.353 304.017 229.092C307.032 230.831 310.007 232.58 312.939 234.336ZM311.964 296.657C306.422 293.944 300.762 291.057 295.016 288.004C298.002 286.345 301.004 284.646 304.017 282.907C307.032 281.167 310.007 279.418 312.939 277.663C312.712 284.162 312.384 290.504 311.964 296.657Z" fill="black"/>
<path fill-rule="evenodd" clip-rule="evenodd" d="M199.109 216.844C204.539 216.844 208.941 221.249 208.941 226.681C208.941 232.114 204.539 236.518 199.109 236.518C193.679 236.518 189.277 232.114 189.277 226.681C189.277 221.249 193.679 216.844 199.109 216.844Z" fill="black"/>
<path fill-rule="evenodd" clip-rule="evenodd" d="M355.371 183.159C360.803 183.159 365.207 187.563 365.207 192.996C365.207 198.429 360.803 202.833 355.371 202.833C349.938 202.833 345.534 198.429 345.534 192.996C345.534 187.563 349.938 183.159 355.371 183.159Z" fill="black"/>
<path fill-rule="evenodd" clip-rule="evenodd" d="M268.662 337.554C274.094 337.554 278.498 341.956 278.498 347.386C278.498 352.816 274.094 357.218 268.662 357.218C263.229 357.218 258.825 352.816 258.825 347.386C258.825 341.956 263.229 337.554 268.662 337.554Z" fill="black"/>
<path fill-rule="evenodd" clip-rule="evenodd" d="M287.927 239.273C297.125 239.273 304.581 246.729 304.581 255.927C304.581 265.125 297.125 272.581 287.927 272.581C278.729 272.581 271.273 265.125 271.273 255.927C271.273 246.729 278.729 239.273 287.927 239.273Z" fill="black"/>
<path fill-rule="evenodd" clip-rule="evenodd" d="M618.444 246.446L608.145 236.565C604.233 240.022 600.278 242.762 596.278 244.78C592.281 246.796 587.5 247.805 581.938 247.805C577.591 247.805 573.572 247.003 569.878 245.397C566.183 243.79 562.989 241.589 560.294 238.788C557.599 235.988 555.515 232.715 554.035 228.969C552.558 225.223 551.82 221.207 551.82 216.928C551.82 212.645 552.558 208.651 554.035 204.945C555.515 201.24 557.599 198.009 560.294 195.249C562.989 192.491 566.183 190.31 569.878 188.704C573.572 187.099 577.591 186.296 581.938 186.296C587.152 186.296 591.803 187.284 595.888 189.26C599.974 191.235 603.842 193.83 607.491 197.041L617.792 185.802C615.619 183.826 613.317 182.015 610.882 180.367C608.449 178.72 605.798 177.299 602.929 176.106C600.06 174.911 596.91 173.986 593.476 173.328C590.042 172.668 586.239 172.338 582.068 172.338C575.114 172.338 568.769 173.513 563.033 175.859C557.295 178.205 552.341 181.416 548.169 185.493C543.996 189.569 540.759 194.323 538.455 199.759C536.15 205.193 535 210.999 535 217.174C535 223.432 536.173 229.277 538.52 234.713C540.867 240.146 544.105 244.86 548.234 248.854C552.362 252.847 557.251 255.997 562.901 258.303C568.551 260.609 574.724 261.761 581.415 261.761C585.676 261.761 589.565 261.411 593.085 260.711C596.605 260.011 599.844 258.983 602.799 257.625C605.754 256.265 608.514 254.659 611.079 252.807C613.642 250.954 616.098 248.833 618.444 246.446Z" fill="black"/>
<path fill-rule="evenodd" clip-rule="evenodd" d="M825.33 196.82C825.33 193.943 826.626 191.499 829.221 189.487C831.813 187.472 835.446 186.467 840.113 186.467C844.263 186.467 848.369 187.228 852.432 188.748C856.496 190.267 860.602 192.465 864.75 195.34L873.309 183.88C868.643 180.347 863.65 177.656 858.333 175.809C853.014 173.961 847.029 173.036 840.372 173.036C835.878 173.036 831.728 173.631 827.945 174.823C824.142 176.014 820.902 177.718 818.199 179.936C815.497 182.155 813.379 184.804 811.823 187.885C810.289 190.966 809.511 194.395 809.511 198.175C809.511 202.2 810.181 205.61 811.521 208.403C812.861 211.196 814.827 213.578 817.378 215.55C819.927 217.522 823.104 219.165 826.864 220.48C830.647 221.795 834.949 222.984 839.811 224.053C844.048 225.039 847.482 225.983 850.142 226.886C852.778 227.79 854.853 228.756 856.387 229.782C857.899 230.81 858.938 231.938 859.5 233.17C860.061 234.404 860.341 235.799 860.341 237.36C860.341 240.73 858.894 243.4 855.999 245.371C853.102 247.344 849.19 248.328 844.263 248.328C838.558 248.328 833.456 247.362 828.962 245.432C824.465 243.502 820.015 240.73 815.604 237.114L806.01 247.959C811.456 252.641 817.378 256.113 823.774 258.372C830.172 260.631 836.871 261.76 843.873 261.76C848.628 261.76 852.995 261.185 856.972 260.036C860.926 258.884 864.341 257.2 867.15 254.982C869.981 252.764 872.186 250.054 873.785 246.85C875.363 243.646 876.162 239.99 876.162 235.882C876.162 232.268 875.536 229.125 874.281 226.455C873.027 223.785 871.169 221.446 868.749 219.431C866.328 217.419 863.259 215.713 859.585 214.317C855.913 212.922 851.676 211.648 846.921 210.498C842.577 209.512 839.011 208.566 836.18 207.663C833.371 206.76 831.166 205.774 829.544 204.705C827.945 203.638 826.845 202.487 826.238 201.255C825.634 200.022 825.33 198.544 825.33 196.82Z" fill="black"/>
<path fill-rule="evenodd" clip-rule="evenodd" d="M1002.84 198.04V259.664H1018.68V173.734H1001.67L974.005 214.367L946.343 173.734H929.33V259.664H945.174V198.285L973.614 238.55H974.135L1002.84 198.04Z" fill="black"/>
<path fill-rule="evenodd" clip-rule="evenodd" d="M1151.8 217.174C1151.8 221.374 1151.04 225.346 1149.52 229.094C1148.01 232.84 1145.9 236.091 1143.21 238.849C1140.52 241.607 1137.29 243.79 1133.52 245.396C1129.74 247.003 1125.6 247.804 1121.09 247.804C1116.58 247.804 1112.41 246.981 1108.6 245.335C1104.78 243.687 1101.5 241.464 1098.77 238.666C1096.04 235.865 1093.91 232.592 1092.39 228.846C1090.88 225.1 1090.12 221.125 1090.12 216.928C1090.12 212.727 1090.88 208.754 1092.39 205.008C1093.91 201.26 1096.01 198.009 1098.7 195.249C1101.39 192.491 1104.63 190.31 1108.4 188.704C1112.17 187.099 1116.32 186.296 1120.83 186.296C1125.34 186.296 1129.51 187.119 1133.32 188.767C1137.14 190.413 1140.41 192.636 1143.15 195.436C1145.88 198.234 1148.01 201.508 1149.52 205.254C1151.04 209 1151.8 212.975 1151.8 217.174ZM1168.59 216.928C1168.59 210.834 1167.42 205.07 1165.07 199.634C1162.73 194.201 1159.48 189.465 1155.32 185.431C1151.15 181.395 1146.16 178.205 1140.35 175.859C1134.54 173.513 1128.12 172.338 1121.09 172.338C1114.06 172.338 1107.64 173.533 1101.83 175.921C1096.01 178.309 1090.98 181.54 1086.73 185.616C1082.48 189.692 1079.19 194.448 1076.84 199.882C1074.5 205.316 1073.33 211.08 1073.33 217.174C1073.33 223.267 1074.5 229.029 1076.84 234.465C1079.19 239.901 1082.44 244.635 1086.6 248.669C1090.77 252.704 1095.76 255.895 1101.57 258.241C1107.38 260.588 1113.8 261.761 1120.83 261.761C1127.85 261.761 1134.28 260.566 1140.09 258.18C1145.9 255.792 1150.93 252.561 1155.19 248.483C1159.44 244.408 1162.73 239.653 1165.07 234.218C1167.42 228.784 1168.59 223.02 1168.59 216.928Z" fill="black"/>
<path fill-rule="evenodd" clip-rule="evenodd" d="M1235.17 196.82C1235.17 193.943 1236.46 191.499 1239.06 189.487C1241.65 187.472 1245.28 186.467 1249.95 186.467C1254.1 186.467 1258.21 187.228 1262.27 188.748C1266.33 190.267 1270.44 192.465 1274.59 195.34L1283.15 183.88C1278.48 180.347 1273.49 177.656 1268.17 175.809C1262.85 173.961 1256.87 173.036 1250.21 173.036C1245.72 173.036 1241.57 173.631 1237.78 174.823C1233.98 176.014 1230.74 177.718 1228.04 179.936C1225.34 182.155 1223.22 184.804 1221.66 187.885C1220.13 190.966 1219.35 194.395 1219.35 198.175C1219.35 202.2 1220.02 205.61 1221.36 208.403C1222.7 211.196 1224.67 213.578 1227.21 215.55C1229.77 217.522 1232.94 219.165 1236.7 220.48C1240.48 221.795 1244.79 222.984 1249.65 224.053C1253.88 225.039 1257.32 225.983 1259.98 226.886C1262.61 227.79 1264.69 228.756 1266.23 229.782C1267.74 230.81 1268.78 231.938 1269.34 233.17C1269.9 234.404 1270.18 235.799 1270.18 237.36C1270.18 240.73 1268.73 243.4 1265.84 245.371C1262.94 247.344 1259.03 248.328 1254.1 248.328C1248.39 248.328 1243.29 247.362 1238.8 245.432C1234.31 243.502 1229.85 240.73 1225.44 237.114L1215.85 247.959C1221.29 252.641 1227.21 256.113 1233.61 258.372C1240.01 260.631 1246.71 261.76 1253.71 261.76C1258.47 261.76 1262.83 261.185 1266.81 260.036C1270.76 258.884 1274.18 257.2 1276.99 254.982C1279.82 252.764 1282.02 250.054 1283.62 246.85C1285.2 243.646 1286 239.99 1286 235.882C1286 232.268 1285.37 229.125 1284.12 226.455C1282.86 223.785 1281.01 221.446 1278.59 219.431C1276.17 217.419 1273.1 215.713 1269.42 214.317C1265.75 212.922 1261.51 211.648 1256.76 210.498C1252.41 209.512 1248.85 208.566 1246.02 207.663C1243.21 206.76 1241 205.774 1239.38 204.705C1237.78 203.638 1236.68 202.487 1236.08 201.255C1235.47 200.022 1235.17 198.544 1235.17 196.82Z" fill="black"/>
<path fill-rule="evenodd" clip-rule="evenodd" d="M727.13 190.938L683.717 232.01C683.157 230.983 682.652 229.912 682.199 228.801C680.683 225.07 679.925 221.11 679.925 216.928C679.925 212.743 680.683 208.785 682.199 205.054C683.717 201.32 685.819 198.081 688.508 195.332C691.196 192.584 694.427 190.411 698.198 188.811C701.97 187.212 706.11 186.412 710.618 186.412C715.127 186.412 719.29 187.232 723.103 188.874C724.521 189.483 725.863 190.171 727.13 190.938ZM723.3 245.289C719.527 246.89 715.387 247.688 710.879 247.688C706.37 247.688 702.207 246.868 698.392 245.228C696.976 244.617 695.634 243.93 694.369 243.161L737.78 202.091C738.34 203.117 738.845 204.186 739.298 205.299C740.814 209.031 741.572 212.99 741.572 217.174C741.572 221.357 740.814 225.315 739.298 229.048C737.78 232.78 735.678 236.019 732.989 238.767C730.301 241.514 727.072 243.689 723.3 245.289ZM729.868 258.024C735.678 255.645 740.707 252.426 744.955 248.363C749.203 244.304 752.497 239.566 754.838 234.153C757.18 228.739 758.351 222.997 758.351 216.927C758.351 210.856 757.18 205.114 754.838 199.699C753.45 196.488 751.741 193.523 749.712 190.802L777.948 164.089L766.728 153.475L738.406 180.269C735.864 178.629 733.103 177.211 730.127 176.014C724.317 173.677 717.902 172.506 710.879 172.506C703.855 172.506 697.44 173.696 691.63 176.075C685.819 178.454 680.79 181.673 676.542 185.734C672.294 189.795 668.998 194.533 666.657 199.946C664.317 205.36 663.146 211.102 663.146 217.173C663.146 223.243 664.317 228.983 666.657 234.399C668.047 237.611 669.756 240.576 671.785 243.298L643.551 270.008L654.771 280.623L683.091 253.83C685.633 255.47 688.394 256.888 691.37 258.085C697.18 260.422 703.595 261.591 710.618 261.591C717.642 261.591 724.058 260.401 729.868 258.024Z" fill="black"/>
<path d="M562.137 343.253H569.139V313.099H562.137V343.253Z" fill="black"/>
<path d="M578.047 343.253H584.959V324.084L600.373 343.253H606.33V313.099H599.418V331.665L584.504 313.099H578.047V343.253Z" fill="black"/>
<path d="M622.336 343.253H629.338V319.216H639.024V313.099H612.651V319.216H622.336V343.253Z" fill="black"/>
<path d="M645.363 343.253H669.598V337.352H652.32V331.019H667.325V325.118H652.32V319.001H669.371V313.099H645.363V343.253Z" fill="black"/>
<path d="M676.778 343.253H683.78V333.604H689.282L696.103 343.253H704.288L696.512 332.484C700.559 331.062 703.333 328.004 703.333 323.136V323.05C703.333 320.207 702.378 317.837 700.604 316.157C698.513 314.176 695.375 313.099 691.328 313.099H676.778V343.253ZM683.78 327.745V319.087H690.737C694.148 319.087 696.239 320.551 696.239 323.394V323.481C696.239 326.022 694.284 327.745 690.874 327.745H683.78Z" fill="black"/>
<path d="M710.591 343.253H717.502V324.084L732.917 343.253H738.874V313.099H731.962V331.665L717.048 313.099H710.591V343.253Z" fill="black"/>
<path d="M747.468 343.253H771.704V337.352H754.425V331.019H769.43V325.118H754.425V319.001H771.476V313.099H747.468V343.253Z" fill="black"/>
<path d="M786.295 343.253H793.297V319.216H802.983V313.099H776.61V319.216H786.295V343.253Z" fill="black"/>
<path d="M839.367 343.77C849.189 343.77 856.328 336.749 856.328 328.176V328.09C856.328 319.518 849.28 312.582 839.458 312.582C829.637 312.582 822.498 319.604 822.498 328.176V328.262C822.498 336.835 829.546 343.77 839.367 343.77ZM839.458 337.653C833.82 337.653 829.818 333.345 829.818 328.176V328.09C829.818 322.921 833.729 318.699 839.367 318.699C845.006 318.699 849.007 323.007 849.007 328.176V328.262C849.007 333.432 845.097 337.653 839.458 337.653Z" fill="black"/>
<path d="M863.493 343.253H870.495V331.579H885.683V325.548H870.495V319.13H887.729V313.099H863.493V343.253Z" fill="black"/>
<path d="M908.872 343.253H924.014C931.198 343.253 935.927 340.496 935.927 334.982V334.896C935.927 330.847 933.654 328.822 929.971 327.487C932.244 326.281 934.154 324.385 934.154 320.982V320.896C934.154 318.828 933.426 317.148 931.971 315.77C930.153 314.047 927.288 313.099 923.65 313.099H908.872V343.253ZM927.197 322.102C927.197 324.342 925.242 325.29 922.15 325.29H915.693V318.914H922.604C925.56 318.914 927.197 320.034 927.197 322.016V322.102ZM928.97 334.078V334.164C928.97 336.404 927.106 337.438 924.014 337.438H915.693V330.804H923.787C927.379 330.804 928.97 332.053 928.97 334.078Z" fill="black"/>
<path d="M942.641 343.253H965.513V337.222H949.643V313.099H942.641V343.253Z" fill="black"/>
<path d="M985.387 343.77C995.208 343.77 1002.35 336.749 1002.35 328.176V328.09C1002.35 319.518 995.299 312.582 985.478 312.582C975.656 312.582 968.517 319.604 968.517 328.176V328.262C968.517 336.835 975.565 343.77 985.387 343.77ZM985.478 337.653C979.839 337.653 975.838 333.345 975.838 328.176V328.09C975.838 322.921 979.748 318.699 985.387 318.699C991.025 318.699 995.026 323.007 995.026 328.176V328.262C995.026 333.432 991.116 337.653 985.478 337.653Z" fill="black"/>
<path d="M1024.43 343.77C1030.57 343.77 1034.2 341.702 1037.48 338.385L1033.02 334.121C1030.52 336.275 1028.29 337.653 1024.65 337.653C1019.2 337.653 1015.42 333.345 1015.42 328.176V328.09C1015.42 322.921 1019.29 318.699 1024.65 318.699C1027.84 318.699 1030.34 319.991 1032.79 322.102L1037.25 317.234C1034.29 314.477 1030.7 312.582 1024.7 312.582C1014.92 312.582 1008.1 319.604 1008.1 328.176V328.262C1008.1 336.921 1015.06 343.77 1024.43 343.77Z" fill="black"/>
<path d="M1044.04 343.253H1051.04V334.035L1054.72 330.416L1064.59 343.253H1073L1059.45 325.893L1072.46 313.099H1063.86L1051.04 326.281V313.099H1044.04V343.253Z" fill="black"/>
<path d="M1090.63 343.77C1096.77 343.77 1100.41 341.702 1103.68 338.385L1099.23 334.121C1096.73 336.275 1094.5 337.653 1090.86 337.653C1085.4 337.653 1081.63 333.345 1081.63 328.176V328.09C1081.63 322.921 1085.49 318.699 1090.86 318.699C1094.04 318.699 1096.54 319.991 1099 322.102L1103.45 317.234C1100.5 314.477 1096.91 312.582 1090.9 312.582C1081.13 312.582 1074.31 319.604 1074.31 328.176V328.262C1074.31 336.921 1081.26 343.77 1090.63 343.77Z" fill="black"/>
<path d="M1110.24 343.253H1117.24V331.148H1130.16V343.253H1137.16V313.099H1130.16V325.031H1117.24V313.099H1110.24V343.253Z" fill="black"/>
<path d="M1143.01 343.253H1150.15L1153.06 336.49H1166.52L1169.43 343.253H1176.75L1163.11 312.884H1156.65L1143.01 343.253ZM1155.56 330.632L1159.79 320.853L1164.02 330.632H1155.56Z" fill="black"/>
<path d="M1182.94 343.253H1189.94V313.099H1182.94V343.253Z" fill="black"/>
<path d="M1198.85 343.253H1205.76V324.084L1221.17 343.253H1227.13V313.099H1220.22V331.665L1205.3 313.099H1198.85V343.253Z" fill="black"/>
<path d="M1247.05 343.684C1253.91 343.684 1258.73 340.324 1258.73 334.336V334.25C1258.73 328.995 1255.09 326.798 1248.64 325.204C1243.14 323.868 1241.77 323.222 1241.77 321.241V321.154C1241.77 319.69 1243.18 318.527 1245.86 318.527C1248.55 318.527 1251.32 319.647 1254.14 321.499L1257.78 316.502C1254.55 314.047 1250.59 312.668 1245.96 312.668C1239.45 312.668 1234.82 316.287 1234.82 321.758V321.844C1234.82 327.831 1238.95 329.511 1245.36 331.062C1250.68 332.355 1251.78 333.216 1251.78 334.896V334.982C1251.78 336.749 1250.05 337.825 1247.18 337.825C1243.55 337.825 1240.54 336.404 1237.68 334.164L1233.54 338.859C1237.36 342.09 1242.23 343.684 1247.05 343.684Z" fill="black"/>
</svg>
