<svg width="1440" height="512" viewBox="0 0 1440 512" fill="none" xmlns="http://www.w3.org/2000/svg">
<rect width="1440" height="512" fill="white"/>
<path fill-rule="evenodd" clip-rule="evenodd" d="M287.999 96.3076C376.195 96.3076 447.692 167.805 447.692 256C447.692 344.196 376.195 415.693 287.999 415.693C199.804 415.693 128.307 344.196 128.307 256C128.307 167.805 199.804 96.3076 287.999 96.3076Z" fill="white"/>
<path fill-rule="evenodd" clip-rule="evenodd" d="M287.693 163.87C338.576 163.87 379.824 205.118 379.824 256C379.824 306.882 338.576 348.131 287.693 348.131C236.811 348.131 195.563 306.882 195.563 256C195.563 205.118 236.811 163.87 287.693 163.87Z" fill="#E6E6E6"/>
<path fill-rule="evenodd" clip-rule="evenodd" d="M290.507 123.622C289.239 122.455 288.584 122.433 288.474 122.433C288.364 122.433 287.709 122.455 286.441 123.622C285.139 124.821 283.582 126.888 281.905 130.078C278.557 136.446 275.353 146.071 272.592 158.491C269.486 172.457 267.032 189.528 265.484 208.637C272.961 212.255 280.65 216.188 288.472 220.411C296.295 216.187 303.985 212.253 311.464 208.635C309.916 189.527 307.462 172.457 304.356 158.491C301.595 146.071 298.391 136.446 295.043 130.078C293.366 126.888 291.81 124.821 290.507 123.622ZM281.928 223.996C276.184 220.944 270.525 218.057 264.984 215.344C264.564 221.496 264.237 227.837 264.01 234.335C266.94 232.58 269.914 230.832 272.927 229.093C275.94 227.354 278.942 225.655 281.928 223.996ZM259.452 205.765C263.939 153.364 275.241 116.183 288.474 116.183C301.707 116.183 313.009 153.363 317.496 205.763C365.147 183.448 403.017 174.64 409.633 186.092C416.249 197.545 389.681 225.917 346.517 256C389.681 286.084 416.249 314.456 409.633 325.909C403.017 337.361 365.147 328.553 317.496 306.238C313.009 358.637 301.707 395.818 288.474 395.818C275.241 395.818 263.939 358.637 259.452 306.236C211.8 328.553 173.928 337.362 167.311 325.909C160.695 314.456 187.263 286.084 230.427 256C187.263 225.917 160.695 197.545 167.311 186.092C173.928 174.639 211.8 183.448 259.452 205.765ZM235.934 252.214C220.148 241.319 206.581 230.659 196.03 220.987C186.648 212.387 179.909 204.801 176.065 198.72C174.139 195.673 173.125 193.292 172.738 191.567C172.361 189.887 172.669 189.312 172.723 189.219L172.723 189.219C172.777 189.125 173.123 188.57 174.769 188.055C176.46 187.527 179.031 187.214 182.635 187.357C189.828 187.644 199.771 189.684 211.915 193.503C225.571 197.799 241.591 204.21 258.924 212.425C258.321 220.704 257.885 229.324 257.634 238.204C250.063 242.863 242.809 247.551 235.934 252.214ZM235.934 259.787C220.148 270.682 206.581 281.342 196.03 291.014C186.648 299.614 179.909 307.199 176.065 313.281C174.139 316.328 173.125 318.708 172.738 320.434C172.361 322.114 172.669 322.689 172.723 322.782C172.777 322.875 173.122 323.431 174.769 323.945C176.46 324.474 179.031 324.787 182.635 324.643C189.828 324.357 199.771 322.317 211.915 318.497C225.571 314.202 241.591 307.79 258.924 299.576C258.321 291.296 257.885 282.676 257.634 273.797C250.063 269.138 242.809 264.45 235.934 259.787ZM257.469 266.341C251.951 262.895 246.618 259.44 241.496 256C246.618 252.561 251.951 249.106 257.469 245.66C257.413 249.074 257.385 252.523 257.385 256C257.385 259.478 257.413 262.926 257.469 266.341ZM263.796 270.238C263.689 265.56 263.635 260.81 263.635 256C263.635 251.19 263.689 246.441 263.796 241.763C267.795 239.332 271.883 236.911 276.051 234.506C280.22 232.101 284.364 229.772 288.472 227.525C292.58 229.772 296.724 232.101 300.893 234.506C305.062 236.912 309.152 239.334 313.153 241.765C313.259 246.442 313.313 251.191 313.313 256C313.313 260.81 313.259 265.559 313.153 270.236C309.152 272.667 305.062 275.089 300.893 277.494C296.724 279.9 292.58 282.228 288.472 284.476C284.364 282.228 280.22 279.9 276.051 277.494C271.883 275.09 267.795 272.668 263.796 270.238ZM264.01 277.666C264.237 284.163 264.564 290.505 264.984 296.657C270.525 293.944 276.184 291.057 281.928 288.005C278.942 286.346 275.94 284.647 272.927 282.908C269.914 281.169 266.94 279.421 264.01 277.666ZM288.472 291.589C280.65 295.813 272.961 299.746 265.484 303.364C267.032 322.473 269.486 339.544 272.592 353.51C275.353 365.93 278.557 375.555 281.905 381.922C283.582 385.113 285.139 387.18 286.441 388.379C287.709 389.546 288.364 389.568 288.474 389.568C288.584 389.568 289.239 389.546 290.507 388.379C291.81 387.18 293.366 385.113 295.043 381.922C298.391 375.555 301.595 365.93 304.356 353.51C307.462 339.544 309.916 322.474 311.464 303.366C303.985 299.747 296.295 295.814 288.472 291.589ZM318.024 299.578C335.356 307.791 351.374 314.202 365.029 318.497C377.173 322.317 387.116 324.357 394.31 324.643C397.913 324.787 400.484 324.474 402.175 323.945C403.822 323.431 404.168 322.875 404.221 322.782C404.275 322.69 404.583 322.115 404.206 320.434C403.819 318.708 402.805 316.328 400.879 313.281C397.035 307.199 390.296 299.614 380.914 291.014C370.364 281.342 356.797 270.682 341.01 259.787C334.136 264.449 326.884 269.137 319.314 273.794C319.063 282.675 318.627 291.297 318.024 299.578ZM341.01 252.214C356.796 241.319 370.364 230.659 380.914 220.987C390.296 212.387 397.035 204.801 400.879 198.72C402.805 195.673 403.819 193.292 404.206 191.567C404.583 189.886 404.275 189.311 404.221 189.219C404.168 189.126 403.822 188.57 402.175 188.055C400.484 187.527 397.913 187.214 394.31 187.357C387.116 187.644 377.173 189.684 365.029 193.503C351.374 197.798 335.356 204.209 318.024 212.423C318.627 220.704 319.063 229.325 319.314 238.207C326.884 242.864 334.137 247.552 341.01 252.214ZM319.48 245.663C324.996 249.108 330.327 252.561 335.448 256C330.327 259.439 324.996 262.893 319.48 266.338C319.535 262.925 319.563 259.477 319.563 256C319.563 252.523 319.535 249.076 319.48 245.663ZM312.939 234.337C312.712 227.838 312.384 221.496 311.964 215.342C306.422 218.055 300.762 220.943 295.016 223.996C298.002 225.655 301.004 227.354 304.017 229.093C307.032 230.832 310.007 232.581 312.939 234.337ZM311.964 296.658C306.422 293.945 300.762 291.058 295.016 288.005C298.002 286.346 301.004 284.647 304.017 282.908C307.032 281.168 310.007 279.419 312.939 277.664C312.712 284.163 312.384 290.505 311.964 296.658Z" fill="black"/>
<path fill-rule="evenodd" clip-rule="evenodd" d="M199.109 216.844C204.539 216.844 208.941 221.249 208.941 226.681C208.941 232.114 204.539 236.518 199.109 236.518C193.679 236.518 189.277 232.114 189.277 226.681C189.277 221.249 193.679 216.844 199.109 216.844Z" fill="black"/>
<path fill-rule="evenodd" clip-rule="evenodd" d="M355.371 183.159C360.803 183.159 365.207 187.563 365.207 192.996C365.207 198.429 360.803 202.833 355.371 202.833C349.938 202.833 345.534 198.429 345.534 192.996C345.534 187.563 349.938 183.159 355.371 183.159Z" fill="black"/>
<path fill-rule="evenodd" clip-rule="evenodd" d="M268.662 337.554C274.094 337.554 278.498 341.956 278.498 347.386C278.498 352.816 274.094 357.218 268.662 357.218C263.229 357.218 258.825 352.816 258.825 347.386C258.825 341.956 263.229 337.554 268.662 337.554Z" fill="black"/>
<path fill-rule="evenodd" clip-rule="evenodd" d="M287.927 239.273C297.125 239.273 304.581 246.729 304.581 255.927C304.581 265.125 297.125 272.581 287.927 272.581C278.729 272.581 271.273 265.125 271.273 255.927C271.273 246.729 278.729 239.273 287.927 239.273Z" fill="black"/>
<path fill-rule="evenodd" clip-rule="evenodd" d="M618.444 246.445L608.145 236.563C604.233 240.02 600.278 242.76 596.278 244.778C592.281 246.794 587.5 247.803 581.938 247.803C577.591 247.803 573.572 247.001 569.878 245.395C566.183 243.788 562.989 241.587 560.294 238.786C557.599 235.986 555.515 232.713 554.035 228.967C552.558 225.221 551.82 221.205 551.82 216.926C551.82 212.643 552.558 208.649 554.035 204.943C555.515 201.238 557.599 198.007 560.294 195.247C562.989 192.489 566.183 190.308 569.878 188.702C573.572 187.097 577.591 186.294 581.938 186.294C587.152 186.294 591.803 187.282 595.888 189.258C599.974 191.233 603.842 193.828 607.491 197.039L617.792 185.801C615.619 183.824 613.317 182.013 610.882 180.365C608.449 178.718 605.798 177.297 602.929 176.104C600.06 174.909 596.91 173.984 593.476 173.326C590.042 172.666 586.239 172.336 582.068 172.336C575.114 172.336 568.769 173.511 563.033 175.857C557.295 178.203 552.341 181.415 548.169 185.491C543.996 189.567 540.759 194.321 538.455 199.757C536.15 205.191 535 210.997 535 217.172C535 223.43 536.173 229.275 538.52 234.711C540.867 240.144 544.105 244.858 548.234 248.852C552.362 252.845 557.251 255.995 562.901 258.301C568.551 260.607 574.724 261.759 581.415 261.759C585.676 261.759 589.565 261.409 593.085 260.709C596.605 260.009 599.844 258.981 602.799 257.623C605.754 256.263 608.514 254.657 611.079 252.805C613.642 250.952 616.098 248.831 618.444 246.445Z" fill="black"/>
<path fill-rule="evenodd" clip-rule="evenodd" d="M825.33 196.819C825.33 193.942 826.626 191.498 829.221 189.487C831.813 187.471 835.445 186.466 840.113 186.466C844.263 186.466 848.369 187.227 852.432 188.747C856.496 190.266 860.602 192.464 864.75 195.339L873.309 183.879C868.643 180.346 863.65 177.656 858.333 175.808C853.014 173.96 847.029 173.035 840.372 173.035C835.878 173.035 831.728 173.63 827.945 174.822C824.142 176.013 820.902 177.717 818.199 179.935C815.497 182.154 813.379 184.803 811.823 187.884C810.289 190.965 809.511 194.394 809.511 198.174C809.511 202.199 810.181 205.609 811.521 208.402C812.861 211.195 814.827 213.577 817.378 215.549C819.927 217.521 823.104 219.164 826.864 220.479C830.647 221.794 834.949 222.983 839.811 224.052C844.048 225.038 847.482 225.982 850.141 226.885C852.778 227.789 854.853 228.755 856.387 229.781C857.899 230.809 858.938 231.937 859.5 233.169C860.061 234.403 860.341 235.798 860.341 237.359C860.341 240.729 858.894 243.399 855.999 245.37C853.102 247.343 849.19 248.327 844.263 248.327C838.558 248.327 833.456 247.361 828.962 245.431C824.465 243.501 820.015 240.729 815.604 237.113L806.01 247.958C811.456 252.64 817.378 256.112 823.774 258.371C830.172 260.63 836.871 261.759 843.873 261.759C848.628 261.759 852.995 261.184 856.972 260.035C860.926 258.883 864.341 257.199 867.15 254.981C869.981 252.763 872.185 250.053 873.785 246.849C875.363 243.645 876.162 239.989 876.162 235.881C876.162 232.267 875.536 229.124 874.281 226.454C873.027 223.784 871.169 221.445 868.749 219.43C866.328 217.418 863.259 215.712 859.585 214.316C855.913 212.921 851.676 211.647 846.921 210.497C842.577 209.511 839.011 208.565 836.18 207.662C833.371 206.759 831.166 205.773 829.544 204.704C827.945 203.637 826.845 202.486 826.238 201.254C825.634 200.021 825.33 198.543 825.33 196.819Z" fill="black"/>
<path fill-rule="evenodd" clip-rule="evenodd" d="M1002.84 198.039V259.663H1018.68V173.733H1001.67L974.005 214.366L946.343 173.733H929.33V259.663H945.174V198.284L973.614 238.549H974.135L1002.84 198.039Z" fill="black"/>
<path fill-rule="evenodd" clip-rule="evenodd" d="M1151.8 217.172C1151.8 221.372 1151.04 225.345 1149.52 229.092C1148.01 232.838 1145.9 236.09 1143.21 238.847C1140.52 241.605 1137.29 243.788 1133.52 245.395C1129.74 247.001 1125.6 247.803 1121.09 247.803C1116.58 247.803 1112.41 246.98 1108.6 245.333C1104.78 243.685 1101.5 241.462 1098.77 238.664C1096.04 235.863 1093.91 232.59 1092.39 228.844C1090.88 225.098 1090.12 221.124 1090.12 216.926C1090.12 212.725 1090.88 208.752 1092.39 205.006C1093.91 201.258 1096.01 198.007 1098.7 195.248C1101.39 192.49 1104.63 190.308 1108.4 188.702C1112.17 187.097 1116.32 186.294 1120.83 186.294C1125.34 186.294 1129.51 187.117 1133.32 188.765C1137.14 190.412 1140.41 192.635 1143.15 195.434C1145.88 198.232 1148.01 201.507 1149.52 205.253C1151.04 208.999 1151.8 212.973 1151.8 217.172ZM1168.59 216.926C1168.59 210.832 1167.42 205.068 1165.07 199.632C1162.73 194.199 1159.48 189.463 1155.32 185.429C1151.15 181.393 1146.16 178.203 1140.35 175.857C1134.54 173.511 1128.12 172.336 1121.09 172.336C1114.06 172.336 1107.64 173.531 1101.83 175.919C1096.01 178.307 1090.98 181.538 1086.73 185.614C1082.48 189.69 1079.19 194.446 1076.84 199.88C1074.5 205.314 1073.33 211.078 1073.33 217.172C1073.33 223.265 1074.5 229.027 1076.84 234.463C1079.19 239.899 1082.44 244.633 1086.6 248.667C1090.77 252.702 1095.76 255.893 1101.57 258.239C1107.38 260.586 1113.8 261.759 1120.83 261.759C1127.85 261.759 1134.28 260.564 1140.09 258.178C1145.9 255.79 1150.93 252.559 1155.19 248.481C1159.44 244.406 1162.73 239.651 1165.07 234.216C1167.42 228.782 1168.59 223.018 1168.59 216.926Z" fill="black"/>
<path fill-rule="evenodd" clip-rule="evenodd" d="M1235.17 196.819C1235.17 193.942 1236.46 191.498 1239.06 189.487C1241.65 187.471 1245.28 186.466 1249.95 186.466C1254.1 186.466 1258.21 187.227 1262.27 188.747C1266.33 190.266 1270.44 192.464 1274.59 195.339L1283.15 183.879C1278.48 180.346 1273.49 177.656 1268.17 175.808C1262.85 173.96 1256.87 173.035 1250.21 173.035C1245.72 173.035 1241.57 173.63 1237.78 174.822C1233.98 176.013 1230.74 177.717 1228.04 179.935C1225.34 182.154 1223.22 184.803 1221.66 187.884C1220.13 190.965 1219.35 194.394 1219.35 198.174C1219.35 202.199 1220.02 205.609 1221.36 208.402C1222.7 211.195 1224.67 213.577 1227.21 215.549C1229.77 217.521 1232.94 219.164 1236.7 220.479C1240.48 221.794 1244.79 222.983 1249.65 224.052C1253.88 225.038 1257.32 225.982 1259.98 226.885C1262.61 227.789 1264.69 228.755 1266.23 229.781C1267.74 230.809 1268.78 231.937 1269.34 233.169C1269.9 234.403 1270.18 235.798 1270.18 237.359C1270.18 240.729 1268.73 243.399 1265.84 245.37C1262.94 247.343 1259.03 248.327 1254.1 248.327C1248.39 248.327 1243.29 247.361 1238.8 245.431C1234.31 243.501 1229.85 240.729 1225.44 237.113L1215.85 247.958C1221.29 252.64 1227.21 256.112 1233.61 258.371C1240.01 260.63 1246.71 261.759 1253.71 261.759C1258.47 261.759 1262.83 261.184 1266.81 260.035C1270.76 258.883 1274.18 257.199 1276.99 254.981C1279.82 252.763 1282.02 250.053 1283.62 246.849C1285.2 243.645 1286 239.989 1286 235.881C1286 232.267 1285.37 229.124 1284.12 226.454C1282.86 223.784 1281.01 221.445 1278.59 219.43C1276.17 217.418 1273.1 215.712 1269.42 214.316C1265.75 212.921 1261.51 211.647 1256.76 210.497C1252.41 209.511 1248.85 208.565 1246.02 207.662C1243.21 206.759 1241 205.773 1239.38 204.704C1237.78 203.637 1236.68 202.486 1236.08 201.254C1235.47 200.021 1235.17 198.543 1235.17 196.819Z" fill="black"/>
<path fill-rule="evenodd" clip-rule="evenodd" d="M727.13 190.936L683.717 232.009C683.158 230.981 682.652 229.91 682.199 228.8C680.683 225.068 679.925 221.108 679.925 216.927C679.925 212.741 680.683 208.784 682.199 205.052C683.717 201.318 685.82 198.079 688.508 195.33C691.196 192.583 694.427 190.41 698.198 188.809C701.97 187.21 706.11 186.41 710.618 186.41C715.128 186.41 719.29 187.23 723.103 188.872C724.521 189.482 725.863 190.169 727.13 190.936ZM723.299 245.288C719.527 246.888 715.387 247.687 710.879 247.687C706.37 247.687 702.207 246.867 698.392 245.226C696.976 244.616 695.634 243.928 694.369 243.16L737.78 202.09C738.34 203.116 738.845 204.185 739.298 205.297C740.814 209.029 741.572 212.989 741.572 217.172C741.572 221.356 740.814 225.313 739.298 229.047C737.78 232.779 735.678 236.018 732.989 238.765C730.301 241.513 727.072 243.688 723.299 245.288ZM729.868 258.023C735.678 255.644 740.707 252.425 744.955 248.362C749.203 244.303 752.497 239.565 754.838 234.152C757.18 228.738 758.351 222.996 758.351 216.927C758.351 210.855 757.18 205.113 754.838 199.698C753.45 196.487 751.741 193.522 749.712 190.801L777.948 164.088L766.728 153.474L738.406 180.268C735.864 178.628 733.103 177.21 730.127 176.013C724.317 173.676 717.902 172.505 710.879 172.505C703.855 172.505 697.44 173.695 691.63 176.074C685.819 178.453 680.79 181.672 676.542 185.733C672.294 189.794 668.998 194.532 666.657 199.945C664.317 205.359 663.146 211.101 663.146 217.172C663.146 223.242 664.317 228.982 666.657 234.398C668.047 237.61 669.756 240.575 671.785 243.297L643.551 270.007L654.771 280.622L683.091 253.829C685.633 255.469 688.394 256.887 691.37 258.084C697.18 260.422 703.595 261.59 710.618 261.59C717.642 261.59 724.058 260.4 729.868 258.023Z" fill="black"/>
<path d="M562.137 343.255H569.139V313.101H562.137V343.255Z" fill="#666666"/>
<path d="M578.047 343.255H584.959V324.086L600.373 343.255H606.33V313.101H599.418V331.667L584.504 313.101H578.047V343.255Z" fill="#666666"/>
<path d="M622.336 343.255H629.338V319.218H639.024V313.101H612.651V319.218H622.336V343.255Z" fill="#666666"/>
<path d="M645.363 343.255H669.598V337.354H652.32V331.021H667.325V325.12H652.32V319.003H669.371V313.101H645.363V343.255Z" fill="#666666"/>
<path d="M676.778 343.255H683.78V333.606H689.282L696.103 343.255H704.288L696.512 332.486C700.559 331.064 703.333 328.006 703.333 323.138V323.052C703.333 320.209 702.378 317.839 700.604 316.159C698.513 314.178 695.375 313.101 691.328 313.101H676.778V343.255ZM683.78 327.747V319.089H690.737C694.148 319.089 696.239 320.553 696.239 323.396V323.483C696.239 326.024 694.284 327.747 690.874 327.747H683.78Z" fill="#666666"/>
<path d="M710.591 343.255H717.502V324.086L732.917 343.255H738.874V313.101H731.962V331.667L717.048 313.101H710.591V343.255Z" fill="#666666"/>
<path d="M747.468 343.255H771.704V337.354H754.425V331.021H769.43V325.12H754.425V319.003H771.476V313.101H747.468V343.255Z" fill="#666666"/>
<path d="M786.295 343.255H793.297V319.218H802.983V313.101H776.61V319.218H786.295V343.255Z" fill="#666666"/>
<path d="M839.367 343.772C849.189 343.772 856.328 336.75 856.328 328.178V328.092C856.328 319.519 849.28 312.584 839.458 312.584C829.637 312.584 822.498 319.606 822.498 328.178V328.264C822.498 336.837 829.546 343.772 839.367 343.772ZM839.458 337.655C833.82 337.655 829.818 333.347 829.818 328.178V328.092C829.818 322.923 833.729 318.701 839.367 318.701C845.006 318.701 849.007 323.009 849.007 328.178V328.264C849.007 333.433 845.097 337.655 839.458 337.655Z" fill="#666666"/>
<path d="M863.493 343.255H870.495V331.581H885.683V325.55H870.495V319.132H887.729V313.101H863.493V343.255Z" fill="#666666"/>
<path d="M908.872 343.255H924.014C931.198 343.255 935.927 340.498 935.927 334.984V334.898C935.927 330.849 933.654 328.824 929.971 327.489C932.244 326.283 934.154 324.387 934.154 320.984V320.898C934.154 318.83 933.426 317.15 931.971 315.772C930.153 314.049 927.288 313.101 923.65 313.101H908.872V343.255ZM927.197 322.104C927.197 324.344 925.242 325.292 922.15 325.292H915.693V318.916H922.604C925.56 318.916 927.197 320.036 927.197 322.018V322.104ZM928.97 334.08V334.166C928.97 336.406 927.106 337.44 924.014 337.44H915.693V330.806H923.787C927.379 330.806 928.97 332.055 928.97 334.08Z" fill="#666666"/>
<path d="M942.641 343.255H965.513V337.224H949.643V313.101H942.641V343.255Z" fill="#666666"/>
<path d="M985.387 343.772C995.208 343.772 1002.35 336.75 1002.35 328.178V328.092C1002.35 319.519 995.299 312.584 985.478 312.584C975.656 312.584 968.517 319.606 968.517 328.178V328.264C968.517 336.837 975.565 343.772 985.387 343.772ZM985.478 337.655C979.839 337.655 975.838 333.347 975.838 328.178V328.092C975.838 322.923 979.748 318.701 985.387 318.701C991.025 318.701 995.026 323.009 995.026 328.178V328.264C995.026 333.433 991.116 337.655 985.478 337.655Z" fill="#666666"/>
<path d="M1024.43 343.772C1030.57 343.772 1034.2 341.704 1037.48 338.387L1033.02 334.123C1030.52 336.277 1028.29 337.655 1024.65 337.655C1019.2 337.655 1015.42 333.347 1015.42 328.178V328.092C1015.42 322.923 1019.29 318.701 1024.65 318.701C1027.84 318.701 1030.34 319.993 1032.79 322.104L1037.25 317.236C1034.29 314.479 1030.7 312.584 1024.7 312.584C1014.92 312.584 1008.1 319.606 1008.1 328.178V328.264C1008.1 336.923 1015.06 343.772 1024.43 343.772Z" fill="#666666"/>
<path d="M1044.04 343.255H1051.04V334.037L1054.72 330.418L1064.59 343.255H1073L1059.45 325.895L1072.46 313.101H1063.86L1051.04 326.283V313.101H1044.04V343.255Z" fill="#666666"/>
<path d="M1090.63 343.772C1096.77 343.772 1100.41 341.704 1103.68 338.387L1099.23 334.123C1096.72 336.277 1094.5 337.655 1090.86 337.655C1085.4 337.655 1081.63 333.347 1081.63 328.178V328.092C1081.63 322.923 1085.49 318.701 1090.86 318.701C1094.04 318.701 1096.54 319.993 1099 322.104L1103.45 317.236C1100.5 314.479 1096.91 312.584 1090.9 312.584C1081.13 312.584 1074.31 319.606 1074.31 328.178V328.264C1074.31 336.923 1081.26 343.772 1090.63 343.772Z" fill="#666666"/>
<path d="M1110.24 343.255H1117.24V331.15H1130.16V343.255H1137.16V313.101H1130.16V325.033H1117.24V313.101H1110.24V343.255Z" fill="#666666"/>
<path d="M1143.01 343.255H1150.15L1153.06 336.492H1166.52L1169.43 343.255H1176.75L1163.11 312.886H1156.65L1143.01 343.255ZM1155.56 330.633L1159.79 320.855L1164.02 330.633H1155.56Z" fill="#666666"/>
<path d="M1182.94 343.255H1189.94V313.101H1182.94V343.255Z" fill="#666666"/>
<path d="M1198.85 343.255H1205.76V324.086L1221.17 343.255H1227.13V313.101H1220.22V331.667L1205.3 313.101H1198.85V343.255Z" fill="#666666"/>
<path d="M1247.05 343.686C1253.91 343.686 1258.73 340.326 1258.73 334.338V334.252C1258.73 328.997 1255.09 326.8 1248.64 325.206C1243.14 323.87 1241.77 323.224 1241.77 321.243V321.156C1241.77 319.692 1243.18 318.529 1245.86 318.529C1248.55 318.529 1251.32 319.649 1254.14 321.501L1257.78 316.504C1254.55 314.049 1250.59 312.67 1245.96 312.67C1239.45 312.67 1234.82 316.289 1234.82 321.759V321.846C1234.82 327.833 1238.95 329.513 1245.36 331.064C1250.68 332.357 1251.78 333.218 1251.78 334.898V334.984C1251.78 336.75 1250.05 337.827 1247.18 337.827C1243.55 337.827 1240.54 336.406 1237.68 334.166L1233.54 338.861C1237.36 342.092 1242.23 343.686 1247.05 343.686Z" fill="#666666"/>
</svg>
