<svg width="1364" height="496" viewBox="0 0 1364 496" fill="none" xmlns="http://www.w3.org/2000/svg">
<path fill-rule="evenodd" clip-rule="evenodd" d="M506.222 282.512L494.839 270.984C490.516 275.018 486.145 278.214 481.724 280.568C477.307 282.92 472.023 284.096 465.875 284.096C461.072 284.096 456.629 283.161 452.546 281.287C448.464 279.413 444.933 276.845 441.955 273.577C438.976 270.311 436.673 266.493 435.038 262.123C433.404 257.753 432.59 253.068 432.59 248.076C432.59 243.08 433.404 238.42 435.038 234.096C436.673 229.775 438.976 226.005 441.955 222.786C444.933 219.569 448.464 217.024 452.546 215.15C456.629 213.278 461.072 212.341 465.875 212.341C471.638 212.341 476.778 213.494 481.293 215.799C485.809 218.103 490.084 221.13 494.116 224.876L505.501 211.765C503.1 209.46 500.555 207.347 497.864 205.424C495.176 203.503 492.246 201.845 489.075 200.453C485.904 199.059 482.422 197.98 478.627 197.212C474.832 196.443 470.629 196.058 466.019 196.058C458.334 196.058 451.322 197.428 444.982 200.165C438.64 202.903 433.165 206.649 428.554 211.404C423.942 216.159 420.365 221.705 417.818 228.046C415.271 234.386 414 241.159 414 248.363C414 255.663 415.297 262.483 417.89 268.824C420.484 275.162 424.063 280.661 428.626 285.321C433.189 289.979 438.591 293.653 444.836 296.344C451.081 299.034 457.903 300.378 465.298 300.378C470.007 300.378 474.305 299.969 478.196 299.153C482.086 298.336 485.665 297.137 488.931 295.553C492.197 293.966 495.248 292.092 498.082 289.932C500.915 287.771 503.629 285.296 506.222 282.512Z" fill="black"/>
<path fill-rule="evenodd" clip-rule="evenodd" d="M734.87 224.619C734.87 221.263 736.303 218.412 739.17 216.065C742.036 213.714 746.05 212.541 751.208 212.541C755.795 212.541 760.333 213.429 764.823 215.202C769.314 216.975 773.852 219.539 778.437 222.892L787.896 209.523C782.739 205.401 777.221 202.263 771.345 200.108C765.467 197.951 758.852 196.873 751.495 196.873C746.527 196.873 741.941 197.567 737.761 198.958C733.557 200.347 729.976 202.335 726.989 204.922C724.003 207.512 721.662 210.601 719.943 214.195C718.247 217.789 717.387 221.791 717.387 226.199C717.387 230.895 718.127 234.873 719.608 238.132C721.089 241.39 723.263 244.169 726.082 246.47C728.899 248.77 732.41 250.686 736.566 252.221C740.746 253.755 745.501 255.142 750.874 256.389C755.557 257.539 759.353 258.641 762.292 259.694C765.206 260.749 767.499 261.876 769.194 263.072C770.865 264.271 772.014 265.588 772.634 267.025C773.255 268.464 773.564 270.092 773.564 271.913C773.564 275.844 771.965 278.959 768.765 281.258C765.563 283.56 761.24 284.708 755.795 284.708C749.49 284.708 743.851 283.581 738.884 281.33C733.915 279.078 728.996 275.844 724.121 271.626L713.518 284.278C719.537 289.74 726.082 293.789 733.151 296.425C740.222 299.061 747.626 300.378 755.364 300.378C760.619 300.378 765.445 299.707 769.84 298.367C774.21 297.023 777.984 295.058 781.09 292.47C784.218 289.883 786.655 286.722 788.422 282.984C790.166 279.247 791.05 274.981 791.05 270.189C791.05 265.972 790.357 262.306 788.971 259.191C787.585 256.076 785.531 253.347 782.857 250.997C780.181 248.65 776.79 246.66 772.729 245.031C768.67 243.403 763.987 241.918 758.732 240.575C753.931 239.425 749.99 238.322 746.862 237.268C743.757 236.215 741.32 235.065 739.528 233.818C737.761 232.573 736.544 231.231 735.873 229.793C735.206 228.354 734.87 226.63 734.87 224.619Z" fill="black"/>
<path fill-rule="evenodd" clip-rule="evenodd" d="M931.051 226.042V297.933H948.562V197.688H929.758L899.185 245.09L868.613 197.688H849.811V297.933H867.321V226.328L898.753 273.301H899.328L931.051 226.042Z" fill="black"/>
<path fill-rule="evenodd" clip-rule="evenodd" d="M1095.68 248.363C1095.68 253.262 1094.84 257.897 1093.17 262.269C1091.49 266.639 1089.16 270.432 1086.19 273.649C1083.22 276.867 1079.65 279.413 1075.48 281.287C1071.3 283.161 1066.73 284.097 1061.74 284.097C1056.75 284.097 1052.15 283.136 1047.93 281.215C1043.71 279.293 1040.09 276.7 1037.07 273.436C1034.05 270.168 1031.7 266.35 1030.03 261.979C1028.35 257.609 1027.51 252.973 1027.51 248.076C1027.51 243.175 1028.35 238.54 1030.03 234.17C1031.7 229.798 1034.03 226.005 1037 222.786C1039.97 219.569 1043.55 217.024 1047.72 215.15C1051.89 213.278 1056.47 212.341 1061.45 212.341C1066.44 212.341 1071.04 213.301 1075.26 215.224C1079.48 217.144 1083.1 219.738 1086.12 223.004C1089.14 226.268 1091.49 230.088 1093.17 234.458C1094.84 238.828 1095.68 243.465 1095.68 248.363ZM1114.24 248.076C1114.24 240.966 1112.94 234.242 1110.35 227.901C1107.77 221.563 1104.17 216.038 1099.57 211.332C1094.96 206.623 1089.45 202.903 1083.02 200.165C1076.6 197.428 1069.51 196.058 1061.74 196.058C1053.97 196.058 1046.88 197.451 1040.45 200.237C1034.03 203.023 1028.47 206.793 1023.77 211.548C1019.07 216.303 1015.43 221.851 1012.84 228.19C1010.25 234.53 1008.96 241.254 1008.96 248.363C1008.96 255.471 1010.25 262.193 1012.84 268.535C1015.43 274.876 1019.02 280.399 1023.63 285.105C1028.23 289.812 1033.74 293.535 1040.17 296.272C1046.59 299.009 1053.68 300.378 1061.45 300.378C1069.22 300.378 1076.31 298.984 1082.74 296.2C1089.16 293.414 1094.72 289.645 1099.42 284.888C1104.12 280.135 1107.77 274.586 1110.35 268.247C1112.94 261.907 1114.24 255.183 1114.24 248.076Z" fill="black"/>
<path fill-rule="evenodd" clip-rule="evenodd" d="M1187.82 224.619C1187.82 221.263 1189.25 218.412 1192.12 216.065C1194.99 213.714 1199 212.541 1204.16 212.541C1208.74 212.541 1213.28 213.429 1217.77 215.202C1222.26 216.975 1226.8 219.539 1231.39 222.892L1240.85 209.523C1235.69 205.401 1230.17 202.263 1224.29 200.108C1218.42 197.951 1211.8 196.873 1204.45 196.873C1199.48 196.873 1194.89 197.567 1190.71 198.958C1186.51 200.347 1182.93 202.335 1179.94 204.922C1176.95 207.512 1174.61 210.601 1172.89 214.195C1171.2 217.789 1170.34 221.791 1170.34 226.199C1170.34 230.895 1171.08 234.873 1172.56 238.132C1174.04 241.39 1176.21 244.169 1179.03 246.47C1181.85 248.77 1185.36 250.686 1189.52 252.221C1193.7 253.755 1198.45 255.142 1203.83 256.389C1208.51 257.539 1212.3 258.641 1215.24 259.694C1218.15 260.749 1220.45 261.876 1222.15 263.072C1223.82 264.271 1224.96 265.588 1225.59 267.025C1226.21 268.464 1226.52 270.092 1226.52 271.913C1226.52 275.844 1224.91 278.959 1221.72 281.258C1218.51 283.56 1214.19 284.708 1208.74 284.708C1202.44 284.708 1196.8 283.581 1191.84 281.33C1186.87 279.078 1181.95 275.844 1177.07 271.626L1166.47 284.278C1172.49 289.74 1179.03 293.789 1186.1 296.425C1193.17 299.061 1200.57 300.378 1208.31 300.378C1213.57 300.378 1218.39 299.707 1222.79 298.367C1227.16 297.023 1230.94 295.058 1234.04 292.47C1237.17 289.883 1239.61 286.722 1241.37 282.984C1243.12 279.247 1244 274.981 1244 270.189C1244 265.972 1243.31 262.306 1241.92 259.191C1240.54 256.076 1238.48 253.347 1235.81 250.997C1233.13 248.65 1229.74 246.66 1225.68 245.031C1221.62 243.403 1216.94 241.918 1211.68 240.575C1206.88 239.425 1202.94 238.322 1199.81 237.268C1196.71 236.215 1194.27 235.065 1192.48 233.818C1190.71 232.573 1189.49 231.231 1188.82 229.793C1188.16 228.354 1187.82 226.63 1187.82 224.619Z" fill="black"/>
<path fill-rule="evenodd" clip-rule="evenodd" d="M626.342 217.756L578.362 265.671C577.744 264.472 577.185 263.223 576.685 261.927C575.009 257.574 574.172 252.955 574.172 248.076C574.172 243.194 575.009 238.577 576.685 234.223C578.362 229.867 580.686 226.089 583.657 222.882C586.628 219.677 590.198 217.142 594.366 215.275C598.536 213.41 603.11 212.476 608.093 212.476C613.077 212.476 617.677 213.433 621.891 215.348C623.458 216.059 624.942 216.861 626.342 217.756ZM622.108 281.162C617.939 283.029 613.364 283.961 608.382 283.961C603.398 283.961 598.797 283.004 594.581 281.091C593.016 280.378 591.533 279.576 590.134 278.68L638.112 230.768C638.731 231.965 639.289 233.212 639.789 234.51C641.465 238.863 642.303 243.482 642.303 248.363C642.303 253.243 641.465 257.86 639.789 262.216C638.112 266.569 635.789 270.348 632.817 273.553C629.846 276.758 626.278 279.295 622.108 281.162ZM629.367 296.019C635.789 293.244 641.347 289.488 646.042 284.749C650.737 280.014 654.377 274.487 656.964 268.171C659.553 261.856 660.847 255.157 660.847 248.076C660.847 240.994 659.553 234.295 656.964 227.978C655.43 224.232 653.541 220.773 651.3 217.599L682.506 186.436L670.105 174.053L638.804 205.311C635.994 203.397 632.944 201.743 629.654 200.347C623.233 197.62 616.143 196.255 608.382 196.255C600.618 196.255 593.528 197.643 587.107 200.419C580.686 203.194 575.128 206.949 570.432 211.686C565.737 216.423 562.095 221.951 559.508 228.266C556.921 234.582 555.627 241.281 555.627 248.363C555.627 255.444 556.921 262.141 559.508 268.458C561.044 272.205 562.933 275.664 565.175 278.841L533.971 310L546.371 322.383L577.67 291.127C580.48 293.04 583.531 294.694 586.82 296.09C593.241 298.817 600.331 300.181 608.093 300.181C615.856 300.181 622.946 298.792 629.367 296.019Z" fill="black"/>
<path fill-rule="evenodd" clip-rule="evenodd" d="M235.881 148.716C234.929 147.841 234.438 147.824 234.356 147.824C234.273 147.824 233.782 147.841 232.831 148.716C231.854 149.615 230.687 151.166 229.429 153.559C226.918 158.334 224.515 165.553 222.444 174.868C220.115 185.343 218.274 198.146 217.113 212.477C222.721 215.191 228.488 218.141 234.354 221.308C240.221 218.14 245.989 215.19 251.598 212.476C250.437 198.145 248.596 185.342 246.267 174.868C244.196 165.553 241.793 158.334 239.282 153.559C238.025 151.166 236.857 149.615 235.881 148.716ZM229.446 223.997C225.138 221.708 220.894 219.542 216.738 217.508C216.423 222.122 216.178 226.878 216.007 231.751C218.205 230.435 220.435 229.123 222.695 227.819C224.955 226.515 227.207 225.241 229.446 223.997ZM212.589 210.323C215.954 171.023 224.431 143.137 234.356 143.137C244.28 143.137 252.756 171.022 256.122 210.322C291.86 193.585 320.262 186.979 325.225 195.569C330.187 204.159 310.261 225.438 277.888 248C310.261 270.563 330.187 291.841 325.225 300.431C320.262 309.021 291.86 302.415 256.122 285.678C252.756 324.978 244.28 352.863 234.356 352.863C224.431 352.863 215.954 324.977 212.589 285.677C176.85 302.414 148.446 309.021 143.483 300.431C138.521 291.841 158.447 270.563 190.82 248C158.447 225.438 138.521 204.159 143.483 195.569C148.446 186.979 176.85 193.586 212.589 210.323ZM194.951 245.16C183.111 236.989 172.935 228.994 165.022 221.74C157.986 215.29 152.932 209.601 150.049 205.04C148.604 202.755 147.844 200.969 147.554 199.675C147.271 198.415 147.502 197.983 147.542 197.914L147.542 197.914C147.583 197.844 147.842 197.427 149.077 197.041C150.345 196.645 152.273 196.41 154.976 196.518C160.371 196.733 167.829 198.262 176.936 201.127C187.178 204.349 199.193 209.157 212.193 215.318C211.741 221.528 211.414 227.993 211.226 234.653C205.547 238.147 200.107 241.663 194.951 245.16ZM194.951 250.84C183.111 259.011 172.935 267.006 165.022 274.26C157.986 280.71 152.932 286.399 150.049 290.96C148.604 293.245 147.844 295.031 147.554 296.325C147.271 297.585 147.502 298.017 147.542 298.086C147.582 298.156 147.842 298.573 149.077 298.959C150.345 299.355 152.273 299.59 154.976 299.482C160.371 299.267 167.829 297.738 176.936 294.873C187.178 291.651 199.193 286.843 212.193 280.682C211.741 274.472 211.414 268.007 211.226 261.347C205.547 257.853 200.107 254.337 194.951 250.84ZM211.101 255.755C206.963 253.171 202.964 250.58 199.122 248C202.964 245.42 206.963 242.829 211.101 240.245C211.06 242.805 211.039 245.392 211.039 248C211.039 250.608 211.06 253.195 211.101 255.755ZM215.847 258.678C215.767 255.17 215.726 251.608 215.726 248C215.726 244.393 215.767 240.83 215.847 237.322C218.847 235.499 221.913 233.683 225.038 231.879C228.165 230.075 231.273 228.329 234.354 226.643C237.435 228.329 240.543 230.075 243.67 231.879C246.797 233.683 249.864 235.5 252.864 237.324C252.944 240.831 252.985 244.393 252.985 248C252.985 251.607 252.944 255.169 252.864 258.676C249.864 260.5 246.797 262.317 243.67 264.121C240.543 265.925 237.435 267.671 234.354 269.357C231.273 267.671 228.165 265.925 225.038 264.121C221.913 262.317 218.847 260.501 215.847 258.678ZM216.007 264.249C216.178 269.122 216.423 273.878 216.738 278.492C220.894 276.458 225.138 274.292 229.446 272.003C227.207 270.759 224.955 269.485 222.695 268.181C220.435 266.877 218.205 265.565 216.007 264.249ZM234.354 274.692C228.488 277.859 222.721 280.809 217.113 283.523C218.274 297.855 220.115 310.658 222.444 321.132C224.515 330.447 226.918 337.666 229.429 342.442C230.687 344.834 231.854 346.385 232.831 347.284C233.782 348.159 234.273 348.176 234.356 348.176C234.438 348.176 234.929 348.159 235.881 347.284C236.857 346.385 238.025 344.834 239.282 342.442C241.793 337.666 244.196 330.447 246.267 321.132C248.596 310.658 250.437 297.855 251.598 283.524C245.989 280.81 240.221 277.86 234.354 274.692ZM256.518 280.683C269.517 286.843 281.531 291.651 291.772 294.873C300.88 297.738 308.337 299.267 313.732 299.482C316.435 299.59 318.363 299.355 319.631 298.959C320.867 298.573 321.126 298.156 321.166 298.086C321.206 298.017 321.437 297.586 321.154 296.325C320.864 295.031 320.104 293.245 318.66 290.96C315.776 286.399 310.722 280.71 303.686 274.26C295.773 267.006 285.597 259.011 273.757 250.84C268.602 254.336 263.163 257.852 257.485 261.345C257.297 268.006 256.97 274.472 256.518 280.683ZM273.757 245.16C285.597 236.989 295.773 228.994 303.686 221.74C310.722 215.29 315.776 209.601 318.66 205.04C320.104 202.755 320.864 200.969 321.154 199.675C321.437 198.414 321.206 197.983 321.166 197.914C321.126 197.844 320.867 197.427 319.631 197.041C318.363 196.645 316.435 196.41 313.732 196.518C308.337 196.733 300.88 198.262 291.772 201.127C281.531 204.349 269.517 209.157 256.518 215.317C256.97 221.528 257.297 227.994 257.485 234.655C263.163 238.148 268.602 241.664 273.757 245.16ZM257.61 240.247C261.747 242.83 265.745 245.421 269.586 248C265.745 250.579 261.747 253.17 257.61 255.753C257.651 253.193 257.673 250.608 257.673 248C257.673 245.392 257.651 242.807 257.61 240.247ZM252.704 231.753C252.534 226.878 252.288 222.121 251.973 217.506C247.816 219.541 243.571 221.707 239.262 223.997C241.502 225.241 243.753 226.515 246.013 227.819C248.274 229.124 250.505 230.436 252.704 231.753ZM251.973 278.494C247.816 276.459 243.571 274.293 239.262 272.003C241.502 270.759 243.753 269.485 246.013 268.181C248.274 266.876 250.505 265.564 252.704 264.247C252.534 269.122 252.288 273.879 251.973 278.494Z" fill="black"/>
<path fill-rule="evenodd" clip-rule="evenodd" d="M167.332 218.634C171.405 218.634 174.706 221.937 174.706 226.011C174.706 230.086 171.405 233.389 167.332 233.389C163.26 233.389 159.958 230.086 159.958 226.011C159.958 221.937 163.26 218.634 167.332 218.634Z" fill="black"/>
<path fill-rule="evenodd" clip-rule="evenodd" d="M284.527 193.37C288.602 193.37 291.905 196.673 291.905 200.747C291.905 204.822 288.602 208.125 284.527 208.125C280.452 208.125 277.149 204.822 277.149 200.747C277.149 196.673 280.452 193.37 284.527 193.37Z" fill="black"/>
<path fill-rule="evenodd" clip-rule="evenodd" d="M219.497 309.166C223.571 309.166 226.874 312.467 226.874 316.54C226.874 320.612 223.571 323.914 219.497 323.914C215.422 323.914 212.119 320.612 212.119 316.54C212.119 312.467 215.422 309.166 219.497 309.166Z" fill="black"/>
<path fill-rule="evenodd" clip-rule="evenodd" d="M233.945 235.455C240.844 235.455 246.436 241.047 246.436 247.945C246.436 254.844 240.844 260.436 233.945 260.436C227.047 260.436 221.455 254.844 221.455 247.945C221.455 241.047 227.047 235.455 233.945 235.455Z" fill="black"/>
</svg>
