<svg width="1024" height="1024" viewBox="0 0 1024 1024" fill="none" xmlns="http://www.w3.org/2000/svg">
<path fill-rule="evenodd" clip-rule="evenodd" d="M518.02 194.292C514.975 191.49 513.404 191.437 513.14 191.437C512.876 191.437 511.305 191.49 508.26 194.292C505.135 197.168 501.399 202.131 497.374 209.787C489.34 225.07 481.65 248.17 475.022 277.977C467.569 311.496 461.68 352.465 457.964 398.327C475.91 407.01 494.363 416.45 513.135 426.586C531.91 416.448 550.367 407.007 568.315 398.323C564.6 352.463 558.711 311.495 551.258 277.977C544.63 248.17 536.94 225.07 528.906 209.787C524.881 202.131 521.145 197.168 518.02 194.292ZM497.429 435.19C483.644 427.865 470.062 420.935 456.764 414.425C455.756 429.19 454.97 444.409 454.425 460.002C461.459 455.791 468.595 451.595 475.828 447.422C483.059 443.249 490.263 439.171 497.429 435.19ZM443.487 391.434C454.257 265.673 481.381 176.437 513.14 176.437C544.899 176.437 572.023 265.671 582.793 391.43C697.154 337.874 788.042 316.734 803.922 344.22C819.801 371.708 756.037 439.8 652.444 512C756.037 584.2 819.801 652.293 803.922 679.779C788.042 707.266 697.154 686.126 582.793 632.57C572.023 758.329 544.899 847.563 513.14 847.563C481.381 847.563 454.257 758.327 443.487 632.566C329.121 686.125 238.229 707.267 222.349 679.779C206.47 652.293 270.234 584.2 373.827 512C270.234 439.8 206.47 371.708 222.349 344.22C238.229 316.733 329.121 337.875 443.487 391.434ZM387.045 502.913C349.157 476.764 316.596 451.18 291.274 427.969C268.758 407.328 252.584 389.123 243.358 374.527C238.735 367.215 236.303 361.501 235.374 357.36C234.469 353.327 235.209 351.947 235.337 351.724L235.338 351.724C235.467 351.5 236.297 350.167 240.249 348.932C244.306 347.664 250.476 346.912 259.125 347.257C276.389 347.945 300.254 352.84 329.398 362.007C362.172 372.316 400.62 387.704 442.221 407.419C440.773 427.289 439.727 447.977 439.125 469.289C420.953 480.469 403.544 491.722 387.045 502.913ZM387.045 521.087C349.157 547.236 316.596 572.82 291.274 596.031C268.758 616.672 252.584 634.877 243.358 649.473C238.735 656.785 236.303 662.499 235.374 666.64C234.469 670.673 235.209 672.053 235.337 672.276C235.466 672.499 236.295 673.833 240.249 675.068C244.306 676.335 250.476 677.088 259.125 676.743C276.389 676.055 300.254 671.16 329.398 661.993C362.172 651.684 400.62 636.296 442.221 616.581C440.773 596.711 439.727 576.022 439.125 554.711C420.953 543.531 403.544 532.278 387.045 521.087ZM438.727 536.816C425.484 528.547 412.686 520.256 400.393 512C412.686 503.744 425.484 495.453 438.727 487.183C438.594 495.377 438.526 503.653 438.526 512C438.526 520.347 438.594 528.622 438.727 536.816ZM453.912 546.17C453.657 534.943 453.526 523.544 453.526 512C453.526 500.456 453.657 489.056 453.912 477.83C463.511 471.997 473.322 466.185 483.324 460.414C493.33 454.641 503.277 449.053 513.135 443.659C522.994 449.053 532.94 454.641 542.947 460.414C552.952 466.187 562.766 472.001 572.368 477.836C572.623 489.06 572.754 500.458 572.754 512C572.754 523.542 572.623 534.939 572.368 546.164C562.766 551.999 552.952 557.813 542.947 563.586C532.94 569.359 522.994 574.947 513.135 580.341C503.277 574.947 493.33 569.359 483.324 563.586C473.322 557.815 463.511 552.003 453.912 546.17ZM454.425 563.998C454.97 579.591 455.756 594.81 456.764 609.575C470.062 603.065 483.644 596.135 497.429 588.81C490.263 584.829 483.059 580.751 475.828 576.578C468.595 572.405 461.459 568.209 454.425 563.998ZM513.135 597.413C494.363 607.55 475.91 616.989 457.964 625.673C461.68 671.534 467.569 712.504 475.022 746.023C481.65 775.83 489.34 798.93 497.374 814.213C501.399 821.869 505.135 826.832 508.26 829.708C511.305 832.51 512.876 832.563 513.14 832.563C513.404 832.563 514.975 832.51 518.02 829.708C521.145 826.832 524.881 821.869 528.906 814.213C536.94 798.93 544.63 775.83 551.258 746.023C558.711 712.505 564.6 671.537 568.315 625.677C550.367 616.993 531.91 607.552 513.135 597.413ZM584.059 616.585C625.656 636.298 664.101 651.685 696.872 661.993C726.017 671.16 749.882 676.055 767.145 676.743C775.795 677.088 781.965 676.335 786.022 675.068C789.975 673.833 790.804 672.499 790.933 672.276C791.061 672.054 791.802 670.674 790.897 666.64C789.967 662.499 787.535 656.785 782.913 649.473C773.686 634.877 757.513 616.672 734.997 596.031C709.675 572.82 677.114 547.236 639.226 521.087C622.73 532.276 605.324 543.527 587.156 554.705C586.554 576.02 585.507 596.712 584.059 616.585ZM639.226 502.913C677.114 476.764 709.675 451.18 734.997 427.969C757.513 407.328 773.686 389.123 782.913 374.527C787.535 367.215 789.967 361.501 790.897 357.36C791.802 353.326 791.061 351.946 790.933 351.724C790.804 351.501 789.975 350.167 786.022 348.932C781.965 347.664 775.795 346.912 767.145 347.257C749.882 347.945 726.017 352.84 696.872 362.007C664.101 372.315 625.656 387.701 584.059 407.415C585.507 427.288 586.554 447.98 587.156 469.295C605.324 480.473 622.73 491.724 639.226 502.913ZM587.553 487.189C600.793 495.457 613.587 503.746 625.877 512C613.587 520.254 600.793 528.543 587.553 536.81C587.687 528.618 587.754 520.345 587.754 512C587.754 503.655 587.687 495.381 587.553 487.189ZM571.855 460.008C571.31 444.411 570.524 429.188 569.516 414.421C556.215 420.932 542.63 427.863 528.841 435.19C536.007 439.171 543.211 443.249 550.443 447.422C557.679 451.597 564.819 455.794 571.855 460.008ZM569.516 609.579C556.215 603.068 542.63 596.137 528.841 588.81C536.007 584.829 543.211 580.751 550.443 576.578C557.679 572.403 564.819 568.205 571.855 563.992C571.31 579.589 570.524 594.811 569.516 609.579Z" fill="black"/>
<path fill-rule="evenodd" clip-rule="evenodd" d="M298.661 418.027C311.693 418.027 322.258 428.597 322.258 441.635C322.258 454.674 311.693 465.244 298.661 465.244C285.629 465.244 275.064 454.674 275.064 441.635C275.064 428.597 285.629 418.027 298.661 418.027Z" fill="black"/>
<path fill-rule="evenodd" clip-rule="evenodd" d="M673.689 337.182C686.727 337.182 697.297 347.752 697.297 360.791C697.297 373.829 686.727 384.399 673.689 384.399C660.65 384.399 650.08 373.829 650.08 360.791C650.08 347.752 660.65 337.182 673.689 337.182Z" fill="black"/>
<path fill-rule="evenodd" clip-rule="evenodd" d="M465.59 707.731C478.628 707.731 489.198 718.296 489.198 731.328C489.198 744.36 478.628 754.925 465.59 754.925C452.551 754.925 441.981 744.36 441.981 731.328C441.981 718.296 452.551 707.731 465.59 707.731Z" fill="black"/>
<path fill-rule="evenodd" clip-rule="evenodd" d="M511.825 471.855C533.9 471.855 551.795 489.75 551.795 511.825C551.795 533.9 533.9 551.795 511.825 551.795C489.75 551.795 471.855 533.9 471.855 511.825C471.855 489.75 489.75 471.855 511.825 471.855Z" fill="black"/>
</svg>
