<svg width="1024" height="1024" viewBox="0 0 1024 1024" fill="none" xmlns="http://www.w3.org/2000/svg">
<rect width="1024" height="1024" fill="white"/>
<path fill-rule="evenodd" clip-rule="evenodd" d="M512 128.553C670.752 128.553 799.447 257.247 799.447 416C799.447 574.752 670.752 703.447 512 703.447C353.247 703.447 224.553 574.752 224.553 416C224.553 257.247 353.247 128.553 512 128.553Z" fill="white"/>
<path fill-rule="evenodd" clip-rule="evenodd" d="M511.446 250.165C603.034 250.165 677.281 324.412 677.281 416C677.281 507.588 603.034 581.835 511.446 581.835C419.858 581.835 345.611 507.588 345.611 416C345.611 324.412 419.858 250.165 511.446 250.165Z" fill="#E6E6E6"/>
<path fill-rule="evenodd" clip-rule="evenodd" d="M516.514 177.719C514.231 175.618 513.052 175.578 512.854 175.578C512.656 175.578 511.478 175.618 509.194 177.719C506.85 179.876 504.048 183.598 501.03 189.341C495.004 200.803 489.237 218.128 484.266 240.483C478.676 265.622 474.259 296.349 471.472 330.746C484.931 337.258 498.772 344.338 512.851 351.94C526.932 344.336 540.774 337.256 554.236 330.742C551.449 296.347 547.032 265.621 541.442 240.483C536.472 218.128 530.704 200.803 524.679 189.341C521.66 183.598 518.858 179.876 516.514 177.719ZM501.071 358.392C490.732 352.899 480.546 347.702 470.572 342.819C469.816 353.892 469.227 365.307 468.818 377.002C474.093 373.843 479.446 370.696 484.87 367.566C490.294 364.437 495.697 361.378 501.071 358.392ZM460.614 325.576C468.691 231.255 489.035 164.328 512.854 164.328C536.673 164.328 557.016 231.253 565.094 325.572C650.865 285.405 719.03 269.551 730.94 290.166C742.85 310.781 695.026 361.85 617.332 416C695.026 470.15 742.85 521.22 730.94 541.835C719.03 562.45 650.865 546.595 565.094 506.428C557.016 600.747 536.673 667.672 512.854 667.672C489.035 667.672 468.691 600.745 460.614 506.425C374.84 546.594 306.671 562.45 294.761 541.835C282.851 521.22 330.675 470.15 408.369 416C330.675 361.85 282.851 310.781 294.761 290.166C306.671 269.55 374.84 285.406 460.614 325.576ZM418.282 409.185C389.867 389.573 365.446 370.385 346.455 352.977C329.567 337.496 317.437 323.842 310.517 312.896C307.05 307.411 305.227 303.126 304.53 300.02C303.851 296.996 304.406 295.96 304.502 295.793L304.502 295.793C304.599 295.625 305.222 294.625 308.186 293.699C311.228 292.749 315.856 292.184 322.343 292.443C335.291 292.959 353.189 296.63 375.048 303.505C399.628 311.237 428.464 322.778 459.665 337.564C458.579 352.467 457.794 367.983 457.343 383.967C443.713 392.352 430.657 400.791 418.282 409.185ZM418.282 422.816C389.867 442.427 365.446 461.615 346.455 479.024C329.567 494.504 317.437 508.158 310.517 519.105C307.05 524.589 305.227 528.875 304.53 531.98C303.851 535.005 304.406 536.04 304.502 536.207C304.599 536.374 305.221 537.375 308.186 538.301C311.228 539.252 315.856 539.816 322.343 539.557C335.291 539.042 353.189 535.37 375.048 528.495C399.628 520.763 428.464 509.222 459.665 494.436C458.579 479.533 457.794 464.017 457.343 448.033C443.713 439.648 430.657 431.209 418.282 422.816ZM457.044 434.613C447.112 428.41 437.514 422.192 428.294 416C437.514 409.808 447.112 403.59 457.044 397.388C456.944 403.533 456.894 409.74 456.894 416C456.894 422.26 456.944 428.467 457.044 434.613ZM468.433 441.628C468.242 433.208 468.144 424.658 468.144 416C468.144 407.342 468.242 398.793 468.433 390.372C475.633 385.998 482.991 381.639 490.492 377.311C497.997 372.981 505.456 368.79 512.851 364.744C520.245 368.79 527.704 372.981 535.209 377.311C542.713 381.64 550.074 386.001 557.275 390.377C557.467 398.796 557.565 407.344 557.565 416C557.565 424.657 557.467 433.205 557.275 441.623C550.074 446 542.713 450.36 535.209 454.689C527.704 459.02 520.245 463.21 512.851 467.256C505.456 463.21 497.997 459.02 490.492 454.689C482.991 450.361 475.633 446.003 468.433 441.628ZM468.818 454.998C469.227 466.694 469.816 478.108 470.572 489.181C480.546 484.299 490.732 479.102 501.071 473.608C495.697 470.622 490.294 467.563 484.87 464.434C479.446 461.304 474.093 458.157 468.818 454.998ZM512.851 480.06C498.772 487.663 484.931 494.742 471.472 501.255C474.259 535.651 478.676 566.378 484.266 591.517C489.237 613.873 495.004 631.198 501.03 642.66C504.048 648.402 506.85 652.124 509.194 654.281C511.478 656.382 512.656 656.422 512.854 656.422C513.052 656.422 514.231 656.382 516.514 654.281C518.858 652.124 521.66 648.402 524.679 642.66C530.704 631.198 536.472 613.873 541.442 591.517C547.032 566.379 551.449 535.653 554.236 501.258C540.774 494.745 526.932 487.664 512.851 480.06ZM566.043 494.439C597.241 509.224 626.075 520.764 650.653 528.495C672.512 535.37 690.41 539.042 703.358 539.557C709.845 539.816 714.473 539.252 717.515 538.301C720.481 537.375 721.102 536.374 721.199 536.207C721.295 536.041 721.85 535.006 721.171 531.98C720.474 528.875 718.651 524.589 715.184 519.105C708.264 508.158 696.134 494.504 679.247 479.024C660.255 461.615 635.834 442.427 607.419 422.816C595.046 431.207 581.992 439.645 568.366 448.029C567.914 464.015 567.129 479.534 566.043 494.439ZM607.419 409.185C635.834 389.573 660.255 370.385 679.247 352.977C696.134 337.496 708.264 323.842 715.184 312.896C718.651 307.411 720.474 303.126 721.171 300.02C721.85 296.994 721.295 295.959 721.199 295.793C721.102 295.626 720.481 294.625 717.515 293.699C714.473 292.749 709.845 292.184 703.358 292.443C690.41 292.959 672.512 296.63 650.653 303.505C626.075 311.237 597.241 322.776 566.043 337.561C567.129 352.466 567.914 367.985 568.366 383.972C581.992 392.355 595.046 400.793 607.419 409.185ZM568.664 397.392C578.594 403.593 588.19 409.81 597.407 416C588.19 422.19 578.594 428.407 568.664 434.608C568.764 428.464 568.815 422.259 568.815 416C568.815 409.742 568.764 403.536 568.664 397.392ZM556.89 377.006C556.482 365.308 555.892 353.892 555.136 342.816C545.16 347.699 534.972 352.897 524.63 358.392C530.004 361.378 535.407 364.437 540.831 367.566C546.258 370.698 551.613 373.846 556.89 377.006ZM555.136 489.185C545.16 484.301 534.972 479.103 524.63 473.608C530.004 470.622 535.407 467.563 540.831 464.434C546.258 461.303 551.613 458.154 556.89 454.994C556.482 466.692 555.892 478.109 555.136 489.185Z" fill="black"/>
<path fill-rule="evenodd" clip-rule="evenodd" d="M351.995 345.521C361.769 345.521 369.693 353.448 369.693 363.227C369.693 373.006 361.769 380.933 351.995 380.933C342.221 380.933 334.298 373.006 334.298 363.227C334.298 353.448 342.221 345.521 351.995 345.521Z" fill="black"/>
<path fill-rule="evenodd" clip-rule="evenodd" d="M633.268 284.887C643.046 284.887 650.974 292.814 650.974 302.593C650.974 312.372 643.046 320.299 633.268 320.299C623.489 320.299 615.561 312.372 615.561 302.593C615.561 292.814 623.489 284.887 633.268 284.887Z" fill="black"/>
<path fill-rule="evenodd" clip-rule="evenodd" d="M477.193 562.798C486.972 562.798 494.899 570.722 494.899 580.496C494.899 590.27 486.972 598.194 477.193 598.194C467.414 598.194 459.486 590.27 459.486 580.496C459.486 570.722 467.414 562.798 477.193 562.798Z" fill="black"/>
<path fill-rule="evenodd" clip-rule="evenodd" d="M511.869 385.891C528.425 385.891 541.846 399.313 541.846 415.869C541.846 432.425 528.425 445.846 511.869 445.846C495.313 445.846 481.891 432.425 481.891 415.869C481.891 399.313 495.313 385.891 511.869 385.891Z" fill="black"/>
<path fill-rule="evenodd" clip-rule="evenodd" d="M288 860.282L280.101 852.281C277.1 855.081 274.067 857.299 270.999 858.932C267.934 860.565 264.266 861.381 260 861.381C256.667 861.381 253.584 860.732 250.75 859.432C247.917 858.131 245.467 856.349 243.4 854.081C241.333 851.815 239.734 849.165 238.6 846.132C237.466 843.099 236.901 839.848 236.901 836.383C236.901 832.916 237.466 829.682 238.6 826.682C239.734 823.683 241.333 821.067 243.4 818.833C245.467 816.6 247.917 814.834 250.75 813.534C253.584 812.235 256.667 811.584 260 811.584C263.999 811.584 267.567 812.384 270.699 813.984C273.834 815.583 276.8 817.684 279.599 820.283L287.499 811.185C285.833 809.585 284.067 808.118 282.2 806.784C280.334 805.451 278.301 804.3 276.1 803.335C273.9 802.367 271.483 801.618 268.85 801.086C266.216 800.551 263.299 800.284 260.1 800.284C254.767 800.284 249.9 801.235 245.501 803.135C241.1 805.034 237.3 807.634 234.1 810.934C230.9 814.234 228.417 818.083 226.65 822.484C224.882 826.883 224 831.583 224 836.583C224 841.649 224.9 846.382 226.7 850.782C228.5 855.181 230.983 858.997 234.15 862.231C237.316 865.463 241.066 868.013 245.399 869.88C249.733 871.748 254.467 872.68 259.6 872.68C262.867 872.68 265.85 872.396 268.55 871.83C271.25 871.263 273.734 870.431 276 869.331C278.267 868.23 280.384 866.93 282.351 865.431C284.317 863.931 286.2 862.213 288 860.282Z" fill="black"/>
<path fill-rule="evenodd" clip-rule="evenodd" d="M446.677 820.103C446.677 817.775 447.672 815.796 449.662 814.167C451.65 812.536 454.436 811.722 458.016 811.722C461.199 811.722 464.348 812.338 467.464 813.568C470.581 814.799 473.73 816.578 476.912 818.905L483.476 809.627C479.897 806.767 476.068 804.589 471.99 803.094C467.911 801.597 463.32 800.849 458.215 800.849C454.767 800.849 451.584 801.331 448.683 802.296C445.766 803.259 443.281 804.639 441.208 806.435C439.136 808.232 437.511 810.376 436.318 812.87C435.142 815.364 434.544 818.141 434.544 821.2C434.544 824.459 435.058 827.22 436.086 829.481C437.114 831.742 438.622 833.671 440.579 835.268C442.534 836.864 444.971 838.194 447.854 839.258C450.755 840.323 454.055 841.286 457.784 842.151C461.034 842.949 463.668 843.714 465.707 844.445C467.73 845.177 469.321 845.959 470.498 846.789C471.657 847.621 472.454 848.535 472.885 849.533C473.316 850.531 473.53 851.661 473.53 852.925C473.53 855.653 472.421 857.815 470.2 859.41C467.978 861.007 464.977 861.804 461.199 861.804C456.823 861.804 452.91 861.022 449.463 859.459C446.014 857.897 442.601 855.653 439.218 852.725L431.859 861.505C436.037 865.296 440.579 868.106 445.484 869.935C450.392 871.765 455.53 872.679 460.9 872.679C464.547 872.679 467.896 872.213 470.946 871.283C473.979 870.35 476.598 868.987 478.753 867.191C480.924 865.395 482.615 863.201 483.841 860.608C485.051 858.014 485.665 855.054 485.665 851.728C485.665 848.802 485.184 846.258 484.222 844.096C483.26 841.934 481.835 840.041 479.979 838.409C478.122 836.78 475.769 835.399 472.951 834.269C470.134 833.139 466.884 832.108 463.237 831.177C459.905 830.379 457.171 829.613 454.999 828.882C452.844 828.151 451.154 827.353 449.91 826.487C448.683 825.623 447.839 824.692 447.374 823.695C446.911 822.696 446.677 821.499 446.677 820.103Z" fill="black"/>
<path fill-rule="evenodd" clip-rule="evenodd" d="M582.823 821.092V870.983H594.974V801.415H581.925L560.708 834.311L539.492 801.415H526.443V870.983H538.595V821.291L560.408 853.889H560.808L582.823 821.092Z" fill="black"/>
<path fill-rule="evenodd" clip-rule="evenodd" d="M697.071 836.583C697.071 839.983 696.489 843.199 695.325 846.233C694.161 849.266 692.548 851.898 690.483 854.131C688.422 856.364 685.942 858.131 683.048 859.431C680.153 860.732 676.976 861.381 673.517 861.381C670.056 861.381 666.861 860.714 663.934 859.382C661.006 858.047 658.493 856.248 656.398 853.982C654.302 851.715 652.672 849.065 651.507 846.032C650.343 842.999 649.76 839.782 649.76 836.383C649.76 832.982 650.343 829.766 651.507 826.733C652.672 823.699 654.285 821.067 656.348 818.833C658.411 816.6 660.89 814.834 663.784 813.534C666.678 812.234 669.856 811.584 673.316 811.584C676.777 811.584 679.971 812.251 682.899 813.585C685.825 814.918 688.338 816.717 690.433 818.984C692.53 821.249 694.161 823.9 695.325 826.933C696.489 829.966 697.071 833.183 697.071 836.583ZM709.947 836.383C709.947 831.45 709.049 826.783 707.252 822.382C705.457 817.984 702.96 814.15 699.767 810.884C696.573 807.617 692.747 805.034 688.287 803.135C683.83 801.235 678.906 800.284 673.517 800.284C668.126 800.284 663.203 801.251 658.744 803.185C654.285 805.118 650.425 807.734 647.165 811.034C643.904 814.334 641.377 818.184 639.579 822.584C637.783 826.983 636.885 831.649 636.885 836.583C636.885 841.515 637.783 846.181 639.579 850.581C641.377 854.982 643.871 858.815 647.066 862.081C650.258 865.347 654.086 867.931 658.545 869.83C663.002 871.73 667.925 872.68 673.316 872.68C678.705 872.68 683.63 871.712 688.088 869.781C692.548 867.847 696.406 865.231 699.668 861.93C702.928 858.632 705.457 854.781 707.252 850.382C709.049 845.982 709.947 841.316 709.947 836.383Z" fill="black"/>
<path fill-rule="evenodd" clip-rule="evenodd" d="M761.013 820.103C761.013 817.775 762.008 815.796 763.996 814.167C765.986 812.536 768.771 811.722 772.352 811.722C775.533 811.722 778.684 812.338 781.8 813.568C784.916 814.799 788.066 816.578 791.249 818.905L797.812 809.627C794.232 806.767 790.402 804.589 786.325 803.094C782.248 801.597 777.656 800.849 772.551 800.849C769.103 800.849 765.92 801.331 763.019 802.296C760.102 803.259 757.617 804.639 755.544 806.435C753.472 808.232 751.849 810.376 750.653 812.87C749.477 815.364 748.88 818.141 748.88 821.2C748.88 824.459 749.394 827.22 750.422 829.481C751.45 831.742 752.958 833.671 754.913 835.268C756.87 836.864 759.306 838.194 762.191 839.258C765.091 840.323 768.391 841.286 772.12 842.151C775.368 842.949 778.004 843.714 780.043 844.445C782.064 845.177 783.657 845.959 784.834 846.789C785.993 847.621 786.79 848.535 787.221 849.533C787.652 850.531 787.868 851.661 787.868 852.925C787.868 855.653 786.755 857.815 784.536 859.41C782.314 861.007 779.313 861.804 775.533 861.804C771.158 861.804 767.245 861.022 763.799 859.459C760.352 857.897 756.937 855.653 753.554 852.725L746.195 861.505C750.371 865.296 754.913 868.106 759.82 869.935C764.726 871.765 769.864 872.679 775.236 872.679C778.883 872.679 782.231 872.213 785.282 871.283C788.315 870.35 790.934 868.987 793.089 867.191C795.26 865.395 796.951 863.201 798.177 860.608C799.386 858.014 800.001 855.054 800.001 851.728C800.001 848.802 799.519 846.258 798.558 844.096C797.596 841.934 796.171 840.041 794.314 838.409C792.458 836.78 790.105 835.399 787.287 834.269C784.469 833.139 781.219 832.108 777.573 831.177C774.241 830.379 771.507 829.613 769.335 828.882C767.18 828.151 765.49 827.353 764.246 826.487C763.019 825.623 762.174 824.692 761.71 823.695C761.247 822.696 761.013 821.499 761.013 820.103Z" fill="black"/>
<path fill-rule="evenodd" clip-rule="evenodd" d="M371.359 815.342L338.063 848.594C337.633 847.762 337.246 846.895 336.898 845.996C335.736 842.974 335.154 839.769 335.154 836.383C335.154 832.995 335.736 829.791 336.898 826.77C338.063 823.747 339.675 821.125 341.737 818.899C343.799 816.675 346.276 814.916 349.169 813.62C352.062 812.326 355.237 811.678 358.695 811.678C362.154 811.678 365.346 812.342 368.27 813.671C369.358 814.164 370.388 814.721 371.359 815.342ZM368.421 859.345C365.528 860.64 362.353 861.287 358.895 861.287C355.436 861.287 352.244 860.623 349.318 859.295C348.232 858.8 347.202 858.244 346.232 857.622L379.527 824.372C379.957 825.203 380.344 826.068 380.692 826.969C381.854 829.99 382.436 833.196 382.436 836.583C382.436 839.969 381.854 843.174 380.692 846.196C379.527 849.218 377.915 851.84 375.853 854.064C373.791 856.288 371.315 858.049 368.421 859.345ZM373.459 869.654C377.915 867.728 381.772 865.122 385.031 861.833C388.289 858.547 390.815 854.712 392.61 850.329C394.407 845.946 395.305 841.297 395.305 836.383C395.305 831.468 394.407 826.819 392.61 822.435C391.546 819.836 390.235 817.436 388.679 815.233L410.336 793.606L401.73 785.013L380.008 806.705C378.058 805.377 375.941 804.229 373.658 803.26C369.202 801.368 364.281 800.42 358.895 800.42C353.508 800.42 348.587 801.384 344.131 803.31C339.675 805.236 335.818 807.842 332.559 811.129C329.301 814.417 326.774 818.253 324.978 822.635C323.183 827.018 322.285 831.667 322.285 836.582C322.285 841.496 323.183 846.144 324.978 850.528C326.044 853.128 327.355 855.529 328.911 857.733L307.256 879.357L315.861 887.95L337.582 866.259C339.532 867.587 341.649 868.735 343.932 869.704C348.388 871.596 353.309 872.543 358.695 872.543C364.082 872.543 369.003 871.579 373.459 869.654Z" fill="black"/>
</svg>
