<svg width="1024" height="1024" viewBox="0 0 1024 1024" fill="none" xmlns="http://www.w3.org/2000/svg">
<path fill-rule="evenodd" clip-rule="evenodd" d="M512 128.553C670.753 128.553 799.447 257.247 799.447 416C799.447 574.753 670.753 703.447 512 703.447C353.247 703.447 224.553 574.753 224.553 416C224.553 257.247 353.247 128.553 512 128.553Z" fill="#171717"/>
<path fill-rule="evenodd" clip-rule="evenodd" d="M511.448 250.165C603.036 250.165 677.283 324.412 677.283 416C677.283 507.588 603.036 581.835 511.448 581.835C419.86 581.835 345.613 507.588 345.613 416C345.613 324.412 419.86 250.165 511.448 250.165Z" fill="black"/>
<path opacity="0.67" fill-rule="evenodd" clip-rule="evenodd" d="M516.514 177.719C514.231 175.618 513.052 175.578 512.854 175.578C512.656 175.578 511.478 175.618 509.194 177.719C506.85 179.876 504.048 183.598 501.03 189.341C495.004 200.803 489.237 218.128 484.266 240.483C478.676 265.622 474.259 296.349 471.472 330.746C484.931 337.258 498.772 344.338 512.851 351.94C526.932 344.336 540.774 337.256 554.236 330.742C551.449 296.347 547.032 265.621 541.442 240.483C536.472 218.128 530.704 200.803 524.679 189.341C521.66 183.598 518.858 179.876 516.514 177.719ZM501.071 358.392C490.732 352.899 480.546 347.702 470.572 342.819C469.816 353.892 469.227 365.307 468.818 377.002C474.093 373.843 479.446 370.696 484.87 367.566C490.294 364.437 495.697 361.378 501.071 358.392ZM460.614 325.576C468.691 231.255 489.035 164.328 512.854 164.328C536.673 164.328 557.016 231.253 565.094 325.572C650.865 285.405 719.03 269.551 730.94 290.166C742.85 310.781 695.026 361.85 617.332 416C695.026 470.15 742.85 521.22 730.94 541.835C719.03 562.45 650.865 546.595 565.094 506.428C557.016 600.747 536.673 667.672 512.854 667.672C489.035 667.672 468.691 600.745 460.614 506.425C374.84 546.594 306.671 562.45 294.761 541.835C282.851 521.22 330.675 470.15 408.369 416C330.675 361.85 282.851 310.781 294.761 290.166C306.671 269.55 374.84 285.406 460.614 325.576ZM418.282 409.185C389.867 389.573 365.446 370.385 346.455 352.977C329.567 337.496 317.437 323.842 310.517 312.896C307.05 307.411 305.227 303.126 304.53 300.02C303.851 296.996 304.406 295.96 304.502 295.793L304.502 295.793C304.599 295.625 305.222 294.625 308.186 293.699C311.228 292.749 315.856 292.184 322.343 292.443C335.291 292.959 353.189 296.63 375.048 303.505C399.628 311.237 428.464 322.778 459.665 337.564C458.579 352.467 457.794 367.983 457.343 383.967C443.713 392.352 430.657 400.791 418.282 409.185ZM418.282 422.816C389.867 442.427 365.446 461.615 346.455 479.024C329.567 494.504 317.437 508.158 310.517 519.105C307.05 524.589 305.227 528.875 304.53 531.98C303.851 535.005 304.406 536.04 304.502 536.207C304.599 536.374 305.221 537.375 308.186 538.301C311.228 539.252 315.856 539.816 322.343 539.557C335.291 539.042 353.189 535.37 375.048 528.495C399.628 520.763 428.464 509.222 459.665 494.436C458.579 479.533 457.794 464.017 457.343 448.033C443.713 439.648 430.657 431.209 418.282 422.816ZM457.044 434.613C447.112 428.41 437.514 422.192 428.294 416C437.514 409.808 447.112 403.59 457.044 397.388C456.944 403.533 456.894 409.74 456.894 416C456.894 422.26 456.944 428.467 457.044 434.613ZM468.433 441.628C468.242 433.208 468.144 424.658 468.144 416C468.144 407.342 468.242 398.793 468.433 390.372C475.633 385.998 482.991 381.639 490.492 377.311C497.997 372.981 505.456 368.79 512.851 364.744C520.245 368.79 527.704 372.981 535.209 377.311C542.713 381.64 550.074 386.001 557.275 390.377C557.467 398.796 557.565 407.344 557.565 416C557.565 424.657 557.467 433.205 557.275 441.623C550.074 446 542.713 450.36 535.209 454.689C527.704 459.02 520.245 463.21 512.851 467.256C505.456 463.21 497.997 459.02 490.492 454.689C482.991 450.361 475.633 446.003 468.433 441.628ZM468.818 454.998C469.227 466.694 469.816 478.108 470.572 489.181C480.546 484.299 490.732 479.102 501.071 473.608C495.697 470.622 490.294 467.563 484.87 464.434C479.446 461.304 474.093 458.157 468.818 454.998ZM512.851 480.06C498.772 487.663 484.931 494.742 471.472 501.255C474.259 535.651 478.676 566.378 484.266 591.517C489.237 613.873 495.004 631.198 501.03 642.66C504.048 648.402 506.85 652.124 509.194 654.281C511.478 656.382 512.656 656.422 512.854 656.422C513.052 656.422 514.231 656.382 516.514 654.281C518.858 652.124 521.66 648.402 524.679 642.66C530.704 631.198 536.472 613.873 541.442 591.517C547.032 566.379 551.449 535.653 554.236 501.258C540.774 494.745 526.932 487.664 512.851 480.06ZM566.043 494.439C597.241 509.224 626.075 520.764 650.653 528.495C672.512 535.37 690.41 539.042 703.358 539.557C709.845 539.816 714.473 539.252 717.515 538.301C720.481 537.375 721.102 536.374 721.199 536.207C721.295 536.041 721.85 535.006 721.171 531.98C720.474 528.875 718.651 524.589 715.184 519.105C708.264 508.158 696.134 494.504 679.247 479.024C660.255 461.615 635.834 442.427 607.419 422.816C595.046 431.207 581.992 439.645 568.366 448.029C567.914 464.015 567.129 479.534 566.043 494.439ZM607.419 409.185C635.834 389.573 660.255 370.385 679.247 352.977C696.134 337.496 708.264 323.842 715.184 312.896C718.651 307.411 720.474 303.126 721.171 300.02C721.85 296.994 721.295 295.959 721.199 295.793C721.102 295.626 720.481 294.625 717.515 293.699C714.473 292.749 709.845 292.184 703.358 292.443C690.41 292.959 672.512 296.63 650.653 303.505C626.075 311.237 597.241 322.776 566.043 337.561C567.129 352.466 567.914 367.985 568.366 383.972C581.992 392.355 595.046 400.793 607.419 409.185ZM568.664 397.392C578.594 403.593 588.19 409.81 597.407 416C588.19 422.19 578.594 428.407 568.664 434.608C568.764 428.464 568.815 422.259 568.815 416C568.815 409.742 568.764 403.536 568.664 397.392ZM556.89 377.006C556.482 365.308 555.892 353.892 555.136 342.816C545.16 347.699 534.972 352.897 524.63 358.392C530.004 361.378 535.407 364.437 540.831 367.566C546.258 370.698 551.613 373.846 556.89 377.006ZM555.136 489.185C545.16 484.301 534.972 479.103 524.63 473.608C530.004 470.622 535.407 467.563 540.831 464.434C546.258 461.303 551.613 458.154 556.89 454.994C556.482 466.692 555.892 478.109 555.136 489.185Z" fill="white"/>
<path fill-rule="evenodd" clip-rule="evenodd" d="M351.995 345.521C361.769 345.521 369.693 353.448 369.693 363.227C369.693 373.006 361.769 380.933 351.995 380.933C342.221 380.933 334.298 373.006 334.298 363.227C334.298 353.448 342.221 345.521 351.995 345.521Z" fill="white"/>
<path fill-rule="evenodd" clip-rule="evenodd" d="M633.268 284.887C643.046 284.887 650.974 292.814 650.974 302.593C650.974 312.372 643.046 320.299 633.268 320.299C623.489 320.299 615.561 312.372 615.561 302.593C615.561 292.814 623.489 284.887 633.268 284.887Z" fill="white"/>
<path fill-rule="evenodd" clip-rule="evenodd" d="M477.193 562.798C486.972 562.798 494.899 570.722 494.899 580.496C494.899 590.27 486.972 598.194 477.193 598.194C467.414 598.194 459.486 590.27 459.486 580.496C459.486 570.722 467.414 562.798 477.193 562.798Z" fill="white"/>
<path fill-rule="evenodd" clip-rule="evenodd" d="M511.869 385.891C528.425 385.891 541.846 399.313 541.846 415.869C541.846 432.425 528.425 445.846 511.869 445.846C495.313 445.846 481.891 432.425 481.891 415.869C481.891 399.313 495.313 385.891 511.869 385.891Z" fill="white"/>
<rect width="576" height="108" transform="translate(224 782.2)" fill="black"/>
<path fill-rule="evenodd" clip-rule="evenodd" d="M288 860.281L280.101 852.28C277.1 855.08 274.067 857.298 270.999 858.931C267.934 860.564 264.266 861.38 260 861.38C256.667 861.38 253.584 860.731 250.75 859.431C247.917 858.13 245.467 856.348 243.4 854.08C241.333 851.814 239.734 849.164 238.6 846.131C237.466 843.098 236.901 839.847 236.901 836.383C236.901 832.915 237.466 829.682 238.6 826.681C239.734 823.682 241.333 821.066 243.4 818.832C245.467 816.599 247.917 814.833 250.75 813.533C253.584 812.234 256.667 811.583 260 811.583C263.999 811.583 267.567 812.383 270.699 813.983C273.834 815.582 276.8 817.683 279.599 820.282L287.499 811.184C285.833 809.584 284.067 808.117 282.2 806.783C280.334 805.45 278.301 804.299 276.1 803.334C273.9 802.366 271.483 801.617 268.85 801.085C266.216 800.55 263.299 800.283 260.1 800.283C254.767 800.283 249.9 801.234 245.501 803.134C241.1 805.033 237.3 807.633 234.1 810.933C230.9 814.233 228.417 818.082 226.65 822.483C224.882 826.882 224 831.582 224 836.582C224 841.648 224.9 846.381 226.7 850.782C228.5 855.18 230.983 858.996 234.15 862.23C237.316 865.462 241.066 868.012 245.399 869.879C249.733 871.747 254.467 872.679 259.6 872.679C262.867 872.679 265.85 872.396 268.55 871.829C271.25 871.262 273.734 870.43 276 869.33C278.267 868.229 280.384 866.929 282.351 865.43C284.317 863.93 286.2 862.212 288 860.281Z" fill="white"/>
<path fill-rule="evenodd" clip-rule="evenodd" d="M446.675 820.104C446.675 817.776 447.67 815.797 449.66 814.168C451.648 812.537 454.434 811.723 458.014 811.723C461.197 811.723 464.346 812.339 467.462 813.569C470.579 814.8 473.728 816.579 476.91 818.906L483.474 809.628C479.895 806.768 476.066 804.59 471.988 803.095C467.909 801.598 463.318 800.85 458.213 800.85C454.765 800.85 451.583 801.331 448.681 802.297C445.764 803.26 443.279 804.64 441.206 806.436C439.134 808.232 437.509 810.377 436.316 812.871C435.14 815.365 434.542 818.142 434.542 821.201C434.542 824.46 435.056 827.221 436.084 829.482C437.112 831.743 438.62 833.672 440.577 835.269C442.532 836.865 444.969 838.195 447.852 839.259C450.753 840.324 454.053 841.287 457.782 842.152C461.032 842.95 463.666 843.715 465.705 844.446C467.728 845.178 469.319 845.96 470.496 846.79C471.655 847.622 472.452 848.536 472.883 849.534C473.314 850.532 473.528 851.662 473.528 852.926C473.528 855.654 472.419 857.816 470.198 859.411C467.976 861.008 464.975 861.805 461.197 861.805C456.821 861.805 452.908 861.023 449.461 859.46C446.013 857.898 442.599 855.654 439.216 852.726L431.857 861.506C436.035 865.297 440.577 868.107 445.483 869.936C450.39 871.766 455.528 872.68 460.898 872.68C464.545 872.68 467.894 872.214 470.944 871.284C473.977 870.351 476.596 868.988 478.751 867.192C480.922 865.396 482.613 863.202 483.839 860.609C485.049 858.015 485.663 855.055 485.663 851.729C485.663 848.803 485.182 846.259 484.22 844.097C483.258 841.935 481.833 840.041 479.977 838.41C478.12 836.781 475.767 835.4 472.949 834.27C470.132 833.14 466.882 832.109 463.235 831.178C459.903 830.38 457.169 829.614 454.998 828.883C452.843 828.152 451.152 827.354 449.908 826.488C448.681 825.624 447.837 824.693 447.372 823.695C446.909 822.697 446.675 821.5 446.675 820.104Z" fill="white"/>
<path fill-rule="evenodd" clip-rule="evenodd" d="M582.823 821.092V870.983H594.974V801.415H581.925L560.708 834.311L539.492 801.415H526.443V870.983H538.595V821.291L560.408 853.889H560.808L582.823 821.092Z" fill="white"/>
<path fill-rule="evenodd" clip-rule="evenodd" d="M697.071 836.582C697.071 839.982 696.489 843.198 695.325 846.232C694.161 849.265 692.548 851.897 690.483 854.13C688.422 856.363 685.942 858.13 683.048 859.431C680.153 860.731 676.976 861.38 673.517 861.38C670.056 861.38 666.861 860.714 663.934 859.381C661.006 858.047 658.493 856.247 656.398 853.982C654.302 851.714 652.672 849.064 651.507 846.031C650.343 842.999 649.76 839.781 649.76 836.383C649.76 832.982 650.343 829.765 651.507 826.733C652.672 823.698 654.285 821.066 656.348 818.832C658.411 816.599 660.89 814.833 663.784 813.533C666.678 812.234 669.856 811.583 673.316 811.583C676.777 811.583 679.971 812.25 682.899 813.584C685.825 814.917 688.338 816.717 690.433 818.983C692.53 821.248 694.161 823.899 695.325 826.932C696.489 829.965 697.071 833.183 697.071 836.582ZM709.947 836.383C709.947 831.449 709.048 826.782 707.252 822.382C705.457 817.983 702.96 814.149 699.767 810.883C696.573 807.616 692.747 805.033 688.287 803.134C683.829 801.234 678.906 800.283 673.517 800.283C668.126 800.283 663.203 801.251 658.744 803.184C654.285 805.117 650.425 807.733 647.165 811.033C643.904 814.333 641.377 818.183 639.579 822.583C637.783 826.982 636.885 831.649 636.885 836.582C636.885 841.515 637.783 846.18 639.579 850.58C641.377 854.981 643.871 858.814 647.066 862.08C650.258 865.346 654.086 867.93 658.545 869.83C663.002 871.729 667.925 872.679 673.316 872.679C678.705 872.679 683.63 871.712 688.088 869.78C692.548 867.846 696.406 865.23 699.668 861.929C702.928 858.631 705.457 854.78 707.252 850.381C709.048 845.981 709.947 841.315 709.947 836.383Z" fill="white"/>
<path fill-rule="evenodd" clip-rule="evenodd" d="M761.013 820.104C761.013 817.776 762.008 815.797 763.996 814.168C765.986 812.537 768.771 811.723 772.352 811.723C775.533 811.723 778.684 812.339 781.8 813.569C784.916 814.8 788.066 816.579 791.249 818.906L797.812 809.628C794.232 806.768 790.402 804.59 786.325 803.095C782.248 801.598 777.656 800.85 772.551 800.85C769.103 800.85 765.92 801.331 763.019 802.297C760.102 803.26 757.617 804.64 755.544 806.436C753.472 808.232 751.849 810.377 750.653 812.871C749.477 815.365 748.88 818.142 748.88 821.201C748.88 824.46 749.394 827.221 750.422 829.482C751.45 831.743 752.958 833.672 754.913 835.269C756.87 836.865 759.306 838.195 762.191 839.259C765.091 840.324 768.391 841.287 772.12 842.152C775.368 842.95 778.004 843.715 780.043 844.446C782.064 845.178 783.657 845.96 784.834 846.79C785.993 847.622 786.79 848.536 787.221 849.534C787.652 850.532 787.868 851.662 787.868 852.926C787.868 855.654 786.755 857.816 784.536 859.411C782.314 861.008 779.313 861.805 775.533 861.805C771.158 861.805 767.245 861.023 763.799 859.46C760.352 857.898 756.937 855.654 753.554 852.726L746.195 861.506C750.371 865.297 754.913 868.107 759.82 869.936C764.726 871.766 769.864 872.68 775.236 872.68C778.883 872.68 782.231 872.214 785.282 871.284C788.315 870.351 790.934 868.988 793.089 867.192C795.26 865.396 796.951 863.202 798.177 860.609C799.386 858.015 800.001 855.055 800.001 851.729C800.001 848.803 799.519 846.259 798.558 844.097C797.596 841.935 796.171 840.041 794.314 838.41C792.458 836.781 790.105 835.4 787.287 834.27C784.469 833.14 781.219 832.109 777.573 831.178C774.241 830.38 771.507 829.614 769.335 828.883C767.18 828.152 765.49 827.354 764.246 826.488C763.019 825.624 762.174 824.693 761.71 823.695C761.247 822.697 761.013 821.5 761.013 820.104Z" fill="white"/>
<path fill-rule="evenodd" clip-rule="evenodd" d="M371.359 815.342L338.063 848.594C337.633 847.762 337.246 846.895 336.899 845.996C335.736 842.974 335.154 839.769 335.154 836.383C335.154 832.995 335.736 829.791 336.899 826.77C338.063 823.747 339.675 821.125 341.737 818.899C343.799 816.675 346.276 814.916 349.169 813.62C352.062 812.326 355.237 811.678 358.695 811.678C362.154 811.678 365.346 812.342 368.271 813.671C369.358 814.164 370.388 814.721 371.359 815.342ZM368.421 859.344C365.528 860.64 362.353 861.286 358.895 861.286C355.436 861.286 352.244 860.623 349.318 859.295C348.232 858.8 347.202 858.244 346.232 857.621L379.527 824.372C379.957 825.203 380.344 826.068 380.692 826.969C381.854 829.99 382.436 833.195 382.436 836.582C382.436 839.969 381.854 843.173 380.692 846.196C379.527 849.217 377.915 851.839 375.853 854.064C373.791 856.288 371.315 858.049 368.421 859.344ZM373.459 869.654C377.915 867.728 381.772 865.122 385.031 861.833C388.289 858.547 390.815 854.712 392.61 850.329C394.407 845.946 395.305 841.297 395.305 836.383C395.305 831.468 394.407 826.819 392.61 822.435C391.546 819.836 390.235 817.436 388.679 815.233L410.336 793.606L401.73 785.013L380.008 806.705C378.058 805.377 375.941 804.229 373.658 803.26C369.202 801.368 364.281 800.42 358.895 800.42C353.508 800.42 348.587 801.384 344.131 803.31C339.675 805.236 335.818 807.842 332.559 811.129C329.301 814.417 326.774 818.253 324.978 822.635C323.183 827.018 322.285 831.667 322.285 836.582C322.285 841.496 323.183 846.144 324.978 850.528C326.044 853.128 327.355 855.529 328.911 857.733L307.256 879.357L315.861 887.95L337.582 866.259C339.532 867.587 341.649 868.735 343.932 869.704C348.388 871.596 353.309 872.543 358.695 872.543C364.082 872.543 369.003 871.579 373.459 869.654Z" fill="white"/>
</svg>
