<svg width="1160" height="320" viewBox="0 0 1160 320" fill="none" xmlns="http://www.w3.org/2000/svg">
<path fill-rule="evenodd" clip-rule="evenodd" d="M162.507 27.6212C161.239 26.4537 160.584 26.4316 160.474 26.4316C160.364 26.4316 159.709 26.4537 158.441 27.6212C157.139 28.8195 155.582 30.8872 153.905 34.0775C150.557 40.4453 147.353 50.0703 144.592 62.4899C141.486 76.4561 139.032 93.5267 137.484 112.636C144.961 116.254 152.65 120.187 160.472 124.41C168.295 120.186 175.985 116.252 183.464 112.634C181.916 93.5256 179.462 76.4556 176.356 62.4899C173.595 50.0703 170.391 40.4453 167.043 34.0775C165.366 30.8872 163.81 28.8195 162.507 27.6212ZM153.928 127.995C148.184 124.943 142.525 122.056 136.984 119.343C136.564 125.495 136.237 131.836 136.01 138.334C138.94 136.579 141.914 134.83 144.927 133.092C147.94 131.353 150.942 129.654 153.928 127.995ZM131.452 109.764C135.939 57.3632 147.241 20.1816 160.474 20.1816C173.707 20.1816 185.009 57.3623 189.496 109.762C237.147 87.4467 275.016 78.6385 281.633 90.0912C288.249 101.544 261.681 129.916 218.517 159.999C261.681 190.083 288.249 218.455 281.633 229.907C275.016 241.36 237.147 232.552 189.496 210.237C185.009 262.636 173.707 299.817 160.474 299.817C147.241 299.817 135.939 262.636 131.452 210.235C83.7995 232.552 45.9279 241.361 39.3112 229.907C32.6948 218.455 59.2632 190.083 102.427 159.999C59.2632 129.916 32.6948 101.544 39.3112 90.0912C45.9279 78.6382 83.7995 87.4472 131.452 109.764ZM107.934 156.213C92.1477 145.318 78.5806 134.658 68.0299 124.986C58.648 116.386 51.9092 108.8 48.0648 102.719C46.1387 99.6722 45.1255 97.2914 44.7383 95.5659C44.3612 93.8857 44.6694 93.3104 44.7229 93.2178L44.723 93.2177C44.7769 93.1244 45.1227 92.5688 46.7694 92.0543C48.4598 91.5262 51.0307 91.2128 54.6346 91.3564C61.8278 91.6429 71.7714 93.6826 83.915 97.5023C97.5708 101.798 113.591 108.209 130.924 116.424C130.321 124.703 129.885 133.323 129.634 142.203C122.063 146.861 114.809 151.55 107.934 156.213ZM107.934 163.786C92.1477 174.681 78.5806 185.341 68.0299 195.012C58.648 203.613 51.9092 211.198 48.0648 217.28C46.1387 220.327 45.1255 222.707 44.7383 224.433C44.3612 226.113 44.6694 226.688 44.7229 226.781C44.7767 226.874 45.1221 227.43 46.7694 227.944C48.4597 228.472 51.0307 228.786 54.6346 228.642C61.8278 228.356 71.7714 226.316 83.915 222.496C97.5708 218.201 113.591 211.789 130.924 203.575C130.321 195.295 129.885 186.675 129.634 177.795C122.063 173.137 114.809 168.449 107.934 163.786ZM129.469 170.34C123.951 166.894 118.618 163.439 113.496 159.999C118.618 156.559 123.951 153.105 129.469 149.659C129.413 153.073 129.385 156.522 129.385 159.999C129.385 163.477 129.413 166.925 129.469 170.34ZM135.796 174.237C135.689 169.559 135.635 164.809 135.635 159.999C135.635 155.189 135.689 150.44 135.796 145.762C139.795 143.331 143.883 140.91 148.051 138.505C152.22 136.1 156.364 133.771 160.472 131.524C164.58 133.771 168.724 136.1 172.893 138.505C177.062 140.911 181.152 143.333 185.153 145.764C185.259 150.441 185.313 155.19 185.313 159.999C185.313 164.809 185.259 169.557 185.153 174.235C181.152 176.666 177.062 179.088 172.893 181.493C168.724 183.899 164.58 186.227 160.472 188.475C156.364 186.227 152.22 183.899 148.051 181.493C143.883 179.089 139.795 176.667 135.796 174.237ZM136.01 181.665C136.237 188.162 136.564 194.504 136.984 200.656C142.525 197.943 148.184 195.056 153.928 192.004C150.942 190.345 147.94 188.646 144.927 186.907C141.914 185.168 138.94 183.42 136.01 181.665ZM160.472 195.588C152.65 199.812 144.961 203.745 137.484 207.363C139.032 226.472 141.486 243.543 144.592 257.509C147.353 269.929 150.557 279.554 153.905 285.921C155.582 289.112 157.139 291.179 158.441 292.378C159.709 293.545 160.364 293.567 160.474 293.567C160.584 293.567 161.239 293.545 162.507 292.378C163.81 291.179 165.366 289.112 167.043 285.921C170.391 279.554 173.595 269.929 176.356 257.509C179.462 243.543 181.916 226.473 183.464 207.365C175.985 203.746 168.295 199.813 160.472 195.588ZM190.024 203.577C207.356 211.79 223.374 218.201 237.029 222.496C249.173 226.316 259.116 228.356 266.31 228.642C269.913 228.786 272.484 228.472 274.175 227.944C275.822 227.43 276.168 226.874 276.221 226.781C276.275 226.689 276.583 226.114 276.206 224.433C275.819 222.707 274.805 220.327 272.879 217.28C269.035 211.198 262.296 203.613 252.914 195.012C242.364 185.341 228.797 174.681 213.01 163.786C206.137 168.448 198.884 173.136 191.314 177.793C191.063 186.674 190.627 195.296 190.024 203.577ZM213.01 156.213C228.797 145.318 242.364 134.658 252.914 124.986C262.296 116.386 269.035 108.8 272.879 102.719C274.805 99.6722 275.819 97.2914 276.206 95.5659C276.583 93.8851 276.275 93.3101 276.221 93.2177C276.168 93.1248 275.822 92.569 274.175 92.0543C272.484 91.5262 269.913 91.2128 266.31 91.3564C259.116 91.6429 249.173 93.6826 237.029 97.5023C223.374 101.797 207.356 108.208 190.024 116.422C190.627 124.703 191.063 133.324 191.314 142.206C198.884 146.863 206.137 151.551 213.01 156.213ZM191.48 149.662C196.996 153.107 202.327 156.56 207.448 159.999C202.327 163.438 196.996 166.892 191.48 170.337C191.535 166.924 191.563 163.476 191.563 159.999C191.563 156.522 191.535 153.075 191.48 149.662ZM184.939 138.336C184.712 131.837 184.384 125.495 183.964 119.341C178.422 122.054 172.762 124.942 167.016 127.995C170.002 129.654 173.004 131.353 176.017 133.092C179.032 134.831 182.007 136.58 184.939 138.336ZM183.964 200.657C178.422 197.944 172.762 195.057 167.016 192.004C170.002 190.345 173.004 188.646 176.017 186.907C179.032 185.167 182.007 183.418 184.939 181.663C184.712 188.162 184.384 194.504 183.964 200.657Z" fill="black"/>
<path fill-rule="evenodd" clip-rule="evenodd" d="M71.109 120.844C76.539 120.844 80.941 125.249 80.941 130.681C80.941 136.114 76.539 140.518 71.109 140.518C65.6789 140.518 61.2769 136.114 61.2769 130.681C61.2769 125.249 65.6789 120.844 71.109 120.844Z" fill="black"/>
<path fill-rule="evenodd" clip-rule="evenodd" d="M227.371 87.1592C232.803 87.1592 237.207 91.5633 237.207 96.996C237.207 102.429 232.803 106.833 227.371 106.833C221.938 106.833 217.534 102.429 217.534 96.996C217.534 91.5633 221.938 87.1592 227.371 87.1592Z" fill="black"/>
<path fill-rule="evenodd" clip-rule="evenodd" d="M140.662 241.555C146.094 241.555 150.498 245.957 150.498 251.387C150.498 256.817 146.094 261.219 140.662 261.219C135.229 261.219 130.825 256.817 130.825 251.387C130.825 245.957 135.229 241.555 140.662 241.555Z" fill="black"/>
<path fill-rule="evenodd" clip-rule="evenodd" d="M159.927 143.273C169.125 143.273 176.581 150.729 176.581 159.927C176.581 169.125 169.125 176.581 159.927 176.581C150.729 176.581 143.273 169.125 143.273 159.927C143.273 150.729 150.729 143.273 159.927 143.273Z" fill="black"/>
<path fill-rule="evenodd" clip-rule="evenodd" d="M490.444 150.446L480.145 140.565C476.233 144.022 472.278 146.762 468.278 148.78C464.281 150.796 459.5 151.805 453.938 151.805C449.591 151.805 445.572 151.003 441.878 149.397C438.183 147.79 434.989 145.589 432.294 142.788C429.599 139.988 427.515 136.715 426.035 132.969C424.558 129.223 423.82 125.207 423.82 120.928C423.82 116.645 424.558 112.651 426.035 108.945C427.515 105.24 429.599 102.009 432.294 99.2494C434.989 96.4914 438.183 94.3101 441.878 92.7037C445.572 91.0989 449.591 90.2957 453.938 90.2957C459.152 90.2957 463.803 91.2839 467.888 93.2603C471.974 95.235 475.842 97.8296 479.491 101.041L489.792 89.8025C487.619 87.8261 485.317 86.0147 482.882 84.3667C480.449 82.7202 477.798 81.2988 474.929 80.1056C472.06 78.9108 468.91 77.986 465.476 77.3277C462.042 76.6678 458.239 76.3379 454.068 76.3379C447.114 76.3379 440.769 77.5127 435.033 79.859C429.295 82.2053 424.341 85.4165 420.169 89.4925C415.996 93.5686 412.759 98.3228 410.455 103.759C408.15 109.193 407 114.999 407 121.174C407 127.432 408.173 133.277 410.52 138.713C412.867 144.146 416.105 148.86 420.234 152.854C424.362 156.847 429.251 159.997 434.901 162.303C440.551 164.609 446.724 165.761 453.415 165.761C457.676 165.761 461.565 165.411 465.085 164.711C468.605 164.011 471.844 162.983 474.799 161.625C477.754 160.265 480.514 158.659 483.079 156.807C485.642 154.954 488.098 152.833 490.444 150.446Z" fill="black"/>
<path fill-rule="evenodd" clip-rule="evenodd" d="M697.33 100.82C697.33 97.9432 698.626 95.4992 701.221 93.4875C703.813 91.4724 707.446 90.4666 712.113 90.4666C716.263 90.4666 720.369 91.228 724.432 92.7476C728.496 94.2672 732.602 96.4652 736.75 99.3398L745.309 87.8796C740.643 84.3466 735.65 81.6565 730.333 79.8093C725.014 77.9605 719.029 77.0361 712.372 77.0361C707.878 77.0361 703.728 77.6313 699.945 78.8234C696.142 80.0138 692.902 81.718 690.199 83.9359C687.497 86.1555 685.379 88.804 683.823 91.8847C682.289 94.9655 681.511 98.3955 681.511 102.175C681.511 106.2 682.181 109.61 683.521 112.403C684.861 115.196 686.827 117.578 689.378 119.55C691.927 121.522 695.104 123.165 698.864 124.48C702.647 125.795 706.949 126.984 711.811 128.053C716.048 129.039 719.482 129.983 722.142 130.886C724.778 131.79 726.853 132.756 728.387 133.782C729.899 134.81 730.938 135.938 731.5 137.17C732.061 138.404 732.341 139.799 732.341 141.36C732.341 144.73 730.894 147.4 727.999 149.371C725.102 151.344 721.19 152.328 716.263 152.328C710.558 152.328 705.456 151.362 700.962 149.432C696.465 147.502 692.015 144.73 687.604 141.114L678.01 151.959C683.456 156.641 689.378 160.113 695.774 162.372C702.172 164.631 708.871 165.76 715.873 165.76C720.628 165.76 724.995 165.185 728.972 164.036C732.926 162.884 736.341 161.2 739.15 158.982C741.981 156.764 744.186 154.054 745.785 150.85C747.363 147.646 748.162 143.99 748.162 139.882C748.162 136.268 747.536 133.125 746.281 130.455C745.027 127.785 743.169 125.446 740.749 123.431C738.328 121.419 735.259 119.713 731.585 118.317C727.913 116.922 723.676 115.648 718.921 114.498C714.577 113.512 711.011 112.566 708.18 111.663C705.371 110.76 703.166 109.774 701.544 108.705C699.945 107.638 698.845 106.487 698.238 105.255C697.634 104.022 697.33 102.544 697.33 100.82Z" fill="black"/>
<path fill-rule="evenodd" clip-rule="evenodd" d="M874.838 102.04V163.664H890.682V77.7344H873.668L846.005 118.367L818.343 77.7344H801.33V163.664H817.174V102.285L845.614 142.55H846.135L874.838 102.04Z" fill="black"/>
<path fill-rule="evenodd" clip-rule="evenodd" d="M1023.8 121.174C1023.8 125.374 1023.04 129.346 1021.52 133.094C1020.01 136.84 1017.9 140.091 1015.21 142.849C1012.52 145.607 1009.29 147.79 1005.52 149.396C1001.74 151.003 997.6 151.804 993.09 151.804C988.577 151.804 984.412 150.981 980.595 149.335C976.778 147.687 973.502 145.464 970.77 142.666C968.038 139.865 965.911 136.592 964.393 132.846C962.876 129.1 962.115 125.125 962.115 120.928C962.115 116.727 962.876 112.754 964.393 109.008C965.911 105.26 968.015 102.009 970.705 99.2492C973.395 96.4913 976.627 94.31 980.4 92.7036C984.174 91.0988 988.317 90.2956 992.828 90.2956C997.34 90.2956 1001.51 91.1188 1005.32 92.7669C1009.14 94.4133 1012.41 96.6363 1015.15 99.4359C1017.88 102.234 1020.01 105.508 1021.52 109.254C1023.04 113 1023.8 116.975 1023.8 121.174ZM1040.59 120.928C1040.59 114.834 1039.42 109.07 1037.07 103.634C1034.73 98.2012 1031.48 93.4652 1027.32 89.4309C1023.15 85.3948 1018.16 82.2053 1012.35 79.859C1006.54 77.5127 1000.12 76.3379 993.09 76.3379C986.061 76.3379 979.642 77.5327 973.828 79.9207C968.015 82.3086 962.983 85.5398 958.732 89.6158C954.479 93.6919 951.186 98.4478 948.841 103.882C946.499 109.316 945.328 115.08 945.328 121.174C945.328 127.267 946.499 133.029 948.841 138.465C951.186 143.901 954.437 148.635 958.602 152.669C962.765 156.704 967.755 159.895 973.569 162.241C979.38 164.588 985.799 165.761 992.828 165.761C999.855 165.761 1006.28 164.566 1012.09 162.18C1017.9 159.792 1022.93 156.561 1027.19 152.483C1031.44 148.408 1034.73 143.653 1037.07 138.218C1039.42 132.784 1040.59 127.02 1040.59 120.928Z" fill="black"/>
<path fill-rule="evenodd" clip-rule="evenodd" d="M1107.17 100.82C1107.17 97.9432 1108.46 95.4992 1111.06 93.4875C1113.65 91.4724 1117.28 90.4666 1121.95 90.4666C1126.1 90.4666 1130.21 91.228 1134.27 92.7476C1138.33 94.2672 1142.44 96.4652 1146.59 99.3398L1155.15 87.8796C1150.48 84.3466 1145.49 81.6565 1140.17 79.8093C1134.85 77.9605 1128.87 77.0361 1122.21 77.0361C1117.72 77.0361 1113.57 77.6313 1109.78 78.8234C1105.98 80.0138 1102.74 81.718 1100.04 83.9359C1097.34 86.1555 1095.22 88.804 1093.66 91.8847C1092.13 94.9655 1091.35 98.3955 1091.35 102.175C1091.35 106.2 1092.02 109.61 1093.36 112.403C1094.7 115.196 1096.67 117.578 1099.21 119.55C1101.77 121.522 1104.94 123.165 1108.7 124.48C1112.48 125.795 1116.79 126.984 1121.65 128.053C1125.88 129.039 1129.32 129.983 1131.98 130.886C1134.61 131.79 1136.69 132.756 1138.23 133.782C1139.74 134.81 1140.78 135.938 1141.34 137.17C1141.9 138.404 1142.18 139.799 1142.18 141.36C1142.18 144.73 1140.73 147.4 1137.84 149.371C1134.94 151.344 1131.03 152.328 1126.1 152.328C1120.39 152.328 1115.29 151.362 1110.8 149.432C1106.31 147.502 1101.85 144.73 1097.44 141.114L1087.85 151.959C1093.29 156.641 1099.21 160.113 1105.61 162.372C1112.01 164.631 1118.71 165.76 1125.71 165.76C1130.47 165.76 1134.83 165.185 1138.81 164.036C1142.76 162.884 1146.18 161.2 1148.99 158.982C1151.82 156.764 1154.02 154.054 1155.62 150.85C1157.2 147.646 1158 143.99 1158 139.882C1158 136.268 1157.37 133.125 1156.12 130.455C1154.86 127.785 1153.01 125.446 1150.59 123.431C1148.17 121.419 1145.1 119.713 1141.42 118.317C1137.75 116.922 1133.51 115.648 1128.76 114.498C1124.41 113.512 1120.85 112.566 1118.02 111.663C1115.21 110.76 1113 109.774 1111.38 108.705C1109.78 107.638 1108.68 106.487 1108.08 105.255C1107.47 104.022 1107.17 102.544 1107.17 100.82Z" fill="black"/>
<path fill-rule="evenodd" clip-rule="evenodd" d="M599.13 94.9376L555.717 136.01C555.157 134.983 554.652 133.912 554.199 132.801C552.683 129.07 551.925 125.11 551.925 120.928C551.925 116.743 552.683 112.785 554.199 109.054C555.717 105.32 557.819 102.081 560.508 99.3319C563.196 96.5844 566.427 94.4113 570.198 92.811C573.97 91.2123 578.11 90.4121 582.618 90.4121C587.127 90.4121 591.29 91.2322 595.103 92.8741C596.521 93.4833 597.863 94.1706 599.13 94.9376ZM595.3 149.289C591.527 150.89 587.387 151.688 582.879 151.688C578.37 151.688 574.207 150.868 570.392 149.228C568.976 148.617 567.634 147.93 566.369 147.161L609.78 106.091C610.34 107.117 610.845 108.186 611.298 109.299C612.814 113.031 613.572 116.99 613.572 121.174C613.572 125.357 612.814 129.315 611.298 133.048C609.78 136.78 607.678 140.019 604.989 142.767C602.301 145.514 599.072 147.689 595.3 149.289ZM601.868 162.024C607.678 159.645 612.707 156.426 616.955 152.363C621.203 148.304 624.497 143.566 626.838 138.153C629.18 132.739 630.351 126.997 630.351 120.927C630.351 114.856 629.18 109.114 626.838 103.699C625.45 100.488 623.741 97.5232 621.712 94.8023L649.948 68.0894L638.728 57.4746L610.406 84.2689C607.864 82.6287 605.103 81.2109 602.127 80.014C596.317 77.6765 589.902 76.5062 582.879 76.5062C575.855 76.5062 569.44 77.6965 563.63 80.0754C557.819 82.4543 552.79 85.6733 548.542 89.7339C544.294 93.7946 540.998 98.5326 538.657 103.946C536.317 109.36 535.146 115.102 535.146 121.173C535.146 127.243 536.317 132.983 538.657 138.399C540.047 141.611 541.756 144.576 543.785 147.298L515.551 174.008L526.771 184.623L555.091 157.83C557.633 159.47 560.394 160.888 563.37 162.085C569.18 164.422 575.595 165.591 582.618 165.591C589.642 165.591 596.058 164.401 601.868 162.024Z" fill="black"/>
<path d="M434.137 247.253H441.139V217.099H434.137V247.253Z" fill="black"/>
<path d="M450.047 247.253H456.959V228.084L472.373 247.253H478.33V217.099H471.418V235.665L456.504 217.099H450.047V247.253Z" fill="black"/>
<path d="M494.336 247.253H501.338V223.216H511.024V217.099H484.651V223.216H494.336V247.253Z" fill="black"/>
<path d="M517.363 247.253H541.598V241.352H524.32V235.019H539.325V229.118H524.32V223.001H541.371V217.099H517.363V247.253Z" fill="black"/>
<path d="M548.778 247.253H555.78V237.604H561.282L568.103 247.253H576.288L568.512 236.484C572.559 235.062 575.333 232.004 575.333 227.136V227.05C575.333 224.207 574.378 221.837 572.604 220.157C570.513 218.176 567.375 217.099 563.328 217.099H548.778V247.253ZM555.78 231.745V223.087H562.737C566.148 223.087 568.239 224.551 568.239 227.394V227.481C568.239 230.022 566.284 231.745 562.874 231.745H555.78Z" fill="black"/>
<path d="M582.591 247.253H589.502V228.084L604.917 247.253H610.874V217.099H603.962V235.665L589.048 217.099H582.591V247.253Z" fill="black"/>
<path d="M619.468 247.253H643.704V241.352H626.425V235.019H641.43V229.118H626.425V223.001H643.476V217.099H619.468V247.253Z" fill="black"/>
<path d="M658.295 247.253H665.297V223.216H674.983V217.099H648.61V223.216H658.295V247.253Z" fill="black"/>
<path d="M711.367 247.77C721.189 247.77 728.328 240.749 728.328 232.176V232.09C728.328 223.518 721.28 216.582 711.458 216.582C701.637 216.582 694.498 223.604 694.498 232.176V232.262C694.498 240.835 701.546 247.77 711.367 247.77ZM711.458 241.653C705.82 241.653 701.818 237.345 701.818 232.176V232.09C701.818 226.921 705.729 222.699 711.367 222.699C717.006 222.699 721.007 227.007 721.007 232.176V232.262C721.007 237.432 717.097 241.653 711.458 241.653Z" fill="black"/>
<path d="M735.493 247.253H742.495V235.579H757.683V229.548H742.495V223.13H759.729V217.099H735.493V247.253Z" fill="black"/>
<path d="M780.872 247.253H796.014C803.198 247.253 807.927 244.496 807.927 238.982V238.896C807.927 234.847 805.654 232.822 801.971 231.487C804.244 230.281 806.154 228.385 806.154 224.982V224.896C806.154 222.828 805.426 221.148 803.971 219.77C802.153 218.047 799.288 217.099 795.65 217.099H780.872V247.253ZM799.197 226.102C799.197 228.342 797.242 229.29 794.15 229.29H787.693V222.914H794.604C797.56 222.914 799.197 224.034 799.197 226.016V226.102ZM800.97 238.078V238.164C800.97 240.404 799.106 241.438 796.014 241.438H787.693V234.804H795.787C799.379 234.804 800.97 236.053 800.97 238.078Z" fill="black"/>
<path d="M814.641 247.253H837.513V241.222H821.643V217.099H814.641V247.253Z" fill="black"/>
<path d="M857.387 247.77C867.208 247.77 874.347 240.749 874.347 232.176V232.09C874.347 223.518 867.299 216.582 857.478 216.582C847.656 216.582 840.517 223.604 840.517 232.176V232.262C840.517 240.835 847.565 247.77 857.387 247.77ZM857.478 241.653C851.839 241.653 847.838 237.345 847.838 232.176V232.09C847.838 226.921 851.748 222.699 857.387 222.699C863.025 222.699 867.026 227.007 867.026 232.176V232.262C867.026 237.432 863.116 241.653 857.478 241.653Z" fill="black"/>
<path d="M896.427 247.77C902.565 247.77 906.203 245.702 909.477 242.385L905.021 238.121C902.52 240.275 900.292 241.653 896.654 241.653C891.198 241.653 887.423 237.345 887.423 232.176V232.09C887.423 226.921 891.289 222.699 896.654 222.699C899.837 222.699 902.338 223.991 904.793 226.102L909.249 221.234C906.294 218.477 902.702 216.582 896.7 216.582C886.923 216.582 880.103 223.604 880.103 232.176V232.262C880.103 240.921 887.06 247.77 896.427 247.77Z" fill="black"/>
<path d="M916.036 247.253H923.038V238.035L926.722 234.416L936.589 247.253H945.001L931.45 229.893L944.455 217.099H935.861L923.038 230.281V217.099H916.036V247.253Z" fill="black"/>
<path d="M962.632 247.77C968.771 247.77 972.408 245.702 975.682 242.385L971.226 238.121C968.725 240.275 966.497 241.653 962.859 241.653C957.403 241.653 953.629 237.345 953.629 232.176V232.09C953.629 226.921 957.494 222.699 962.859 222.699C966.042 222.699 968.543 223.991 970.999 226.102L975.455 221.234C972.499 218.477 968.907 216.582 962.905 216.582C953.129 216.582 946.308 223.604 946.308 232.176V232.262C946.308 240.921 953.265 247.77 962.632 247.77Z" fill="black"/>
<path d="M982.241 247.253H989.244V235.148H1002.16V247.253H1009.16V217.099H1002.16V229.031H989.244V217.099H982.241V247.253Z" fill="black"/>
<path d="M1015.01 247.253H1022.15L1025.06 240.49H1038.52L1041.43 247.253H1048.75L1035.11 216.884H1028.65L1015.01 247.253ZM1027.56 234.632L1031.79 224.853L1036.02 234.632H1027.56Z" fill="black"/>
<path d="M1054.94 247.253H1061.94V217.099H1054.94V247.253Z" fill="black"/>
<path d="M1070.85 247.253H1077.76V228.084L1093.17 247.253H1099.13V217.099H1092.22V235.665L1077.3 217.099H1070.85V247.253Z" fill="black"/>
<path d="M1119.05 247.684C1125.91 247.684 1130.73 244.324 1130.73 238.336V238.25C1130.73 232.995 1127.09 230.798 1120.64 229.204C1115.14 227.868 1113.77 227.222 1113.77 225.241V225.154C1113.77 223.69 1115.18 222.527 1117.86 222.527C1120.55 222.527 1123.32 223.647 1126.14 225.499L1129.78 220.502C1126.55 218.047 1122.59 216.668 1117.96 216.668C1111.45 216.668 1106.82 220.287 1106.82 225.758V225.844C1106.82 231.831 1110.95 233.511 1117.36 235.062C1122.68 236.355 1123.78 237.216 1123.78 238.896V238.982C1123.78 240.749 1122.05 241.825 1119.18 241.825C1115.55 241.825 1112.54 240.404 1109.68 238.164L1105.54 242.859C1109.36 246.09 1114.23 247.684 1119.05 247.684Z" fill="black"/>
</svg>
