<svg width="1160" height="320" viewBox="0 0 1160 320" fill="none" xmlns="http://www.w3.org/2000/svg">
<path fill-rule="evenodd" clip-rule="evenodd" d="M159.999 0.307617C248.195 0.307617 319.692 71.8046 319.692 160C319.692 248.196 248.195 319.693 159.999 319.693C71.8036 319.693 0.306641 248.196 0.306641 160C0.306641 71.8046 71.8036 0.307617 159.999 0.307617Z" fill="white"/>
<path fill-rule="evenodd" clip-rule="evenodd" d="M159.693 67.8696C210.576 67.8696 251.824 109.118 251.824 160C251.824 210.882 210.576 252.131 159.693 252.131C108.811 252.131 67.5629 210.882 67.5629 160C67.5629 109.118 108.811 67.8696 159.693 67.8696Z" fill="#E6E6E6"/>
<path fill-rule="evenodd" clip-rule="evenodd" d="M162.507 27.6221C161.239 26.4547 160.584 26.4326 160.474 26.4326C160.364 26.4326 159.709 26.4547 158.441 27.6221C157.139 28.8205 155.582 30.8882 153.905 34.0785C150.557 40.4463 147.353 50.0713 144.592 62.4909C141.486 76.457 139.032 93.5277 137.484 112.637C144.961 116.255 152.65 120.188 160.472 124.411C168.295 120.187 175.985 116.253 183.464 112.635C181.916 93.5266 179.462 76.4566 176.356 62.4909C173.595 50.0713 170.391 40.4463 167.043 34.0785C165.366 30.8882 163.81 28.8205 162.507 27.6221ZM153.928 127.996C148.184 124.944 142.525 122.057 136.984 119.344C136.564 125.496 136.237 131.837 136.01 138.335C138.94 136.58 141.914 134.832 144.927 133.093C147.94 131.354 150.942 129.655 153.928 127.996ZM131.452 109.765C135.939 57.3642 147.241 20.1826 160.474 20.1826C173.707 20.1826 185.009 57.3633 189.496 109.763C237.147 87.4477 275.017 78.6395 281.633 90.0923C288.249 101.545 261.681 129.917 218.517 160C261.681 190.084 288.249 218.456 281.633 229.909C275.017 241.361 237.147 232.553 189.496 210.238C185.009 262.637 173.707 299.818 160.474 299.818C147.241 299.818 135.939 262.637 131.452 210.236C83.7995 232.553 45.9279 241.362 39.3112 229.909C32.6948 218.456 59.2632 190.084 102.427 160C59.2632 129.917 32.6948 101.545 39.3112 90.0923C45.9279 78.6392 83.7995 87.4482 131.452 109.765ZM107.934 156.214C92.1477 145.319 78.5806 134.659 68.0299 124.987C58.648 116.387 51.9092 108.801 48.0648 102.72C46.1387 99.6732 45.1255 97.2924 44.7383 95.5669C44.3612 93.8867 44.6694 93.3115 44.7229 93.2188L44.723 93.2187C44.7769 93.1254 45.1227 92.5698 46.7694 92.0554C48.4597 91.5273 51.0307 91.2138 54.6346 91.3574C61.8278 91.644 71.7714 93.6836 83.915 97.5034C97.5708 101.799 113.591 108.21 130.924 116.425C130.321 124.704 129.885 133.324 129.634 142.204C122.063 146.863 114.809 151.551 107.934 156.214ZM107.934 163.787C92.1477 174.682 78.5806 185.342 68.0299 195.014C58.648 203.614 51.9092 211.199 48.0648 217.281C46.1387 220.328 45.1255 222.708 44.7383 224.434C44.3612 226.114 44.6694 226.689 44.7229 226.782C44.7767 226.875 45.1221 227.431 46.7694 227.945C48.4597 228.474 51.0307 228.787 54.6346 228.643C61.8278 228.357 71.7714 226.317 83.915 222.497C97.5708 218.202 113.591 211.79 130.924 203.576C130.321 195.296 129.885 186.676 129.634 177.797C122.063 173.138 114.809 168.45 107.934 163.787ZM129.469 170.341C123.951 166.895 118.618 163.44 113.496 160C118.618 156.561 123.951 153.106 129.469 149.66C129.413 153.074 129.385 156.523 129.385 160C129.385 163.478 129.413 166.926 129.469 170.341ZM135.796 174.238C135.689 169.56 135.635 164.81 135.635 160C135.635 155.19 135.689 150.441 135.796 145.763C139.795 143.332 143.883 140.911 148.051 138.506C152.22 136.101 156.364 133.772 160.472 131.525C164.58 133.772 168.724 136.101 172.893 138.506C177.062 140.912 181.152 143.334 185.153 145.765C185.259 150.442 185.313 155.191 185.313 160C185.313 164.81 185.259 169.559 185.153 174.236C181.152 176.667 177.062 179.089 172.893 181.494C168.724 183.9 164.58 186.228 160.472 188.476C156.364 186.228 152.22 183.9 148.051 181.494C143.883 179.09 139.795 176.668 135.796 174.238ZM136.01 181.666C136.237 188.163 136.564 194.505 136.984 200.657C142.525 197.944 148.184 195.057 153.928 192.005C150.942 190.346 147.94 188.647 144.927 186.908C141.914 185.169 138.94 183.421 136.01 181.666ZM160.472 195.589C152.65 199.813 144.961 203.746 137.484 207.364C139.032 226.473 141.486 243.544 144.592 257.51C147.353 269.93 150.557 279.555 153.905 285.922C155.582 289.113 157.139 291.18 158.441 292.379C159.709 293.546 160.364 293.568 160.474 293.568C160.584 293.568 161.239 293.546 162.507 292.379C163.81 291.18 165.366 289.113 167.043 285.922C170.391 279.555 173.595 269.93 176.356 257.51C179.462 243.544 181.916 226.474 183.464 207.366C175.985 203.747 168.295 199.814 160.472 195.589ZM190.024 203.578C207.356 211.791 223.374 218.202 237.029 222.497C249.173 226.317 259.116 228.357 266.31 228.643C269.913 228.787 272.484 228.474 274.175 227.945C275.822 227.431 276.168 226.875 276.221 226.782C276.275 226.69 276.583 226.115 276.206 224.434C275.819 222.708 274.805 220.328 272.879 217.281C269.035 211.199 262.296 203.614 252.914 195.014C242.364 185.342 228.797 174.682 213.01 163.787C206.136 168.449 198.884 173.137 191.314 177.794C191.063 186.675 190.627 195.297 190.024 203.578ZM213.01 156.214C228.796 145.319 242.364 134.659 252.914 124.987C262.296 116.387 269.035 108.801 272.879 102.72C274.805 99.6732 275.819 97.2924 276.206 95.5669C276.583 93.8862 276.275 93.3111 276.221 93.2187C276.168 93.1258 275.822 92.57 274.175 92.0554C272.484 91.5273 269.913 91.2138 266.31 91.3574C259.116 91.644 249.173 93.6836 237.029 97.5034C223.374 101.798 207.356 108.209 190.024 116.423C190.627 124.704 191.063 133.325 191.314 142.207C198.884 146.864 206.137 151.552 213.01 156.214ZM191.48 149.663C196.996 153.108 202.327 156.561 207.448 160C202.327 163.439 196.996 166.893 191.48 170.338C191.535 166.925 191.563 163.477 191.563 160C191.563 156.523 191.535 153.076 191.48 149.663ZM184.939 138.337C184.712 131.838 184.384 125.496 183.964 119.342C178.422 122.055 172.762 124.943 167.016 127.996C170.002 129.655 173.004 131.354 176.017 133.093C179.032 134.832 182.007 136.581 184.939 138.337ZM183.964 200.658C178.422 197.945 172.762 195.058 167.016 192.005C170.002 190.346 173.004 188.647 176.017 186.908C179.032 185.168 182.007 183.419 184.939 181.664C184.712 188.163 184.384 194.505 183.964 200.658Z" fill="black"/>
<path fill-rule="evenodd" clip-rule="evenodd" d="M71.1089 120.844C76.539 120.844 80.941 125.249 80.941 130.681C80.941 136.114 76.539 140.518 71.1089 140.518C65.6789 140.518 61.2769 136.114 61.2769 130.681C61.2769 125.249 65.6789 120.844 71.1089 120.844Z" fill="black"/>
<path fill-rule="evenodd" clip-rule="evenodd" d="M227.371 87.1592C232.803 87.1592 237.207 91.5633 237.207 96.996C237.207 102.429 232.803 106.833 227.371 106.833C221.938 106.833 217.534 102.429 217.534 96.996C217.534 91.5633 221.938 87.1592 227.371 87.1592Z" fill="black"/>
<path fill-rule="evenodd" clip-rule="evenodd" d="M140.662 241.555C146.094 241.555 150.498 245.957 150.498 251.387C150.498 256.817 146.094 261.219 140.662 261.219C135.229 261.219 130.825 256.817 130.825 251.387C130.825 245.957 135.229 241.555 140.662 241.555Z" fill="black"/>
<path fill-rule="evenodd" clip-rule="evenodd" d="M159.927 143.273C169.125 143.273 176.581 150.729 176.581 159.927C176.581 169.125 169.125 176.581 159.927 176.581C150.729 176.581 143.273 169.125 143.273 159.927C143.273 150.729 150.729 143.273 159.927 143.273Z" fill="black"/>
<path fill-rule="evenodd" clip-rule="evenodd" d="M490.444 150.445L480.145 140.563C476.233 144.02 472.278 146.76 468.278 148.778C464.281 150.794 459.5 151.803 453.938 151.803C449.591 151.803 445.572 151.001 441.878 149.395C438.183 147.788 434.989 145.587 432.294 142.786C429.599 139.986 427.515 136.713 426.035 132.967C424.558 129.221 423.82 125.205 423.82 120.926C423.82 116.643 424.558 112.649 426.035 108.943C427.515 105.238 429.599 102.007 432.294 99.2474C434.989 96.4895 438.183 94.3082 441.878 92.7017C445.572 91.097 449.591 90.2938 453.938 90.2938C459.152 90.2938 463.803 91.282 467.888 93.2583C471.974 95.233 475.842 97.8276 479.491 101.039L489.792 89.8005C487.619 87.8242 485.317 86.0128 482.882 84.3647C480.449 82.7183 477.798 81.2968 474.929 80.1037C472.06 78.9089 468.91 77.984 465.476 77.3258C462.042 76.6659 458.239 76.3359 454.068 76.3359C447.114 76.3359 440.769 77.5108 435.033 79.8571C429.295 82.2034 424.341 85.4145 420.169 89.4906C415.996 93.5666 412.759 98.3209 410.455 103.757C408.15 109.191 407 114.997 407 121.172C407 127.43 408.173 133.275 410.52 138.711C412.867 144.144 416.105 148.858 420.234 152.852C424.362 156.845 429.251 159.995 434.901 162.301C440.551 164.607 446.724 165.759 453.415 165.759C457.676 165.759 461.565 165.409 465.085 164.709C468.605 164.009 471.844 162.981 474.799 161.623C477.754 160.263 480.514 158.657 483.079 156.805C485.642 154.952 488.098 152.831 490.444 150.445Z" fill="black"/>
<path fill-rule="evenodd" clip-rule="evenodd" d="M697.33 100.819C697.33 97.9423 698.626 95.4982 701.221 93.4865C703.813 91.4714 707.445 90.4656 712.113 90.4656C716.263 90.4656 720.369 91.227 724.432 92.7467C728.496 94.2663 732.602 96.4642 736.75 99.3388L745.309 87.8786C740.643 84.3456 735.65 81.6555 730.333 79.8084C725.014 77.9596 719.029 77.0352 712.372 77.0352C707.878 77.0352 703.728 77.6304 699.945 78.8224C696.142 80.0129 692.902 81.717 690.199 83.9349C687.497 86.1545 685.379 88.803 683.823 91.8838C682.289 94.9646 681.511 98.3945 681.511 102.174C681.511 106.199 682.181 109.609 683.521 112.402C684.861 115.195 686.827 117.577 689.378 119.549C691.927 121.521 695.104 123.164 698.864 124.479C702.647 125.794 706.949 126.983 711.811 128.052C716.048 129.038 719.482 129.982 722.141 130.885C724.778 131.789 726.853 132.755 728.387 133.781C729.899 134.809 730.938 135.937 731.5 137.169C732.061 138.403 732.341 139.798 732.341 141.359C732.341 144.729 730.894 147.399 727.999 149.37C725.102 151.343 721.19 152.327 716.263 152.327C710.558 152.327 705.456 151.361 700.962 149.431C696.465 147.501 692.015 144.729 687.604 141.113L678.01 151.958C683.456 156.64 689.378 160.112 695.774 162.371C702.172 164.63 708.871 165.759 715.873 165.759C720.628 165.759 724.995 165.184 728.972 164.035C732.926 162.883 736.341 161.199 739.15 158.981C741.981 156.763 744.185 154.053 745.785 150.849C747.363 147.645 748.162 143.989 748.162 139.881C748.162 136.267 747.536 133.124 746.281 130.454C745.027 127.784 743.169 125.445 740.749 123.43C738.328 121.418 735.259 119.712 731.585 118.316C727.913 116.921 723.676 115.647 718.921 114.497C714.577 113.511 711.011 112.565 708.18 111.662C705.371 110.759 703.166 109.773 701.544 108.704C699.945 107.637 698.845 106.486 698.238 105.254C697.634 104.021 697.33 102.543 697.33 100.819Z" fill="black"/>
<path fill-rule="evenodd" clip-rule="evenodd" d="M874.838 102.039V163.663H890.682V77.7334H873.668L846.005 118.366L818.343 77.7334H801.33V163.663H817.174V102.284L845.614 142.549H846.135L874.838 102.039Z" fill="black"/>
<path fill-rule="evenodd" clip-rule="evenodd" d="M1023.8 121.172C1023.8 125.372 1023.04 129.345 1021.52 133.092C1020.01 136.838 1017.9 140.09 1015.21 142.847C1012.52 145.605 1009.29 147.788 1005.52 149.395C1001.74 151.001 997.6 151.803 993.09 151.803C988.577 151.803 984.412 150.98 980.595 149.333C976.778 147.685 973.502 145.462 970.77 142.664C968.038 139.863 965.911 136.59 964.393 132.844C962.876 129.098 962.115 125.124 962.115 120.926C962.115 116.725 962.876 112.752 964.393 109.006C965.911 105.258 968.015 102.007 970.705 99.2475C973.395 96.4896 976.627 94.3083 980.4 92.7019C984.174 91.0971 988.317 90.2939 992.828 90.2939C997.34 90.2939 1001.51 91.1171 1005.32 92.7652C1009.14 94.4116 1012.41 96.6346 1015.15 99.4342C1017.88 102.232 1020.01 105.507 1021.52 109.253C1023.04 112.999 1023.8 116.973 1023.8 121.172ZM1040.59 120.926C1040.59 114.832 1039.42 109.068 1037.07 103.632C1034.73 98.1992 1031.48 93.4633 1027.32 89.4289C1023.15 85.3929 1018.16 82.2034 1012.35 79.8571C1006.54 77.5108 1000.12 76.3359 993.09 76.3359C986.061 76.3359 979.642 77.5308 973.828 79.9187C968.015 82.3067 962.983 85.5379 958.732 89.6139C954.479 93.6899 951.186 98.4459 948.841 103.88C946.499 109.314 945.328 115.078 945.328 121.172C945.328 127.265 946.499 133.027 948.841 138.463C951.186 143.899 954.437 148.633 958.602 152.667C962.765 156.702 967.755 159.893 973.569 162.239C979.38 164.586 985.8 165.759 992.828 165.759C999.855 165.759 1006.28 164.564 1012.09 162.178C1017.9 159.79 1022.93 156.559 1027.19 152.481C1031.44 148.406 1034.73 143.651 1037.07 138.216C1039.42 132.782 1040.59 127.018 1040.59 120.926Z" fill="black"/>
<path fill-rule="evenodd" clip-rule="evenodd" d="M1107.17 100.819C1107.17 97.9423 1108.46 95.4982 1111.06 93.4865C1113.65 91.4714 1117.28 90.4656 1121.95 90.4656C1126.1 90.4656 1130.21 91.227 1134.27 92.7467C1138.33 94.2663 1142.44 96.4642 1146.59 99.3388L1155.15 87.8786C1150.48 84.3456 1145.49 81.6555 1140.17 79.8084C1134.85 77.9596 1128.87 77.0352 1122.21 77.0352C1117.72 77.0352 1113.57 77.6304 1109.78 78.8224C1105.98 80.0129 1102.74 81.717 1100.04 83.9349C1097.34 86.1545 1095.22 88.803 1093.66 91.8838C1092.13 94.9646 1091.35 98.3945 1091.35 102.174C1091.35 106.199 1092.02 109.609 1093.36 112.402C1094.7 115.195 1096.67 117.577 1099.21 119.549C1101.77 121.521 1104.94 123.164 1108.7 124.479C1112.48 125.794 1116.79 126.983 1121.65 128.052C1125.88 129.038 1129.32 129.982 1131.98 130.885C1134.61 131.789 1136.69 132.755 1138.23 133.781C1139.74 134.809 1140.78 135.937 1141.34 137.169C1141.9 138.403 1142.18 139.798 1142.18 141.359C1142.18 144.729 1140.73 147.399 1137.84 149.37C1134.94 151.343 1131.03 152.327 1126.1 152.327C1120.39 152.327 1115.29 151.361 1110.8 149.431C1106.31 147.501 1101.85 144.729 1097.44 141.113L1087.85 151.958C1093.29 156.64 1099.21 160.112 1105.61 162.371C1112.01 164.63 1118.71 165.759 1125.71 165.759C1130.47 165.759 1134.83 165.184 1138.81 164.035C1142.76 162.883 1146.18 161.199 1148.99 158.981C1151.82 156.763 1154.02 154.053 1155.62 150.849C1157.2 147.645 1158 143.989 1158 139.881C1158 136.267 1157.37 133.124 1156.12 130.454C1154.86 127.784 1153.01 125.445 1150.59 123.43C1148.17 121.418 1145.1 119.712 1141.42 118.316C1137.75 116.921 1133.51 115.647 1128.76 114.497C1124.41 113.511 1120.85 112.565 1118.02 111.662C1115.21 110.759 1113 109.773 1111.38 108.704C1109.78 107.637 1108.68 106.486 1108.08 105.254C1107.47 104.021 1107.17 102.543 1107.17 100.819Z" fill="black"/>
<path fill-rule="evenodd" clip-rule="evenodd" d="M599.13 94.9358L555.717 136.009C555.158 134.981 554.652 133.91 554.199 132.8C552.683 129.068 551.925 125.108 551.925 120.927C551.925 116.741 552.683 112.784 554.199 109.052C555.717 105.318 557.82 102.079 560.508 99.3301C563.196 96.5826 566.427 94.4095 570.198 92.8092C573.97 91.2105 578.11 90.4103 582.618 90.4103C587.128 90.4103 591.29 91.2304 595.103 92.8723C596.521 93.4815 597.863 94.1688 599.13 94.9358ZM595.299 149.288C591.527 150.888 587.387 151.687 582.879 151.687C578.37 151.687 574.207 150.867 570.392 149.226C568.976 148.616 567.634 147.928 566.369 147.16L609.78 106.09C610.34 107.116 610.845 108.185 611.298 109.297C612.814 113.029 613.572 116.989 613.572 121.172C613.572 125.356 612.814 129.313 611.298 133.047C609.78 136.779 607.678 140.018 604.989 142.765C602.301 145.513 599.072 147.688 595.299 149.288ZM601.868 162.023C607.678 159.644 612.707 156.425 616.955 152.362C621.203 148.303 624.497 143.565 626.838 138.152C629.18 132.738 630.351 126.996 630.351 120.927C630.351 114.855 629.18 109.113 626.838 103.698C625.45 100.487 623.741 97.5222 621.712 94.8013L649.948 68.0884L638.728 57.4736L610.406 84.2679C607.864 82.6277 605.103 81.2099 602.127 80.013C596.317 77.6756 589.902 76.5052 582.879 76.5052C575.855 76.5052 569.44 77.6955 563.63 80.0744C557.819 82.4534 552.79 85.6723 548.542 89.733C544.294 93.7936 540.998 98.5316 538.657 103.945C536.317 109.359 535.146 115.101 535.146 121.172C535.146 127.242 536.317 132.982 538.657 138.398C540.047 141.61 541.756 144.575 543.785 147.297L515.551 174.007L526.771 184.622L555.091 157.829C557.633 159.469 560.394 160.887 563.37 162.084C569.18 164.422 575.595 165.59 582.618 165.59C589.642 165.59 596.058 164.4 601.868 162.023Z" fill="black"/>
<path d="M434.137 247.254H441.139V217.1H434.137V247.254Z" fill="#666666"/>
<path d="M450.047 247.254H456.959V228.085L472.373 247.254H478.33V217.1H471.418V235.666L456.504 217.1H450.047V247.254Z" fill="#666666"/>
<path d="M494.336 247.254H501.338V223.217H511.024V217.1H484.651V223.217H494.336V247.254Z" fill="#666666"/>
<path d="M517.363 247.254H541.598V241.353H524.32V235.02H539.325V229.119H524.32V223.002H541.371V217.1H517.363V247.254Z" fill="#666666"/>
<path d="M548.778 247.254H555.78V237.605H561.282L568.103 247.254H576.288L568.512 236.485C572.559 235.063 575.333 232.005 575.333 227.137V227.051C575.333 224.208 574.378 221.838 572.604 220.158C570.513 218.177 567.375 217.1 563.328 217.1H548.778V247.254ZM555.78 231.746V223.088H562.737C566.148 223.088 568.239 224.552 568.239 227.395V227.482C568.239 230.023 566.284 231.746 562.874 231.746H555.78Z" fill="#666666"/>
<path d="M582.591 247.254H589.502V228.085L604.917 247.254H610.874V217.1H603.962V235.666L589.048 217.1H582.591V247.254Z" fill="#666666"/>
<path d="M619.468 247.254H643.704V241.353H626.425V235.02H641.43V229.119H626.425V223.002H643.476V217.1H619.468V247.254Z" fill="#666666"/>
<path d="M658.295 247.254H665.297V223.217H674.983V217.1H648.61V223.217H658.295V247.254Z" fill="#666666"/>
<path d="M711.367 247.771C721.189 247.771 728.328 240.749 728.328 232.177V232.091C728.328 223.518 721.28 216.583 711.458 216.583C701.637 216.583 694.498 223.605 694.498 232.177V232.263C694.498 240.836 701.546 247.771 711.367 247.771ZM711.458 241.654C705.82 241.654 701.818 237.346 701.818 232.177V232.091C701.818 226.922 705.729 222.7 711.367 222.7C717.006 222.7 721.007 227.008 721.007 232.177V232.263C721.007 237.433 717.097 241.654 711.458 241.654Z" fill="#666666"/>
<path d="M735.493 247.254H742.495V235.58H757.683V229.549H742.495V223.131H759.729V217.1H735.493V247.254Z" fill="#666666"/>
<path d="M780.872 247.254H796.014C803.198 247.254 807.927 244.497 807.927 238.983V238.897C807.927 234.848 805.654 232.823 801.971 231.488C804.244 230.282 806.154 228.386 806.154 224.983V224.897C806.154 222.829 805.426 221.149 803.971 219.771C802.153 218.048 799.288 217.1 795.65 217.1H780.872V247.254ZM799.197 226.103C799.197 228.343 797.242 229.291 794.15 229.291H787.693V222.915H794.604C797.56 222.915 799.197 224.035 799.197 226.017V226.103ZM800.97 238.079V238.165C800.97 240.405 799.106 241.439 796.014 241.439H787.693V234.805H795.787C799.379 234.805 800.97 236.054 800.97 238.079Z" fill="#666666"/>
<path d="M814.641 247.254H837.513V241.223H821.643V217.1H814.641V247.254Z" fill="#666666"/>
<path d="M857.387 247.771C867.208 247.771 874.347 240.749 874.347 232.177V232.091C874.347 223.518 867.299 216.583 857.478 216.583C847.656 216.583 840.517 223.605 840.517 232.177V232.263C840.517 240.836 847.565 247.771 857.387 247.771ZM857.478 241.654C851.839 241.654 847.838 237.346 847.838 232.177V232.091C847.838 226.922 851.748 222.7 857.387 222.7C863.025 222.7 867.026 227.008 867.026 232.177V232.263C867.026 237.433 863.116 241.654 857.478 241.654Z" fill="#666666"/>
<path d="M896.427 247.771C902.565 247.771 906.203 245.703 909.477 242.386L905.021 238.122C902.52 240.276 900.292 241.654 896.654 241.654C891.198 241.654 887.423 237.346 887.423 232.177V232.091C887.423 226.922 891.288 222.7 896.654 222.7C899.837 222.7 902.338 223.992 904.793 226.103L909.249 221.235C906.294 218.478 902.702 216.583 896.699 216.583C886.923 216.583 880.103 223.605 880.103 232.177V232.263C880.103 240.922 887.06 247.771 896.427 247.771Z" fill="#666666"/>
<path d="M916.036 247.254H923.038V238.036L926.721 234.417L936.589 247.254H945.001L931.45 229.894L944.455 217.1H935.861L923.038 230.282V217.1H916.036V247.254Z" fill="#666666"/>
<path d="M962.632 247.771C968.77 247.771 972.408 245.703 975.682 242.386L971.226 238.122C968.725 240.276 966.497 241.654 962.859 241.654C957.403 241.654 953.629 237.346 953.629 232.177V232.091C953.629 226.922 957.494 222.7 962.859 222.7C966.042 222.7 968.543 223.992 970.999 226.103L975.455 221.235C972.499 218.478 968.907 216.583 962.905 216.583C953.129 216.583 946.308 223.605 946.308 232.177V232.263C946.308 240.922 953.265 247.771 962.632 247.771Z" fill="#666666"/>
<path d="M982.241 247.254H989.244V235.149H1002.16V247.254H1009.16V217.1H1002.16V229.032H989.244V217.1H982.241V247.254Z" fill="#666666"/>
<path d="M1015.01 247.254H1022.15L1025.06 240.491H1038.52L1041.43 247.254H1048.75L1035.11 216.885H1028.65L1015.01 247.254ZM1027.56 234.632L1031.79 224.854L1036.02 234.632H1027.56Z" fill="#666666"/>
<path d="M1054.94 247.254H1061.94V217.1H1054.94V247.254Z" fill="#666666"/>
<path d="M1070.85 247.254H1077.76V228.085L1093.17 247.254H1099.13V217.1H1092.22V235.666L1077.3 217.1H1070.85V247.254Z" fill="#666666"/>
<path d="M1119.05 247.685C1125.91 247.685 1130.73 244.325 1130.73 238.337V238.251C1130.73 232.996 1127.09 230.799 1120.64 229.205C1115.14 227.869 1113.77 227.223 1113.77 225.242V225.155C1113.77 223.691 1115.18 222.528 1117.86 222.528C1120.55 222.528 1123.32 223.648 1126.14 225.5L1129.78 220.503C1126.55 218.048 1122.59 216.669 1117.96 216.669C1111.45 216.669 1106.82 220.288 1106.82 225.759V225.845C1106.82 231.832 1110.95 233.512 1117.36 235.063C1122.68 236.356 1123.78 237.217 1123.78 238.897V238.983C1123.78 240.749 1122.05 241.826 1119.18 241.826C1115.55 241.826 1112.54 240.405 1109.68 238.165L1105.54 242.86C1109.36 246.091 1114.23 247.685 1119.05 247.685Z" fill="#666666"/>
</svg>
