<svg width="1024" height="304" viewBox="0 0 1024 304" fill="none" xmlns="http://www.w3.org/2000/svg">
<path fill-rule="evenodd" clip-rule="evenodd" d="M113.778 138.81L99.7342 124.588C94.3999 129.565 89.0079 133.507 83.5536 136.412C78.1041 139.314 71.5848 140.765 64.0006 140.765C58.0738 140.765 52.5931 139.611 47.5561 137.299C42.5192 134.987 38.1634 131.819 34.4888 127.787C30.8142 123.758 27.9719 119.048 25.9547 113.656C23.94 108.264 22.935 102.484 22.935 96.325C22.935 90.1611 23.94 84.4121 25.9547 79.0781C27.9719 73.7464 30.8142 69.0959 34.4888 65.1241C38.1634 61.1548 42.5192 58.0153 47.5561 55.7032C52.5931 53.3935 58.0738 52.2375 64.0006 52.2375C71.1099 52.2375 77.4517 53.6597 83.0211 56.5043C88.593 59.3464 93.8674 63.0807 98.842 67.7024L112.888 51.5276C109.926 48.6831 106.786 46.076 103.466 43.704C100.149 41.3343 96.5346 39.2885 92.6225 37.5712C88.7105 35.8516 84.4147 34.5205 79.7327 33.5731C75.0507 32.6233 69.8651 32.1484 64.1781 32.1484C54.6966 32.1484 46.045 33.8393 38.2233 37.2163C30.3993 40.5932 23.6449 45.215 17.9556 51.0815C12.2662 56.948 7.85286 63.7906 4.71076 71.6142C1.56865 79.4354 0 87.7915 0 96.68C0 105.686 1.59983 114.1 4.79951 121.923C7.99918 129.742 12.4149 136.527 18.0443 142.276C23.6737 148.023 30.3393 152.556 38.0435 155.875C45.7476 159.194 54.1641 160.852 63.2882 160.852C69.0975 160.852 74.4007 160.348 79.2002 159.341C83.9997 158.333 88.4155 156.854 92.445 154.899C96.4746 152.942 100.238 150.63 103.735 147.965C107.23 145.298 110.578 142.245 113.778 138.81Z" fill="black"/>
<path fill-rule="evenodd" clip-rule="evenodd" d="M395.868 67.3844C395.868 63.2447 397.636 59.7271 401.174 56.8317C404.709 53.9315 409.661 52.4838 416.026 52.4838C421.684 52.4838 427.283 53.5797 432.822 55.7668C438.364 57.954 443.963 61.1174 449.619 65.2547L461.289 48.7604C454.926 43.6754 448.118 39.8037 440.869 37.1452C433.617 34.4843 425.456 33.1538 416.379 33.1538C410.251 33.1538 404.592 34.0105 399.435 35.7262C394.249 37.4395 389.831 39.8923 386.145 43.0844C382.462 46.2789 379.573 50.0908 377.452 54.5249C375.36 58.959 374.299 63.8956 374.299 69.3347C374.299 75.1279 375.212 80.0358 377.04 84.0559C378.867 88.0759 381.548 91.505 385.026 94.343C388.502 97.181 392.834 99.5452 397.961 101.438C403.118 103.331 408.984 105.042 415.613 106.58C421.391 107.999 426.074 109.359 429.7 110.658C433.295 111.96 436.124 113.35 438.216 114.826C440.277 116.305 441.694 117.93 442.46 119.703C443.225 121.479 443.607 123.486 443.607 125.733C443.607 130.584 441.634 134.427 437.686 137.262C433.736 140.103 428.402 141.519 421.684 141.519C413.905 141.519 406.949 140.129 400.821 137.351C394.69 134.573 388.621 130.584 382.607 125.379L369.525 140.988C376.951 147.726 385.026 152.723 393.748 155.975C402.472 159.227 411.606 160.852 421.152 160.852C427.636 160.852 433.59 160.024 439.013 158.37C444.404 156.712 449.06 154.288 452.892 151.096C456.751 147.904 459.757 144.003 461.937 139.392C464.089 134.781 465.179 129.519 465.179 123.606C465.179 118.404 464.325 113.881 462.615 110.038C460.904 106.195 458.371 102.828 455.072 99.928C451.77 97.0326 447.586 94.5775 442.577 92.5674C437.569 90.5598 431.792 88.7268 425.308 87.0709C419.385 85.6519 414.523 84.2904 410.663 82.991C406.832 81.6917 403.827 80.2727 401.615 78.734C399.435 77.1978 397.934 75.5419 397.107 73.7687C396.284 71.9932 395.868 69.8659 395.868 67.3844Z" fill="black"/>
<path fill-rule="evenodd" clip-rule="evenodd" d="M637.905 69.1413V157.835H659.509V34.1592H636.309L598.591 92.6407L560.873 34.1592H537.676V157.835H559.279V69.4941L598.058 127.446H598.768L637.905 69.1413Z" fill="black"/>
<path fill-rule="evenodd" clip-rule="evenodd" d="M841.016 96.68C841.016 102.724 839.981 108.442 837.911 113.836C835.842 119.227 832.974 123.907 829.304 127.876C825.639 131.845 821.231 134.987 816.086 137.299C810.939 139.612 805.291 140.765 799.141 140.765C792.988 140.765 787.31 139.58 782.105 137.211C776.9 134.839 772.433 131.639 768.708 127.612C764.982 123.581 762.083 118.87 760.012 113.478C757.944 108.087 756.907 102.367 756.907 96.3251C756.907 90.2787 757.944 84.5609 760.012 79.1693C762.083 73.7752 764.951 69.096 768.619 65.1242C772.287 61.1548 776.694 58.0153 781.839 55.7032C786.984 53.3936 792.634 52.2375 798.784 52.2375C804.937 52.2375 810.616 53.4224 815.82 55.7944C821.023 58.164 825.49 61.3635 829.215 65.3928C832.943 69.4197 835.842 74.1326 837.911 79.5242C839.981 84.9158 841.016 90.636 841.016 96.68ZM863.906 96.325C863.906 87.554 862.309 79.2579 859.115 71.4343C855.924 63.6155 851.485 56.7993 845.809 50.9927C840.13 45.1838 833.328 40.5932 825.399 37.2163C817.475 33.8393 808.722 32.1484 799.141 32.1484C789.558 32.1484 780.805 33.8681 772.878 37.305C764.951 40.7419 758.09 45.3924 752.294 51.2589C746.495 57.1254 742.004 63.9705 738.808 71.7917C735.614 79.6129 734.018 87.909 734.018 96.68C734.018 105.449 735.614 113.742 738.808 121.566C742.004 129.389 746.438 136.203 752.117 142.01C757.793 147.816 764.597 152.409 772.524 155.786C780.448 159.163 789.201 160.852 798.784 160.852C808.365 160.852 817.121 159.132 825.045 155.698C832.974 152.261 839.833 147.61 845.632 141.741C851.428 135.877 855.924 129.032 859.115 121.211C862.309 113.39 863.906 105.094 863.906 96.325Z" fill="black"/>
<path fill-rule="evenodd" clip-rule="evenodd" d="M954.689 67.3844C954.689 63.2447 956.456 59.7271 959.992 56.8317C963.529 53.9315 968.479 52.4838 974.846 52.4838C980.502 52.4838 986.103 53.5797 991.643 55.7668C997.182 57.954 1002.78 61.1174 1008.44 65.2547L1020.11 48.7604C1013.74 43.6754 1006.94 39.8037 999.687 37.1452C992.439 34.4843 984.276 33.1538 975.199 33.1538C969.071 33.1538 963.413 34.0105 958.255 35.7262C953.069 37.4395 948.651 39.8923 944.965 43.0844C941.282 46.2789 938.396 50.0908 936.27 54.5249C934.181 58.959 933.119 63.8956 933.119 69.3347C933.119 75.1279 934.033 80.0358 935.86 84.0559C937.687 88.0759 940.369 91.505 943.844 94.343C947.322 97.181 951.654 99.5452 956.783 101.438C961.938 103.331 967.804 105.042 974.434 106.58C980.209 107.999 984.894 109.359 988.52 110.658C992.113 111.96 994.944 113.35 997.036 114.826C999.097 116.305 1000.51 117.93 1001.28 119.703C1002.05 121.479 1002.43 123.486 1002.43 125.733C1002.43 130.584 1000.45 134.427 996.507 137.262C992.556 140.103 987.222 141.519 980.502 141.519C972.723 141.519 965.767 140.129 959.641 137.351C953.513 134.573 947.442 130.584 941.428 125.379L928.346 140.988C935.769 147.726 943.844 152.723 952.568 155.975C961.289 159.227 970.424 160.852 979.973 160.852C986.457 160.852 992.408 160.024 997.833 158.37C1003.22 156.712 1007.88 154.288 1011.71 151.096C1015.57 147.904 1018.58 144.003 1020.76 139.392C1022.91 134.781 1024 129.519 1024 123.606C1024 118.404 1023.14 113.881 1021.44 110.038C1019.72 106.195 1017.19 102.828 1013.89 99.928C1010.59 97.0326 1006.41 94.5775 1001.4 92.5674C996.387 90.5598 990.61 88.7268 984.128 87.0709C978.205 85.6519 973.343 84.2904 969.484 82.991C965.653 81.6917 962.647 80.2727 960.435 78.734C958.255 77.1978 956.752 75.5419 955.927 73.7687C955.104 71.9932 954.689 69.8659 954.689 67.3844Z" fill="black"/>
<path fill-rule="evenodd" clip-rule="evenodd" d="M261.973 58.9179L202.779 118.033C202.016 116.554 201.327 115.013 200.71 113.414C198.643 108.043 197.609 102.344 197.609 96.3255C197.609 90.302 198.643 84.6058 200.71 79.2345C202.779 73.8609 205.646 69.1992 209.311 65.2425C212.977 61.2881 217.382 58.1605 222.523 55.8571C227.668 53.5562 233.312 52.4045 239.459 52.4045C245.608 52.4045 251.283 53.5849 256.482 55.9479C258.416 56.8248 260.246 57.814 261.973 58.9179ZM256.75 137.145C251.606 139.448 245.962 140.598 239.815 140.598C233.666 140.598 227.991 139.417 222.789 137.057C220.858 136.177 219.028 135.188 217.303 134.082L276.494 74.9719C277.258 76.4485 277.947 77.9873 278.564 79.5881C280.631 84.9594 281.665 90.658 281.665 96.6791C281.665 102.7 280.631 108.396 278.564 113.77C276.494 119.141 273.628 123.803 269.962 127.757C266.297 131.712 261.894 134.842 256.75 137.145ZM265.706 155.474C273.628 152.05 280.485 147.417 286.278 141.57C292.07 135.728 296.561 128.909 299.753 121.117C302.947 113.326 304.543 105.061 304.543 96.3256C304.543 87.5877 302.947 79.323 299.753 71.529C297.861 66.908 295.53 62.6406 292.764 58.7244L331.264 20.2775L315.966 5L277.349 43.564C273.882 41.2034 270.118 39.1629 266.06 37.4402C258.138 34.076 249.39 32.3915 239.815 32.3915C230.237 32.3915 221.49 34.1046 213.568 37.5286C205.646 40.9525 198.788 45.5854 192.996 51.4298C187.203 57.2741 182.71 64.0933 179.518 71.885C176.326 79.6766 174.73 87.9414 174.73 96.6792C174.73 105.415 176.326 113.677 179.518 121.471C181.413 126.094 183.743 130.362 186.509 134.28L148.012 172.723L163.31 188L201.925 149.438C205.392 151.799 209.156 153.84 213.214 155.562C221.136 158.926 229.883 160.609 239.459 160.609C249.036 160.609 257.784 158.895 265.706 155.474Z" fill="black"/>
<path d="M37 278.144H46.548V234.744H37V278.144Z" fill="black"/>
<path d="M58.6941 278.144H68.1181V250.554L89.1361 278.144H97.2581V234.744H87.8341V261.466L67.4981 234.744H58.6941V278.144Z" fill="black"/>
<path d="M119.083 278.144H128.631V243.548H141.837V234.744H105.877V243.548H119.083V278.144Z" fill="black"/>
<path d="M150.48 278.144H183.526V269.65H159.966V260.536H180.426V252.042H159.966V243.238H183.216V234.744H150.48V278.144Z" fill="black"/>
<path d="M193.315 278.144H202.863V264.256H210.365L219.665 278.144H230.825L220.223 262.644C225.741 260.598 229.523 256.196 229.523 249.19V249.066C229.523 244.974 228.221 241.564 225.803 239.146C222.951 236.294 218.673 234.744 213.155 234.744H193.315V278.144ZM202.863 255.824V243.362H212.349C216.999 243.362 219.851 245.47 219.851 249.562V249.686C219.851 253.344 217.185 255.824 212.535 255.824H202.863Z" fill="black"/>
<path d="M239.42 278.144H248.844V250.554L269.862 278.144H277.984V234.744H268.56V261.466L248.224 234.744H239.42V278.144Z" fill="black"/>
<path d="M289.702 278.144H322.748V269.65H299.188V260.536H319.648V252.042H299.188V243.238H322.438V234.744H289.702V278.144Z" fill="black"/>
<path d="M342.643 278.144H352.191V243.548H365.397V234.744H329.437V243.548H342.643V278.144Z" fill="black"/>
<path d="M415.008 278.888C428.4 278.888 438.134 268.782 438.134 256.444V256.32C438.134 243.982 428.524 234 415.132 234C401.74 234 392.006 244.106 392.006 256.444V256.568C392.006 268.906 401.616 278.888 415.008 278.888ZM415.132 270.084C407.444 270.084 401.988 263.884 401.988 256.444V256.32C401.988 248.88 407.32 242.804 415.008 242.804C422.696 242.804 428.152 249.004 428.152 256.444V256.568C428.152 264.008 422.82 270.084 415.132 270.084Z" fill="black"/>
<path d="M447.904 278.144H457.452V261.342H478.16V252.662H457.452V243.424H480.95V234.744H447.904V278.144Z" fill="black"/>
<path d="M509.779 278.144H530.425C540.221 278.144 546.669 274.176 546.669 266.24V266.116C546.669 260.288 543.569 257.374 538.547 255.452C541.647 253.716 544.251 250.988 544.251 246.09V245.966C544.251 242.99 543.259 240.572 541.275 238.588C538.795 236.108 534.889 234.744 529.929 234.744H509.779V278.144ZM534.765 247.702C534.765 250.926 532.099 252.29 527.883 252.29H519.079V243.114H528.503C532.533 243.114 534.765 244.726 534.765 247.578V247.702ZM537.183 264.938V265.062C537.183 268.286 534.641 269.774 530.425 269.774H519.079V260.226H530.115C535.013 260.226 537.183 262.024 537.183 264.938Z" fill="black"/>
<path d="M555.823 278.144H587.009V269.464H565.371V234.744H555.823V278.144Z" fill="black"/>
<path d="M614.108 278.888C627.5 278.888 637.234 268.782 637.234 256.444V256.32C637.234 243.982 627.624 234 614.232 234C600.84 234 591.106 244.106 591.106 256.444V256.568C591.106 268.906 600.716 278.888 614.108 278.888ZM614.232 270.084C606.544 270.084 601.088 263.884 601.088 256.444V256.32C601.088 248.88 606.42 242.804 614.108 242.804C621.796 242.804 627.252 249.004 627.252 256.444V256.568C627.252 264.008 621.92 270.084 614.232 270.084Z" fill="black"/>
<path d="M667.339 278.888C675.709 278.888 680.669 275.912 685.133 271.138L679.057 265C675.648 268.1 672.609 270.084 667.649 270.084C660.209 270.084 655.063 263.884 655.063 256.444V256.32C655.063 248.88 660.333 242.804 667.649 242.804C671.99 242.804 675.399 244.664 678.747 247.702L684.823 240.696C680.793 236.728 675.896 234 667.711 234C654.381 234 645.081 244.106 645.081 256.444V256.568C645.081 269.03 654.568 278.888 667.339 278.888Z" fill="black"/>
<path d="M694.077 278.144H703.625V264.876L708.647 259.668L722.101 278.144H733.571L715.095 253.158L732.827 234.744H721.109L703.625 253.716V234.744H694.077V278.144Z" fill="black"/>
<path d="M757.611 278.888C765.981 278.888 770.941 275.912 775.405 271.138L769.329 265C765.919 268.1 762.881 270.084 757.921 270.084C750.481 270.084 745.335 263.884 745.335 256.444V256.32C745.335 248.88 750.605 242.804 757.921 242.804C762.261 242.804 765.671 244.664 769.019 247.702L775.095 240.696C771.065 236.728 766.167 234 757.983 234C744.653 234 735.353 244.106 735.353 256.444V256.568C735.353 269.03 744.839 278.888 757.611 278.888Z" fill="black"/>
<path d="M784.349 278.144H793.897V260.722H811.505V278.144H821.053V234.744H811.505V251.918H793.897V234.744H784.349V278.144Z" fill="black"/>
<path d="M829.034 278.144H838.768L842.736 268.41H861.088L865.056 278.144H875.038L856.438 234.434H847.634L829.034 278.144ZM846.146 259.978L851.912 245.904L857.678 259.978H846.146Z" fill="black"/>
<path d="M883.471 278.144H893.019V234.744H883.471V278.144Z" fill="black"/>
<path d="M905.165 278.144H914.589V250.554L935.607 278.144H943.729V234.744H934.305V261.466L913.969 234.744H905.165V278.144Z" fill="black"/>
<path d="M970.885 278.764C980.247 278.764 986.819 273.928 986.819 265.31V265.186C986.819 257.622 981.859 254.46 973.055 252.166C965.553 250.244 963.693 249.314 963.693 246.462V246.338C963.693 244.23 965.615 242.556 969.273 242.556C972.931 242.556 976.713 244.168 980.557 246.834L985.517 239.642C981.115 236.108 975.721 234.124 969.397 234.124C960.531 234.124 954.207 239.332 954.207 247.206V247.33C954.207 255.948 959.849 258.366 968.591 260.598C975.845 262.458 977.333 263.698 977.333 266.116V266.24C977.333 268.782 974.977 270.332 971.071 270.332C966.111 270.332 962.019 268.286 958.113 265.062L952.471 271.82C957.679 276.47 964.313 278.764 970.885 278.764Z" fill="black"/>
</svg>
