<svg width="1024" height="512" viewBox="0 0 1024 512" fill="none" xmlns="http://www.w3.org/2000/svg">
<rect width="1024" height="512" fill="black"/>
<rect width="768" height="144" transform="translate(128 148)" fill="black"/>
<path fill-rule="evenodd" clip-rule="evenodd" d="M213.333 252.108L202.801 241.441C198.8 245.173 194.756 248.131 190.665 250.309C186.578 252.486 181.689 253.574 176 253.574C171.555 253.574 167.445 252.709 163.667 250.975C159.889 249.24 156.623 246.864 153.867 243.84C151.111 240.818 148.979 237.286 147.466 233.242C145.955 229.198 145.201 224.863 145.201 220.244C145.201 215.621 145.955 211.309 147.466 207.309C148.979 203.31 151.111 199.822 153.867 196.843C156.623 193.866 159.889 191.511 163.667 189.777C167.445 188.045 171.555 187.178 176 187.178C181.332 187.178 186.089 188.245 190.266 190.378C194.445 192.51 198.401 195.311 202.131 198.777L212.666 186.646C210.444 184.512 208.09 182.557 205.6 180.778C203.112 179.001 200.401 177.466 197.467 176.178C194.533 174.889 191.311 173.89 187.8 173.18C184.288 172.467 180.399 172.111 176.134 172.111C169.022 172.111 162.534 173.379 156.668 175.912C150.799 178.445 145.734 181.911 141.467 186.311C137.2 190.711 133.89 195.843 131.533 201.711C129.176 207.577 128 213.844 128 220.51C128 227.264 129.2 233.575 131.6 239.442C133.999 245.306 137.311 250.395 141.533 254.707C145.755 259.017 150.754 262.417 156.533 264.906C162.311 267.396 168.623 268.639 175.466 268.639C179.823 268.639 183.801 268.261 187.4 267.506C191 266.75 194.312 265.64 197.334 264.174C200.356 262.706 203.178 260.972 205.801 258.974C208.422 256.974 210.934 254.684 213.333 252.108Z" fill="white"/>
<path fill-rule="evenodd" clip-rule="evenodd" d="M424.902 198.538C424.902 195.433 426.228 192.795 428.881 190.624C431.532 188.448 435.247 187.363 440.02 187.363C444.264 187.363 448.463 188.185 452.617 189.825C456.773 191.465 460.972 193.838 465.214 196.941L473.967 184.57C469.195 180.756 464.089 177.853 458.652 175.859C453.213 173.863 447.092 172.865 440.285 172.865C435.689 172.865 431.445 173.508 427.577 174.795C423.687 176.08 420.374 177.919 417.609 180.313C414.847 182.709 412.68 185.568 411.09 188.894C409.521 192.219 408.725 195.922 408.725 200.001C408.725 204.346 409.41 208.027 410.78 211.042C412.151 214.057 414.162 216.629 416.77 218.757C419.377 220.886 422.626 222.659 426.471 224.078C430.339 225.498 434.738 226.781 439.71 227.935C444.044 228.999 447.556 230.019 450.275 230.993C452.971 231.97 455.093 233.012 456.662 234.12C458.208 235.229 459.271 236.447 459.845 237.777C460.42 239.109 460.706 240.615 460.706 242.3C460.706 245.938 459.226 248.82 456.265 250.947C453.302 253.077 449.302 254.139 444.264 254.139C438.429 254.139 433.212 253.097 428.616 251.013C424.018 248.929 419.466 245.938 414.956 242.034L405.145 253.741C410.714 258.795 416.77 262.542 423.311 264.981C429.854 267.42 436.705 268.639 443.865 268.639C448.728 268.639 453.193 268.018 457.26 266.777C461.303 265.534 464.796 263.716 467.669 261.322C470.564 258.928 472.818 256.002 474.454 252.544C476.067 249.085 476.885 245.139 476.885 240.704C476.885 236.803 476.244 233.411 474.962 230.528C473.679 227.646 471.779 225.121 469.304 222.946C466.828 220.774 463.69 218.933 459.933 217.425C456.178 215.92 451.844 214.545 446.981 213.303C442.539 212.239 438.893 211.218 435.998 210.243C433.125 209.269 430.87 208.204 429.212 207.05C427.577 205.898 426.451 204.656 425.83 203.326C425.213 201.995 424.902 200.399 424.902 198.538Z" fill="white"/>
<path fill-rule="evenodd" clip-rule="evenodd" d="M606.43 199.856V266.376H622.632V173.619H605.233L576.944 217.48L548.655 173.619H531.258V266.376H547.46V200.12L576.545 243.585H577.077L606.43 199.856Z" fill="white"/>
<path fill-rule="evenodd" clip-rule="evenodd" d="M758.762 220.51C758.762 225.043 757.987 229.331 756.433 233.377C754.882 237.421 752.731 240.93 749.978 243.907C747.229 246.884 743.924 249.241 740.065 250.975C736.205 252.709 731.969 253.574 727.356 253.574C722.742 253.574 718.483 252.685 714.579 250.908C710.676 249.129 707.325 246.729 704.531 243.709C701.737 240.685 699.563 237.153 698.01 233.109C696.458 229.065 695.681 224.775 695.681 220.244C695.681 215.709 696.458 211.421 698.01 207.377C699.563 203.331 701.714 199.822 704.465 196.843C707.216 193.866 710.521 191.512 714.38 189.777C718.238 188.045 722.476 187.178 727.089 187.178C731.703 187.178 735.962 188.067 739.866 189.846C743.768 191.623 747.118 194.023 749.912 197.045C752.708 200.065 754.882 203.6 756.433 207.643C757.987 211.687 758.762 215.977 758.762 220.51ZM775.93 220.244C775.93 213.666 774.732 207.443 772.337 201.576C769.943 195.712 766.614 190.599 762.357 186.245C758.098 181.888 752.997 178.445 747.05 175.912C741.107 173.379 734.542 172.111 727.356 172.111C720.169 172.111 713.604 173.401 707.659 175.979C701.714 178.556 696.568 182.044 692.221 186.444C687.872 190.844 684.504 195.978 682.107 201.844C679.711 207.71 678.514 213.932 678.514 220.51C678.514 227.086 679.711 233.307 682.107 239.174C684.504 245.042 687.829 250.152 692.088 254.507C696.345 258.862 701.448 262.307 707.393 264.84C713.337 267.372 719.901 268.639 727.089 268.639C734.275 268.639 740.841 267.349 746.784 264.773C752.731 262.195 757.875 258.708 762.224 254.306C766.571 249.908 769.943 244.774 772.337 238.908C774.732 233.042 775.93 226.82 775.93 220.244Z" fill="white"/>
<path fill-rule="evenodd" clip-rule="evenodd" d="M844.017 198.538C844.017 195.433 845.343 192.795 847.994 190.624C850.648 188.448 854.36 187.363 859.135 187.363C863.377 187.363 867.578 188.185 871.732 189.825C875.887 191.465 880.088 193.838 884.331 196.941L893.082 184.57C888.309 180.756 883.203 177.853 877.765 175.859C872.33 173.863 866.208 172.865 859.4 172.865C854.804 172.865 850.56 173.508 846.692 174.795C842.802 176.08 839.489 177.919 836.725 180.313C833.962 182.709 831.797 185.568 830.203 188.894C828.636 192.219 827.84 195.922 827.84 200.001C827.84 204.346 828.525 208.027 829.896 211.042C831.266 214.057 833.277 216.629 835.884 218.757C838.492 220.886 841.741 222.659 845.588 224.078C849.454 225.498 853.854 226.781 858.826 227.935C863.157 228.999 866.671 230.019 869.39 230.993C872.085 231.97 874.209 233.012 875.778 234.12C877.323 235.229 878.386 236.447 878.961 237.777C879.535 239.109 879.823 240.615 879.823 242.3C879.823 245.938 878.34 248.82 875.38 250.947C872.418 253.077 868.417 254.139 863.377 254.139C857.543 254.139 852.326 253.097 847.731 251.013C843.135 248.929 838.582 245.938 834.071 242.034L824.26 253.741C829.828 258.795 835.884 262.542 842.427 264.981C848.968 267.42 855.818 268.639 862.98 268.639C867.843 268.639 872.307 268.018 876.375 266.777C880.419 265.534 883.911 263.716 886.784 261.322C889.679 258.928 891.933 256.002 893.569 252.544C895.181 249.085 896 245.139 896 240.704C896 236.803 895.358 233.411 894.077 230.528C892.794 227.646 890.894 225.121 888.418 222.946C885.943 220.774 882.805 218.933 879.048 217.425C875.291 215.92 870.958 214.545 866.097 213.303C861.654 212.239 858.008 211.218 855.113 210.243C852.24 209.269 849.986 208.204 848.327 207.05C846.692 205.898 845.565 204.656 844.946 203.326C844.328 201.995 844.017 200.399 844.017 198.538Z" fill="white"/>
<path fill-rule="evenodd" clip-rule="evenodd" d="M324.479 192.188L280.084 236.525C279.511 235.415 278.994 234.259 278.531 233.061C276.981 229.032 276.206 224.758 276.206 220.244C276.206 215.727 276.981 211.454 278.531 207.426C280.084 203.396 282.233 199.9 284.983 196.932C287.732 193.966 291.035 191.62 294.892 189.893C298.75 188.167 302.983 187.303 307.593 187.303C312.205 187.303 316.461 188.189 320.361 189.961C321.811 190.619 323.184 191.361 324.479 192.188ZM320.562 250.859C316.704 252.586 312.47 253.448 307.86 253.448C303.249 253.448 298.992 252.563 295.091 250.793C293.643 250.133 292.27 249.391 290.976 248.562L335.37 204.229C335.942 205.336 336.459 206.491 336.922 207.691C338.473 211.72 339.248 215.994 339.248 220.509C339.248 225.025 338.473 229.297 336.922 233.328C335.37 237.356 333.22 240.852 330.471 243.818C327.722 246.784 324.42 249.131 320.562 250.859ZM327.278 264.605C333.22 262.037 338.363 258.563 342.707 254.178C347.052 249.796 350.42 244.682 352.814 238.838C355.21 232.994 356.407 226.796 356.407 220.244C356.407 213.691 355.21 207.492 352.814 201.647C351.395 198.181 349.647 194.98 347.572 192.043L376.447 163.208L364.973 151.75L336.01 180.673C333.41 178.903 330.588 177.372 327.544 176.08C321.603 173.557 315.042 172.294 307.86 172.294C300.677 172.294 294.116 173.578 288.175 176.146C282.233 178.714 277.09 182.189 272.746 186.572C268.401 190.956 265.031 196.07 262.638 201.914C260.244 207.757 259.047 213.956 259.047 220.509C259.047 227.061 260.244 233.258 262.638 239.103C264.059 242.571 265.807 245.771 267.881 248.71L239.008 277.542L250.482 289L279.443 260.079C282.043 261.849 284.866 263.38 287.909 264.672C293.851 267.195 300.411 268.456 307.593 268.456C314.776 268.456 321.337 267.172 327.278 264.605Z" fill="white"/>
<path d="M155.75 356.608H162.911V324.058H155.75V356.608Z" fill="#E6E6E6"/>
<path d="M172.021 356.608H179.089V335.915L194.852 356.608H200.944V324.058H193.876V344.099L178.624 324.058H172.021V356.608Z" fill="#E6E6E6"/>
<path d="M217.312 356.608H224.473V330.661H234.377V324.058H207.407V330.661H217.312V356.608Z" fill="#E6E6E6"/>
<path d="M240.86 356.608H265.644V350.238H247.974V343.402H263.319V337.031H247.974V330.428H265.412V324.058H240.86V356.608Z" fill="#E6E6E6"/>
<path d="M272.986 356.608H280.147V346.192H285.774L292.749 356.608H301.119L293.167 344.983C297.306 343.448 300.142 340.147 300.142 334.892V334.799C300.142 331.73 299.166 329.173 297.352 327.36C295.213 325.221 292.005 324.058 287.866 324.058H272.986V356.608ZM280.147 339.868V330.521H287.262C290.749 330.521 292.888 332.103 292.888 335.172V335.264C292.888 338.008 290.889 339.868 287.401 339.868H280.147Z" fill="#E6E6E6"/>
<path d="M307.565 356.608H314.633V335.915L330.396 356.608H336.488V324.058H329.42V344.099L314.168 324.058H307.565V356.608Z" fill="#E6E6E6"/>
<path d="M345.276 356.608H370.061V350.238H352.391V343.402H367.736V337.031H352.391V330.428H369.828V324.058H345.276V356.608Z" fill="#E6E6E6"/>
<path d="M384.982 356.608H392.143V330.661H402.048V324.058H375.078V330.661H384.982V356.608Z" fill="#E6E6E6"/>
<path d="M439.256 357.166C449.3 357.166 456.601 349.587 456.601 340.333V340.24C456.601 330.987 449.393 323.5 439.349 323.5C429.305 323.5 422.005 331.08 422.005 340.333V340.426C422.005 349.68 429.212 357.166 439.256 357.166ZM439.349 350.563C433.583 350.563 429.491 345.913 429.491 340.333V340.24C429.491 334.66 433.49 330.103 439.256 330.103C445.022 330.103 449.114 334.753 449.114 340.333V340.426C449.114 346.006 445.115 350.563 439.349 350.563Z" fill="#E6E6E6"/>
<path d="M463.928 356.608H471.089V344.007H486.62V337.497H471.089V330.568H488.712V324.058H463.928V356.608Z" fill="#E6E6E6"/>
<path d="M510.334 356.608H525.819C533.166 356.608 538.002 353.632 538.002 347.68V347.587C538.002 343.216 535.677 341.031 531.91 339.589C534.235 338.287 536.188 336.241 536.188 332.568V332.474C536.188 330.242 535.444 328.429 533.956 326.941C532.096 325.081 529.167 324.058 525.447 324.058H510.334V356.608ZM529.074 333.776C529.074 336.194 527.074 337.217 523.912 337.217H517.309V330.336H524.377C527.4 330.336 529.074 331.544 529.074 333.683V333.776ZM530.887 346.703V346.797C530.887 349.215 528.981 350.331 525.819 350.331H517.309V343.17H525.586C529.26 343.17 530.887 344.518 530.887 346.703Z" fill="#E6E6E6"/>
<path d="M544.868 356.608H568.257V350.098H552.029V324.058H544.868V356.608Z" fill="#E6E6E6"/>
<path d="M588.581 357.166C598.625 357.166 605.925 349.587 605.925 340.333V340.24C605.925 330.987 598.718 323.5 588.674 323.5C578.63 323.5 571.329 331.08 571.329 340.333V340.426C571.329 349.68 578.537 357.166 588.581 357.166ZM588.674 350.563C582.908 350.563 578.816 345.913 578.816 340.333V340.24C578.816 334.66 582.815 330.103 588.581 330.103C594.347 330.103 598.439 334.753 598.439 340.333V340.426C598.439 346.006 594.44 350.563 588.674 350.563Z" fill="#E6E6E6"/>
<path d="M628.505 357.166C634.782 357.166 638.502 354.934 641.85 351.354L637.293 346.75C634.736 349.075 632.457 350.563 628.737 350.563C623.157 350.563 619.298 345.913 619.298 340.333V340.24C619.298 334.66 623.25 330.103 628.737 330.103C631.992 330.103 634.55 331.498 637.061 333.776L641.618 328.522C638.595 325.546 634.922 323.5 628.784 323.5C618.786 323.5 611.811 331.08 611.811 340.333V340.426C611.811 349.772 618.926 357.166 628.505 357.166Z" fill="#E6E6E6"/>
<path d="M648.558 356.608H655.719V346.657L659.485 342.751L669.576 356.608H678.178L664.321 337.868L677.62 324.058H668.832L655.719 338.287V324.058H648.558V356.608Z" fill="#E6E6E6"/>
<path d="M696.208 357.166C702.486 357.166 706.206 354.934 709.554 351.354L704.997 346.75C702.439 349.075 700.161 350.563 696.441 350.563C690.861 350.563 687.001 345.913 687.001 340.333V340.24C687.001 334.66 690.954 330.103 696.441 330.103C699.696 330.103 702.253 331.498 704.764 333.776L709.321 328.522C706.299 325.546 702.625 323.5 696.487 323.5C686.49 323.5 679.515 331.08 679.515 340.333V340.426C679.515 349.772 686.629 357.166 696.208 357.166Z" fill="#E6E6E6"/>
<path d="M716.262 356.608H723.423V343.542H736.629V356.608H743.79V324.058H736.629V336.939H723.423V324.058H716.262V356.608Z" fill="#E6E6E6"/>
<path d="M749.776 356.608H757.076L760.052 349.307H773.816L776.792 356.608H784.279L770.329 323.825H763.726L749.776 356.608ZM762.61 342.984L766.934 332.428L771.259 342.984H762.61Z" fill="#E6E6E6"/>
<path d="M790.603 356.608H797.764V324.058H790.603V356.608Z" fill="#E6E6E6"/>
<path d="M806.874 356.608H813.942V335.915L829.705 356.608H835.797V324.058H828.729V344.099L813.477 324.058H806.874V356.608Z" fill="#E6E6E6"/>
<path d="M856.164 357.073C863.185 357.073 868.114 353.446 868.114 346.983V346.889C868.114 341.216 864.394 338.845 857.791 337.124C852.165 335.683 850.77 334.985 850.77 332.846V332.754C850.77 331.172 852.211 329.917 854.955 329.917C857.698 329.917 860.535 331.126 863.418 333.126L867.138 327.731C863.836 325.081 859.791 323.593 855.048 323.593C848.398 323.593 843.655 327.499 843.655 333.404V333.497C843.655 339.961 847.887 341.774 854.443 343.448C859.884 344.844 861 345.774 861 347.587V347.68C861 349.587 859.233 350.749 856.303 350.749C852.583 350.749 849.514 349.215 846.585 346.797L842.353 351.865C846.259 355.352 851.235 357.073 856.164 357.073Z" fill="#E6E6E6"/>
</svg>
