<svg width="1024" height="512" viewBox="0 0 1024 512" fill="none" xmlns="http://www.w3.org/2000/svg">
<path fill-rule="evenodd" clip-rule="evenodd" d="M213.333 246.108L202.801 235.441C198.8 239.173 194.756 242.131 190.665 244.309C186.578 246.486 181.689 247.574 176 247.574C171.555 247.574 167.445 246.709 163.667 244.975C159.889 243.24 156.623 240.864 153.867 237.84C151.111 234.818 148.979 231.286 147.466 227.242C145.955 223.198 145.201 218.863 145.201 214.244C145.201 209.621 145.955 205.309 147.466 201.309C148.979 197.31 151.111 193.822 153.867 190.843C156.623 187.866 159.889 185.511 163.667 183.777C167.445 182.045 171.555 181.178 176 181.178C181.332 181.178 186.089 182.245 190.266 184.378C194.445 186.51 198.401 189.311 202.131 192.777L212.666 180.646C210.444 178.512 208.09 176.557 205.6 174.778C203.112 173.001 200.401 171.466 197.467 170.178C194.533 168.889 191.311 167.89 187.8 167.18C184.288 166.467 180.399 166.111 176.134 166.111C169.022 166.111 162.534 167.379 156.668 169.912C150.799 172.445 145.734 175.911 141.467 180.311C137.2 184.711 133.89 189.843 131.533 195.711C129.176 201.577 128 207.844 128 214.51C128 221.264 129.2 227.575 131.6 233.442C133.999 239.306 137.311 244.395 141.533 248.707C145.755 253.017 150.754 256.417 156.533 258.906C162.311 261.396 168.623 262.639 175.466 262.639C179.823 262.639 183.801 262.261 187.4 261.506C191 260.75 194.312 259.64 197.334 258.174C200.356 256.706 203.178 254.972 205.801 252.974C208.422 250.974 210.934 248.684 213.333 246.108Z" fill="black"/>
<path fill-rule="evenodd" clip-rule="evenodd" d="M424.902 192.538C424.902 189.433 426.228 186.795 428.881 184.624C431.532 182.448 435.247 181.363 440.02 181.363C444.264 181.363 448.463 182.185 452.617 183.825C456.773 185.465 460.972 187.838 465.214 190.941L473.967 178.57C469.195 174.756 464.089 171.853 458.652 169.859C453.213 167.863 447.092 166.865 440.285 166.865C435.689 166.865 431.445 167.508 427.577 168.795C423.687 170.08 420.374 171.919 417.609 174.313C414.847 176.709 412.68 179.568 411.09 182.894C409.521 186.219 408.725 189.922 408.725 194.001C408.725 198.346 409.41 202.027 410.78 205.042C412.151 208.057 414.162 210.629 416.77 212.757C419.377 214.886 422.626 216.659 426.471 218.078C430.339 219.498 434.738 220.781 439.71 221.935C444.044 222.999 447.556 224.019 450.275 224.993C452.971 225.97 455.093 227.012 456.662 228.12C458.208 229.229 459.271 230.447 459.845 231.777C460.42 233.109 460.706 234.615 460.706 236.3C460.706 239.938 459.226 242.82 456.265 244.947C453.302 247.077 449.302 248.139 444.264 248.139C438.429 248.139 433.212 247.097 428.616 245.013C424.018 242.929 419.466 239.938 414.956 236.034L405.145 247.741C410.714 252.795 416.77 256.542 423.311 258.981C429.854 261.42 436.705 262.639 443.865 262.639C448.728 262.639 453.193 262.018 457.26 260.777C461.303 259.534 464.796 257.716 467.669 255.322C470.564 252.928 472.818 250.002 474.454 246.544C476.067 243.085 476.885 239.139 476.885 234.704C476.885 230.803 476.244 227.411 474.962 224.528C473.679 221.646 471.779 219.121 469.304 216.946C466.828 214.774 463.69 212.933 459.933 211.425C456.178 209.92 451.844 208.545 446.981 207.303C442.539 206.239 438.893 205.218 435.998 204.243C433.125 203.269 430.87 202.204 429.212 201.05C427.577 199.898 426.451 198.656 425.83 197.326C425.213 195.995 424.902 194.399 424.902 192.538Z" fill="black"/>
<path fill-rule="evenodd" clip-rule="evenodd" d="M606.43 193.856V260.376H622.632V167.619H605.233L576.944 211.48L548.655 167.619H531.258V260.376H547.46V194.12L576.545 237.585H577.077L606.43 193.856Z" fill="black"/>
<path fill-rule="evenodd" clip-rule="evenodd" d="M758.762 214.51C758.762 219.043 757.987 223.331 756.433 227.377C754.882 231.42 752.731 234.93 749.978 237.907C747.229 240.884 743.924 243.24 740.065 244.974C736.205 246.708 731.969 247.574 727.356 247.574C722.742 247.574 718.483 246.685 714.579 244.908C710.676 243.129 707.325 240.729 704.531 237.709C701.737 234.685 699.563 231.152 698.01 227.109C696.458 223.065 695.681 218.775 695.681 214.244C695.681 209.709 696.458 205.42 698.01 201.377C699.563 197.331 701.714 193.822 704.465 190.843C707.216 187.866 710.521 185.511 714.38 183.777C718.238 182.045 722.476 181.178 727.089 181.178C731.703 181.178 735.962 182.067 739.866 183.846C743.768 185.623 747.118 188.022 749.912 191.044C752.708 194.065 754.882 197.599 756.433 201.643C757.987 205.687 758.762 209.977 758.762 214.51ZM775.93 214.244C775.93 207.666 774.732 201.443 772.337 195.576C769.943 189.712 766.614 184.599 762.357 180.245C758.098 175.888 752.997 172.445 747.05 169.912C741.107 167.379 734.542 166.111 727.356 166.111C720.169 166.111 713.604 167.401 707.659 169.979C701.714 172.556 696.568 176.044 692.221 180.444C687.872 184.844 684.504 189.978 682.107 195.844C679.711 201.71 678.514 207.932 678.514 214.51C678.514 221.086 679.711 227.307 682.107 233.174C684.504 239.042 687.829 244.152 692.088 248.507C696.345 252.862 701.448 256.307 707.393 258.84C713.337 261.372 719.901 262.639 727.089 262.639C734.275 262.639 740.841 261.349 746.784 258.773C752.731 256.195 757.875 252.708 762.224 248.306C766.571 243.908 769.943 238.774 772.337 232.908C774.732 227.042 775.93 220.82 775.93 214.244Z" fill="black"/>
<path fill-rule="evenodd" clip-rule="evenodd" d="M844.017 192.538C844.017 189.433 845.343 186.795 847.994 184.624C850.648 182.448 854.36 181.363 859.135 181.363C863.377 181.363 867.578 182.185 871.732 183.825C875.887 185.465 880.088 187.838 884.331 190.941L893.082 178.57C888.309 174.756 883.203 171.853 877.765 169.859C872.33 167.863 866.208 166.865 859.4 166.865C854.804 166.865 850.56 167.508 846.692 168.795C842.802 170.08 839.489 171.919 836.725 174.313C833.962 176.709 831.797 179.568 830.203 182.894C828.636 186.219 827.84 189.922 827.84 194.001C827.84 198.346 828.525 202.027 829.896 205.042C831.266 208.057 833.277 210.629 835.884 212.757C838.492 214.886 841.741 216.659 845.588 218.078C849.454 219.498 853.854 220.781 858.826 221.935C863.157 222.999 866.671 224.019 869.39 224.993C872.085 225.97 874.209 227.012 875.778 228.12C877.323 229.229 878.386 230.447 878.961 231.777C879.535 233.109 879.823 234.615 879.823 236.3C879.823 239.938 878.34 242.82 875.38 244.947C872.418 247.077 868.417 248.139 863.377 248.139C857.543 248.139 852.326 247.097 847.731 245.013C843.135 242.929 838.582 239.938 834.071 236.034L824.26 247.741C829.828 252.795 835.884 256.542 842.427 258.981C848.968 261.42 855.818 262.639 862.98 262.639C867.843 262.639 872.307 262.018 876.375 260.777C880.419 259.534 883.911 257.716 886.784 255.322C889.679 252.928 891.933 250.002 893.569 246.544C895.181 243.085 896 239.139 896 234.704C896 230.803 895.358 227.411 894.077 224.528C892.794 221.646 890.894 219.121 888.418 216.946C885.943 214.774 882.805 212.933 879.048 211.425C875.291 209.92 870.958 208.545 866.097 207.303C861.654 206.239 858.008 205.218 855.113 204.243C852.24 203.269 849.986 202.204 848.327 201.05C846.692 199.898 845.565 198.656 844.946 197.326C844.328 195.995 844.017 194.399 844.017 192.538Z" fill="black"/>
<path fill-rule="evenodd" clip-rule="evenodd" d="M324.479 186.188L280.084 230.524C279.511 229.415 278.994 228.259 278.531 227.06C276.981 223.032 276.206 218.758 276.206 214.244C276.206 209.726 276.981 205.454 278.531 201.426C280.084 197.395 282.233 193.899 284.983 190.932C287.732 187.966 291.035 185.62 294.892 183.893C298.75 182.167 302.983 181.303 307.593 181.303C312.205 181.303 316.461 182.188 320.361 183.961C321.811 184.618 323.183 185.36 324.479 186.188ZM320.562 244.859C316.704 246.586 312.47 247.448 307.86 247.448C303.249 247.448 298.992 246.563 295.091 244.792C293.643 244.133 292.27 243.391 290.976 242.561L335.37 198.229C335.942 199.336 336.459 200.49 336.922 201.691C338.472 205.719 339.248 209.993 339.248 214.509C339.248 219.025 338.472 223.297 336.922 227.327C335.37 231.356 333.22 234.852 330.471 237.818C327.722 240.784 324.42 243.131 320.562 244.859ZM327.278 258.605C333.22 256.037 338.363 252.563 342.707 248.178C347.052 243.796 350.42 238.682 352.814 232.838C355.21 226.994 356.407 220.796 356.407 214.244C356.407 207.691 355.21 201.492 352.814 195.647C351.395 192.181 349.647 188.98 347.572 186.043L376.447 157.208L364.973 145.75L336.01 174.673C333.41 172.903 330.588 171.372 327.544 170.08C321.603 167.557 315.042 166.294 307.86 166.294C300.677 166.294 294.116 167.578 288.175 170.146C282.233 172.714 277.09 176.189 272.746 180.572C268.401 184.956 265.031 190.07 262.638 195.914C260.244 201.757 259.047 207.956 259.047 214.509C259.047 221.061 260.244 227.258 262.638 233.103C264.059 236.571 265.807 239.771 267.881 242.71L239.008 271.542L250.482 283L279.443 254.079C282.043 255.849 284.866 257.38 287.909 258.672C293.851 261.195 300.411 262.456 307.593 262.456C314.776 262.456 321.337 261.172 327.278 258.605Z" fill="black"/>
<path d="M155.75 350.608H162.911V318.058H155.75V350.608Z" fill="black"/>
<path d="M172.021 350.608H179.089V329.915L194.852 350.608H200.944V318.058H193.876V338.099L178.624 318.058H172.021V350.608Z" fill="black"/>
<path d="M217.312 350.608H224.473V324.661H234.377V318.058H207.407V324.661H217.312V350.608Z" fill="black"/>
<path d="M240.86 350.608H265.644V344.238H247.974V337.402H263.319V331.031H247.974V324.428H265.412V318.058H240.86V350.608Z" fill="black"/>
<path d="M272.986 350.608H280.147V340.192H285.774L292.749 350.608H301.119L293.167 338.983C297.306 337.448 300.142 334.147 300.142 328.892V328.799C300.142 325.73 299.166 323.173 297.352 321.36C295.213 319.221 292.005 318.058 287.866 318.058H272.986V350.608ZM280.147 333.868V324.521H287.262C290.749 324.521 292.888 326.103 292.888 329.172V329.264C292.888 332.008 290.889 333.868 287.401 333.868H280.147Z" fill="black"/>
<path d="M307.565 350.608H314.633V329.915L330.396 350.608H336.488V318.058H329.42V338.099L314.168 318.058H307.565V350.608Z" fill="black"/>
<path d="M345.276 350.608H370.061V344.238H352.391V337.402H367.736V331.031H352.391V324.428H369.828V318.058H345.276V350.608Z" fill="black"/>
<path d="M384.982 350.608H392.143V324.661H402.048V318.058H375.078V324.661H384.982V350.608Z" fill="black"/>
<path d="M439.256 351.166C449.3 351.166 456.601 343.587 456.601 334.333V334.24C456.601 324.987 449.393 317.5 439.349 317.5C429.305 317.5 422.005 325.08 422.005 334.333V334.426C422.005 343.68 429.212 351.166 439.256 351.166ZM439.349 344.563C433.583 344.563 429.491 339.913 429.491 334.333V334.24C429.491 328.66 433.49 324.103 439.256 324.103C445.022 324.103 449.114 328.753 449.114 334.333V334.426C449.114 340.006 445.115 344.563 439.349 344.563Z" fill="black"/>
<path d="M463.928 350.608H471.089V338.007H486.62V331.497H471.089V324.568H488.712V318.058H463.928V350.608Z" fill="black"/>
<path d="M510.334 350.608H525.819C533.166 350.608 538.002 347.632 538.002 341.68V341.587C538.002 337.216 535.677 335.031 531.91 333.589C534.235 332.287 536.188 330.241 536.188 326.568V326.474C536.188 324.242 535.444 322.429 533.956 320.941C532.096 319.081 529.167 318.058 525.447 318.058H510.334V350.608ZM529.074 327.776C529.074 330.194 527.074 331.217 523.912 331.217H517.309V324.336H524.377C527.4 324.336 529.074 325.544 529.074 327.683V327.776ZM530.887 340.703V340.797C530.887 343.215 528.981 344.331 525.819 344.331H517.309V337.17H525.586C529.26 337.17 530.887 338.518 530.887 340.703Z" fill="black"/>
<path d="M544.868 350.608H568.257V344.098H552.029V318.058H544.868V350.608Z" fill="black"/>
<path d="M588.581 351.166C598.625 351.166 605.925 343.587 605.925 334.333V334.24C605.925 324.987 598.718 317.5 588.674 317.5C578.63 317.5 571.329 325.08 571.329 334.333V334.426C571.329 343.68 578.537 351.166 588.581 351.166ZM588.674 344.563C582.908 344.563 578.816 339.913 578.816 334.333V334.24C578.816 328.66 582.815 324.103 588.581 324.103C594.347 324.103 598.439 328.753 598.439 334.333V334.426C598.439 340.006 594.44 344.563 588.674 344.563Z" fill="black"/>
<path d="M628.505 351.166C634.782 351.166 638.502 348.934 641.85 345.354L637.293 340.75C634.736 343.075 632.457 344.563 628.737 344.563C623.157 344.563 619.298 339.913 619.298 334.333V334.24C619.298 328.66 623.25 324.103 628.737 324.103C631.992 324.103 634.55 325.498 637.061 327.776L641.618 322.522C638.595 319.546 634.922 317.5 628.784 317.5C618.786 317.5 611.811 325.08 611.811 334.333V334.426C611.811 343.772 618.926 351.166 628.505 351.166Z" fill="black"/>
<path d="M648.558 350.608H655.719V340.657L659.485 336.751L669.576 350.608H678.178L664.321 331.868L677.62 318.058H668.832L655.719 332.287V318.058H648.558V350.608Z" fill="black"/>
<path d="M696.208 351.166C702.486 351.166 706.206 348.934 709.554 345.354L704.997 340.75C702.439 343.075 700.161 344.563 696.441 344.563C690.861 344.563 687.001 339.913 687.001 334.333V334.24C687.001 328.66 690.954 324.103 696.441 324.103C699.696 324.103 702.253 325.498 704.764 327.776L709.321 322.522C706.299 319.546 702.625 317.5 696.487 317.5C686.49 317.5 679.515 325.08 679.515 334.333V334.426C679.515 343.772 686.629 351.166 696.208 351.166Z" fill="black"/>
<path d="M716.262 350.608H723.423V337.542H736.629V350.608H743.79V318.058H736.629V330.939H723.423V318.058H716.262V350.608Z" fill="black"/>
<path d="M749.776 350.608H757.076L760.052 343.307H773.816L776.792 350.608H784.279L770.329 317.825H763.726L749.776 350.608ZM762.61 336.984L766.934 326.428L771.259 336.984H762.61Z" fill="black"/>
<path d="M790.603 350.608H797.764V318.058H790.603V350.608Z" fill="black"/>
<path d="M806.874 350.608H813.942V329.915L829.705 350.608H835.797V318.058H828.729V338.099L813.477 318.058H806.874V350.608Z" fill="black"/>
<path d="M856.164 351.073C863.185 351.073 868.114 347.446 868.114 340.983V340.889C868.114 335.216 864.394 332.845 857.791 331.124C852.165 329.683 850.77 328.985 850.77 326.846V326.754C850.77 325.172 852.211 323.917 854.955 323.917C857.698 323.917 860.535 325.126 863.418 327.126L867.138 321.731C863.836 319.081 859.791 317.593 855.048 317.593C848.398 317.593 843.655 321.499 843.655 327.404V327.497C843.655 333.961 847.887 335.774 854.443 337.448C859.884 338.844 861 339.774 861 341.587V341.68C861 343.587 859.233 344.749 856.303 344.749C852.583 344.749 849.514 343.215 846.585 340.797L842.353 345.865C846.259 349.352 851.235 351.073 856.164 351.073Z" fill="black"/>
</svg>
