<svg width="1024" height="512" viewBox="0 0 1024 512" fill="none" xmlns="http://www.w3.org/2000/svg">
<rect width="1024" height="512" fill="white"/>
<path fill-rule="evenodd" clip-rule="evenodd" d="M213.333 288.108L202.801 277.441C198.8 281.173 194.756 284.131 190.665 286.309C186.578 288.486 181.689 289.574 176 289.574C171.555 289.574 167.445 288.709 163.667 286.975C159.889 285.24 156.623 282.864 153.867 279.84C151.111 276.818 148.979 273.286 147.466 269.242C145.955 265.198 145.201 260.863 145.201 256.244C145.201 251.621 145.955 247.309 147.466 243.309C148.979 239.31 151.111 235.822 153.867 232.843C156.623 229.866 159.889 227.511 163.667 225.777C167.445 224.045 171.555 223.178 176 223.178C181.332 223.178 186.089 224.245 190.266 226.378C194.445 228.51 198.401 231.311 202.131 234.777L212.666 222.646C210.444 220.512 208.09 218.557 205.6 216.778C203.112 215.001 200.401 213.466 197.467 212.178C194.533 210.889 191.311 209.89 187.8 209.18C184.288 208.467 180.399 208.111 176.134 208.111C169.022 208.111 162.534 209.379 156.668 211.912C150.799 214.445 145.734 217.911 141.467 222.311C137.2 226.711 133.89 231.843 131.533 237.711C129.176 243.577 128 249.844 128 256.51C128 263.264 129.2 269.575 131.6 275.442C133.999 281.306 137.311 286.395 141.533 290.707C145.755 295.017 150.754 298.417 156.533 300.906C162.311 303.396 168.623 304.639 175.466 304.639C179.823 304.639 183.801 304.261 187.4 303.506C191 302.75 194.312 301.64 197.334 300.174C200.356 298.706 203.178 296.972 205.801 294.974C208.422 292.974 210.934 290.684 213.333 288.108Z" fill="black"/>
<path fill-rule="evenodd" clip-rule="evenodd" d="M424.902 234.538C424.902 231.433 426.228 228.795 428.881 226.624C431.532 224.448 435.247 223.363 440.02 223.363C444.264 223.363 448.463 224.185 452.617 225.825C456.773 227.465 460.972 229.838 465.214 232.941L473.967 220.57C469.195 216.756 464.089 213.853 458.652 211.859C453.213 209.863 447.092 208.865 440.285 208.865C435.689 208.865 431.445 209.508 427.577 210.795C423.687 212.08 420.374 213.919 417.609 216.313C414.847 218.709 412.68 221.568 411.09 224.894C409.521 228.219 408.725 231.922 408.725 236.001C408.725 240.346 409.41 244.027 410.78 247.042C412.151 250.057 414.162 252.629 416.77 254.757C419.377 256.886 422.626 258.659 426.471 260.078C430.339 261.498 434.738 262.781 439.71 263.935C444.044 264.999 447.556 266.019 450.275 266.993C452.971 267.97 455.093 269.012 456.662 270.12C458.208 271.229 459.271 272.447 459.845 273.777C460.42 275.109 460.706 276.615 460.706 278.3C460.706 281.938 459.226 284.82 456.265 286.947C453.302 289.077 449.302 290.139 444.264 290.139C438.429 290.139 433.212 289.097 428.616 287.013C424.018 284.929 419.466 281.938 414.956 278.034L405.145 289.741C410.714 294.795 416.77 298.542 423.311 300.981C429.854 303.42 436.705 304.639 443.865 304.639C448.728 304.639 453.193 304.018 457.26 302.777C461.303 301.534 464.796 299.716 467.669 297.322C470.564 294.928 472.818 292.002 474.454 288.544C476.067 285.085 476.885 281.139 476.885 276.704C476.885 272.803 476.244 269.411 474.962 266.528C473.679 263.646 471.779 261.121 469.304 258.946C466.828 256.774 463.69 254.933 459.933 253.425C456.178 251.92 451.844 250.545 446.981 249.303C442.539 248.239 438.893 247.218 435.998 246.243C433.125 245.269 430.87 244.204 429.212 243.05C427.577 241.898 426.451 240.656 425.83 239.326C425.213 237.995 424.902 236.399 424.902 234.538Z" fill="black"/>
<path fill-rule="evenodd" clip-rule="evenodd" d="M606.43 235.856V302.376H622.632V209.619H605.233L576.944 253.48L548.655 209.619H531.258V302.376H547.46V236.12L576.545 279.585H577.077L606.43 235.856Z" fill="black"/>
<path fill-rule="evenodd" clip-rule="evenodd" d="M758.762 256.51C758.762 261.043 757.987 265.331 756.433 269.377C754.882 273.42 752.731 276.93 749.978 279.907C747.229 282.884 743.924 285.24 740.065 286.974C736.205 288.708 731.969 289.574 727.356 289.574C722.742 289.574 718.483 288.685 714.579 286.908C710.676 285.129 707.325 282.729 704.531 279.709C701.737 276.685 699.563 273.152 698.01 269.109C696.458 265.065 695.681 260.775 695.681 256.244C695.681 251.709 696.458 247.42 698.01 243.377C699.563 239.331 701.714 235.822 704.465 232.843C707.216 229.866 710.521 227.511 714.38 225.777C718.238 224.045 722.476 223.178 727.089 223.178C731.703 223.178 735.962 224.067 739.866 225.846C743.768 227.623 747.118 230.022 749.912 233.044C752.708 236.065 754.882 239.599 756.433 243.643C757.987 247.687 758.762 251.977 758.762 256.51ZM775.93 256.244C775.93 249.666 774.732 243.443 772.337 237.576C769.943 231.712 766.614 226.599 762.357 222.245C758.098 217.888 752.997 214.445 747.05 211.912C741.107 209.379 734.542 208.111 727.356 208.111C720.169 208.111 713.604 209.401 707.659 211.979C701.714 214.556 696.568 218.044 692.221 222.444C687.872 226.844 684.504 231.978 682.107 237.844C679.711 243.71 678.514 249.932 678.514 256.51C678.514 263.086 679.711 269.307 682.107 275.174C684.504 281.042 687.829 286.152 692.088 290.507C696.345 294.862 701.448 298.307 707.393 300.84C713.337 303.372 719.901 304.639 727.089 304.639C734.275 304.639 740.841 303.349 746.784 300.773C752.731 298.195 757.875 294.708 762.224 290.306C766.571 285.908 769.943 280.774 772.337 274.908C774.732 269.042 775.93 262.82 775.93 256.244Z" fill="black"/>
<path fill-rule="evenodd" clip-rule="evenodd" d="M844.017 234.538C844.017 231.433 845.343 228.795 847.994 226.624C850.648 224.448 854.36 223.363 859.135 223.363C863.377 223.363 867.578 224.185 871.732 225.825C875.887 227.465 880.088 229.838 884.331 232.941L893.082 220.57C888.309 216.756 883.203 213.853 877.765 211.859C872.33 209.863 866.208 208.865 859.4 208.865C854.804 208.865 850.56 209.508 846.692 210.795C842.802 212.08 839.489 213.919 836.725 216.313C833.962 218.709 831.797 221.568 830.203 224.894C828.636 228.219 827.84 231.922 827.84 236.001C827.84 240.346 828.525 244.027 829.896 247.042C831.266 250.057 833.277 252.629 835.884 254.757C838.492 256.886 841.741 258.659 845.588 260.078C849.454 261.498 853.854 262.781 858.826 263.935C863.157 264.999 866.671 266.019 869.39 266.993C872.085 267.97 874.209 269.012 875.778 270.12C877.323 271.229 878.386 272.447 878.961 273.777C879.535 275.109 879.823 276.615 879.823 278.3C879.823 281.938 878.34 284.82 875.38 286.947C872.418 289.077 868.417 290.139 863.377 290.139C857.543 290.139 852.326 289.097 847.731 287.013C843.135 284.929 838.582 281.938 834.071 278.034L824.26 289.741C829.828 294.795 835.884 298.542 842.427 300.981C848.968 303.42 855.818 304.639 862.98 304.639C867.843 304.639 872.307 304.018 876.375 302.777C880.419 301.534 883.911 299.716 886.784 297.322C889.679 294.928 891.933 292.002 893.569 288.544C895.181 285.085 896 281.139 896 276.704C896 272.803 895.358 269.411 894.077 266.528C892.794 263.646 890.894 261.121 888.418 258.946C885.943 256.774 882.805 254.933 879.048 253.425C875.291 251.92 870.958 250.545 866.097 249.303C861.654 248.239 858.008 247.218 855.113 246.243C852.24 245.269 849.986 244.204 848.327 243.05C846.692 241.898 845.565 240.656 844.946 239.326C844.328 237.995 844.017 236.399 844.017 234.538Z" fill="black"/>
<path fill-rule="evenodd" clip-rule="evenodd" d="M324.479 228.188L280.084 272.524C279.511 271.415 278.994 270.259 278.531 269.06C276.981 265.032 276.206 260.758 276.206 256.244C276.206 251.726 276.981 247.454 278.531 243.426C280.084 239.395 282.233 235.899 284.983 232.932C287.732 229.966 291.035 227.62 294.892 225.893C298.75 224.167 302.983 223.303 307.593 223.303C312.205 223.303 316.461 224.188 320.361 225.961C321.811 226.618 323.183 227.36 324.479 228.188ZM320.562 286.859C316.704 288.586 312.47 289.448 307.86 289.448C303.249 289.448 298.992 288.563 295.091 286.792C293.643 286.133 292.27 285.391 290.976 284.561L335.37 240.229C335.942 241.336 336.459 242.49 336.922 243.691C338.472 247.719 339.248 251.993 339.248 256.509C339.248 261.025 338.472 265.297 336.922 269.327C335.37 273.356 333.22 276.852 330.471 279.818C327.722 282.784 324.42 285.131 320.562 286.859ZM327.278 300.605C333.22 298.037 338.363 294.563 342.707 290.178C347.052 285.796 350.42 280.682 352.814 274.838C355.21 268.994 356.407 262.796 356.407 256.244C356.407 249.691 355.21 243.492 352.814 237.647C351.395 234.181 349.647 230.98 347.572 228.043L376.447 199.208L364.973 187.75L336.01 216.673C333.41 214.903 330.588 213.372 327.544 212.08C321.603 209.557 315.042 208.294 307.86 208.294C300.677 208.294 294.116 209.578 288.175 212.146C282.233 214.714 277.09 218.189 272.746 222.572C268.401 226.956 265.031 232.07 262.638 237.914C260.244 243.757 259.047 249.956 259.047 256.509C259.047 263.061 260.244 269.258 262.638 275.103C264.059 278.571 265.807 281.771 267.881 284.71L239.008 313.542L250.482 325L279.443 296.079C282.043 297.849 284.866 299.38 287.909 300.672C293.851 303.195 300.411 304.456 307.593 304.456C314.776 304.456 321.337 303.172 327.278 300.605Z" fill="black"/>
</svg>
