<svg width="576" height="768" viewBox="0 0 576 768" fill="none" xmlns="http://www.w3.org/2000/svg">
<path fill-rule="evenodd" clip-rule="evenodd" d="M288 0.55296C446.753 0.55296 575.447 129.247 575.447 288C575.447 446.753 446.753 575.447 288 575.447C129.247 575.447 0.55296 446.753 0.55296 288C0.55296 129.247 129.247 0.55296 288 0.55296Z" fill="#171717"/>
<path fill-rule="evenodd" clip-rule="evenodd" d="M287.448 122.165C379.036 122.165 453.283 196.412 453.283 288C453.283 379.588 379.036 453.835 287.448 453.835C195.86 453.835 121.613 379.588 121.613 288C121.613 196.412 195.86 122.165 287.448 122.165Z" fill="black"/>
<path opacity="0.67" fill-rule="evenodd" clip-rule="evenodd" d="M292.514 49.7193C290.231 47.6179 289.052 47.5781 288.854 47.5781C288.656 47.5781 287.478 47.6179 285.194 49.7193C282.85 51.8764 280.048 55.5981 277.03 61.3407C271.004 72.8027 265.237 90.1277 260.266 112.483C254.676 137.622 250.259 168.349 247.472 202.746C260.931 209.258 274.772 216.338 288.851 223.94C302.932 216.336 316.774 209.256 330.236 202.742C327.449 168.347 323.032 137.621 317.442 112.483C312.472 90.1277 306.704 72.8027 300.679 61.3407C297.66 55.5981 294.858 51.8763 292.514 49.7193ZM277.071 230.392C266.732 224.899 256.546 219.702 246.572 214.819C245.816 225.892 245.227 237.307 244.818 249.002C250.093 245.843 255.446 242.696 260.87 239.566C266.294 236.437 271.697 233.378 277.071 230.392ZM236.614 197.576C244.691 103.255 265.035 36.3281 288.854 36.3281C312.673 36.3281 333.016 103.253 341.094 197.572C426.865 157.405 495.03 141.551 506.94 162.166C518.85 182.781 471.026 233.85 393.332 288C471.026 342.15 518.85 393.22 506.94 413.835C495.03 434.45 426.865 418.595 341.094 378.428C333.016 472.747 312.673 539.672 288.854 539.672C265.035 539.672 244.691 472.745 236.614 378.425C150.84 418.594 82.6709 434.45 70.7609 413.835C58.8513 393.22 106.675 342.15 184.369 288C106.675 233.85 58.8513 182.781 70.7609 162.166C82.6709 141.55 150.84 157.406 236.614 197.576ZM194.282 281.185C165.867 261.573 141.446 242.385 122.455 224.977C105.567 209.496 93.4374 195.842 86.5174 184.896C83.0504 179.411 81.2266 175.126 80.5296 172.02C79.851 168.996 80.4057 167.96 80.5021 167.793L80.5022 167.793C80.5992 167.625 81.2216 166.625 84.1856 165.699C87.2283 164.749 91.8561 164.184 98.3431 164.443C111.291 164.959 129.189 168.63 151.048 175.505C175.628 183.237 204.464 194.778 235.665 209.564C234.579 224.467 233.794 239.983 233.343 255.967C219.713 264.352 206.657 272.791 194.282 281.185ZM194.282 294.816C165.867 314.427 141.446 333.615 122.455 351.024C105.567 366.504 93.4374 380.158 86.5174 391.105C83.0504 396.589 81.2266 400.875 80.5296 403.98C79.8509 407.005 80.4058 408.04 80.5021 408.207C80.5988 408.374 81.2206 409.375 84.1856 410.301C87.2283 411.252 91.8561 411.816 98.3431 411.557C111.291 411.042 129.189 407.37 151.048 400.495C175.628 392.763 204.464 381.222 235.665 366.436C234.579 351.533 233.794 336.017 233.343 320.033C219.713 311.648 206.657 303.209 194.282 294.816ZM233.044 306.613C223.112 300.41 213.514 294.192 204.294 288C213.514 281.808 223.112 275.59 233.044 269.388C232.944 275.533 232.894 281.74 232.894 288C232.894 294.26 232.944 300.467 233.044 306.613ZM244.433 313.628C244.242 305.208 244.144 296.658 244.144 288C244.144 279.342 244.242 270.793 244.433 262.372C251.633 257.998 258.991 253.639 266.492 249.311C273.997 244.981 281.456 240.79 288.851 236.744C296.245 240.79 303.704 244.981 311.209 249.311C318.713 253.64 326.074 258.001 333.275 262.377C333.467 270.796 333.565 279.344 333.565 288C333.565 296.657 333.467 305.205 333.275 313.623C326.074 318 318.713 322.36 311.209 326.689C303.704 331.02 296.245 335.21 288.851 339.256C281.456 335.21 273.997 331.02 266.492 326.689C258.991 322.361 251.633 318.003 244.433 313.628ZM244.818 326.998C245.227 338.694 245.816 350.108 246.572 361.181C256.546 356.299 266.732 351.102 277.071 345.608C271.697 342.622 266.294 339.563 260.87 336.434C255.446 333.304 250.093 330.157 244.818 326.998ZM288.851 352.06C274.772 359.663 260.931 366.742 247.472 373.255C250.259 407.651 254.676 438.378 260.266 463.517C265.237 485.873 271.004 503.198 277.03 514.66C280.048 520.402 282.85 524.124 285.194 526.281C287.478 528.382 288.656 528.422 288.854 528.422C289.052 528.422 290.231 528.382 292.514 526.281C294.858 524.124 297.66 520.402 300.679 514.66C306.704 503.198 312.472 485.873 317.442 463.517C323.032 438.379 327.449 407.653 330.236 373.258C316.774 366.745 302.932 359.664 288.851 352.06ZM342.043 366.439C373.241 381.224 402.075 392.764 426.653 400.495C448.512 407.37 466.41 411.042 479.358 411.557C485.845 411.816 490.473 411.252 493.515 410.301C496.481 409.375 497.102 408.374 497.199 408.207C497.295 408.041 497.85 407.006 497.171 403.98C496.474 400.875 494.651 396.589 491.184 391.105C484.264 380.158 472.134 366.504 455.247 351.024C436.255 333.615 411.834 314.427 383.419 294.816C371.046 303.207 357.992 311.645 344.366 320.029C343.914 336.015 343.129 351.534 342.043 366.439ZM383.419 281.185C411.834 261.573 436.255 242.385 455.247 224.977C472.134 209.496 484.264 195.842 491.184 184.896C494.651 179.411 496.474 175.126 497.171 172.02C497.85 168.994 497.295 167.959 497.199 167.793C497.102 167.626 496.481 166.625 493.515 165.699C490.473 164.749 485.845 164.184 479.358 164.443C466.41 164.959 448.512 168.63 426.653 175.505C402.075 183.237 373.241 194.776 342.043 209.561C343.129 224.466 343.914 239.985 344.366 255.972C357.992 264.355 371.046 272.793 383.419 281.185ZM344.664 269.392C354.594 275.593 364.19 281.81 373.407 288C364.19 294.19 354.594 300.407 344.664 306.608C344.764 300.464 344.815 294.259 344.815 288C344.815 281.742 344.764 275.536 344.664 269.392ZM332.89 249.006C332.482 237.308 331.892 225.892 331.136 214.816C321.16 219.699 310.972 224.897 300.63 230.392C306.004 233.378 311.407 236.437 316.831 239.566C322.258 242.698 327.613 245.846 332.89 249.006ZM331.136 361.185C321.16 356.301 310.972 351.103 300.63 345.608C306.004 342.622 311.407 339.563 316.831 336.434C322.258 333.303 327.613 330.154 332.89 326.994C332.482 338.692 331.892 350.109 331.136 361.185Z" fill="white"/>
<path fill-rule="evenodd" clip-rule="evenodd" d="M127.995 217.521C137.769 217.521 145.693 225.448 145.693 235.227C145.693 245.006 137.769 252.933 127.995 252.933C118.221 252.933 110.298 245.006 110.298 235.227C110.298 225.448 118.221 217.521 127.995 217.521Z" fill="white"/>
<path fill-rule="evenodd" clip-rule="evenodd" d="M409.268 156.887C419.046 156.887 426.974 164.814 426.974 174.593C426.974 184.372 419.046 192.299 409.268 192.299C399.489 192.299 391.561 184.372 391.561 174.593C391.561 164.814 399.489 156.887 409.268 156.887Z" fill="white"/>
<path fill-rule="evenodd" clip-rule="evenodd" d="M253.193 434.798C262.972 434.798 270.899 442.722 270.899 452.496C270.899 462.27 262.972 470.194 253.193 470.194C243.414 470.194 235.486 462.27 235.486 452.496C235.486 442.722 243.414 434.798 253.193 434.798Z" fill="white"/>
<path fill-rule="evenodd" clip-rule="evenodd" d="M287.869 257.891C304.425 257.891 317.846 271.313 317.846 287.869C317.846 304.425 304.425 317.846 287.869 317.846C271.313 317.846 257.891 304.425 257.891 287.869C257.891 271.313 271.313 257.891 287.869 257.891Z" fill="white"/>
<path fill-rule="evenodd" clip-rule="evenodd" d="M64 732.281L56.1005 724.28C53.0999 727.08 50.067 729.298 46.9989 730.931C43.9336 732.564 40.2665 733.38 36.0003 733.38C32.6665 733.38 29.5836 732.731 26.7503 731.431C23.917 730.13 21.4669 728.348 19.4 726.08C17.333 723.814 15.7342 721.164 14.5995 718.131C13.4662 715.098 12.9009 711.847 12.9009 708.383C12.9009 704.915 13.4662 701.682 14.5995 698.681C15.7342 695.682 17.333 693.066 19.4 690.832C21.4669 688.599 23.917 686.833 26.7503 685.533C29.5836 684.234 32.6665 683.583 36.0003 683.583C39.9993 683.583 43.5666 684.383 46.6994 685.983C49.8335 687.582 52.8004 689.683 55.5986 692.282L63.4995 683.184C61.8332 681.584 60.0671 680.117 58.1999 678.783C56.3339 677.45 54.3007 676.299 52.1002 675.334C49.8997 674.366 47.4833 673.617 44.8497 673.085C42.216 672.55 39.2991 672.283 36.1002 672.283C30.7668 672.283 25.9003 673.234 21.5006 675.134C17.0996 677.033 13.3003 679.633 10.1 682.933C6.89974 686.233 4.41724 690.082 2.6498 694.483C0.882368 698.882 0 703.582 0 708.582C0 713.648 0.899907 718.381 2.69972 722.782C4.49954 727.18 6.98339 730.996 10.1499 734.23C13.3165 737.462 17.0659 740.012 21.3994 741.879C25.733 743.747 30.4673 744.679 35.5996 744.679C38.8674 744.679 41.8504 744.396 44.5501 743.829C47.2499 743.262 49.7337 742.43 52.0003 741.33C54.267 740.229 56.3838 738.929 58.351 737.43C60.3167 735.93 62.2002 734.212 64 732.281Z" fill="white"/>
<path fill-rule="evenodd" clip-rule="evenodd" d="M222.675 692.104C222.675 689.776 223.67 687.797 225.66 686.168C227.648 684.537 230.434 683.723 234.014 683.723C237.197 683.723 240.346 684.339 243.462 685.569C246.579 686.8 249.728 688.579 252.91 690.906L259.474 681.628C255.895 678.768 252.066 676.59 247.988 675.095C243.909 673.598 239.318 672.85 234.213 672.85C230.765 672.85 227.583 673.331 224.681 674.297C221.764 675.26 219.279 676.64 217.206 678.436C215.134 680.232 213.509 682.377 212.316 684.871C211.14 687.365 210.542 690.142 210.542 693.201C210.542 696.46 211.056 699.221 212.084 701.482C213.112 703.743 214.62 705.672 216.577 707.269C218.532 708.865 220.969 710.195 223.852 711.259C226.753 712.324 230.053 713.287 233.782 714.152C237.032 714.95 239.666 715.715 241.705 716.446C243.728 717.178 245.319 717.96 246.496 718.79C247.655 719.622 248.452 720.536 248.883 721.534C249.314 722.532 249.528 723.662 249.528 724.926C249.528 727.654 248.419 729.816 246.198 731.411C243.976 733.008 240.975 733.805 237.197 733.805C232.821 733.805 228.908 733.023 225.461 731.46C222.013 729.898 218.599 727.654 215.216 724.726L207.857 733.506C212.035 737.297 216.577 740.107 221.483 741.936C226.39 743.766 231.528 744.68 236.898 744.68C240.545 744.68 243.894 744.214 246.944 743.284C249.977 742.351 252.596 740.988 254.751 739.192C256.922 737.396 258.613 735.202 259.839 732.609C261.049 730.015 261.663 727.055 261.663 723.729C261.663 720.803 261.182 718.259 260.22 716.097C259.258 713.935 257.833 712.041 255.977 710.41C254.12 708.781 251.767 707.4 248.949 706.27C246.132 705.14 242.882 704.109 239.235 703.178C235.903 702.38 233.169 701.614 230.998 700.883C228.843 700.152 227.152 699.354 225.908 698.488C224.681 697.624 223.837 696.693 223.372 695.695C222.909 694.697 222.675 693.5 222.675 692.104Z" fill="white"/>
<path fill-rule="evenodd" clip-rule="evenodd" d="M358.823 693.092V742.983H370.974V673.415H357.925L336.708 706.311L315.492 673.415H302.443V742.983H314.595V693.291L336.408 725.889H336.808L358.823 693.092Z" fill="white"/>
<path fill-rule="evenodd" clip-rule="evenodd" d="M473.071 708.582C473.071 711.982 472.489 715.198 471.325 718.232C470.161 721.265 468.548 723.897 466.483 726.13C464.422 728.363 461.942 730.13 459.048 731.431C456.153 732.731 452.976 733.38 449.517 733.38C446.056 733.38 442.861 732.714 439.934 731.381C437.006 730.047 434.493 728.247 432.398 725.982C430.302 723.714 428.672 721.064 427.507 718.031C426.343 714.999 425.76 711.781 425.76 708.383C425.76 704.982 426.343 701.765 427.507 698.733C428.672 695.698 430.285 693.066 432.348 690.832C434.411 688.599 436.89 686.833 439.784 685.533C442.678 684.234 445.856 683.583 449.316 683.583C452.777 683.583 455.971 684.25 458.899 685.584C461.825 686.917 464.338 688.717 466.433 690.983C468.53 693.248 470.161 695.899 471.325 698.932C472.489 701.965 473.071 705.183 473.071 708.582ZM485.947 708.383C485.947 703.449 485.048 698.782 483.252 694.382C481.457 689.983 478.96 686.149 475.767 682.883C472.573 679.616 468.747 677.033 464.287 675.134C459.829 673.234 454.906 672.283 449.517 672.283C444.126 672.283 439.203 673.251 434.744 675.184C430.285 677.117 426.425 679.733 423.165 683.033C419.904 686.333 417.377 690.183 415.579 694.583C413.783 698.982 412.885 703.649 412.885 708.582C412.885 713.515 413.783 718.18 415.579 722.58C417.377 726.981 419.871 730.814 423.066 734.08C426.258 737.346 430.086 739.93 434.545 741.83C439.002 743.729 443.925 744.679 449.316 744.679C454.705 744.679 459.63 743.712 464.088 741.78C468.548 739.846 472.406 737.23 475.668 733.929C478.928 730.631 481.457 726.78 483.252 722.381C485.048 717.981 485.947 713.315 485.947 708.383Z" fill="white"/>
<path fill-rule="evenodd" clip-rule="evenodd" d="M537.013 692.104C537.013 689.776 538.008 687.797 539.996 686.168C541.986 684.537 544.771 683.723 548.352 683.723C551.533 683.723 554.684 684.339 557.8 685.569C560.916 686.8 564.066 688.579 567.249 690.906L573.812 681.628C570.232 678.768 566.402 676.59 562.325 675.095C558.248 673.598 553.656 672.85 548.551 672.85C545.103 672.85 541.92 673.331 539.019 674.297C536.102 675.26 533.617 676.64 531.544 678.436C529.472 680.232 527.849 682.377 526.653 684.871C525.477 687.365 524.88 690.142 524.88 693.201C524.88 696.46 525.394 699.221 526.422 701.482C527.45 703.743 528.958 705.672 530.913 707.269C532.87 708.865 535.306 710.195 538.191 711.259C541.091 712.324 544.391 713.287 548.12 714.152C551.368 714.95 554.004 715.715 556.043 716.446C558.064 717.178 559.657 717.96 560.834 718.79C561.993 719.622 562.79 720.536 563.221 721.534C563.652 722.532 563.868 723.662 563.868 724.926C563.868 727.654 562.755 729.816 560.536 731.411C558.314 733.008 555.313 733.805 551.533 733.805C547.158 733.805 543.245 733.023 539.799 731.46C536.352 729.898 532.937 727.654 529.554 724.726L522.195 733.506C526.371 737.297 530.913 740.107 535.82 741.936C540.726 743.766 545.864 744.68 551.236 744.68C554.883 744.68 558.231 744.214 561.282 743.284C564.315 742.351 566.934 740.988 569.089 739.192C571.26 737.396 572.951 735.202 574.177 732.609C575.386 730.015 576.001 727.055 576.001 723.729C576.001 720.803 575.519 718.259 574.558 716.097C573.596 713.935 572.171 712.041 570.314 710.41C568.458 708.781 566.105 707.4 563.287 706.27C560.469 705.14 557.219 704.109 553.573 703.178C550.241 702.38 547.507 701.614 545.335 700.883C543.18 700.152 541.49 699.354 540.246 698.488C539.019 697.624 538.174 696.693 537.71 695.695C537.247 694.697 537.013 693.5 537.013 692.104Z" fill="white"/>
<path fill-rule="evenodd" clip-rule="evenodd" d="M147.359 687.342L114.063 720.594C113.633 719.762 113.246 718.895 112.899 717.996C111.736 714.974 111.154 711.769 111.154 708.383C111.154 704.995 111.736 701.791 112.899 698.77C114.063 695.747 115.675 693.125 117.737 690.899C119.799 688.675 122.276 686.916 125.169 685.62C128.062 684.326 131.237 683.678 134.695 683.678C138.154 683.678 141.346 684.342 144.271 685.671C145.358 686.164 146.388 686.721 147.359 687.342ZM144.421 731.344C141.528 732.64 138.353 733.286 134.895 733.286C131.436 733.286 128.244 732.623 125.318 731.295C124.232 730.8 123.202 730.244 122.232 729.621L155.527 696.372C155.957 697.203 156.344 698.068 156.692 698.969C157.854 701.99 158.436 705.195 158.436 708.582C158.436 711.969 157.854 715.173 156.692 718.196C155.527 721.217 153.915 723.839 151.853 726.064C149.791 728.288 147.315 730.049 144.421 731.344ZM149.459 741.654C153.915 739.728 157.772 737.122 161.031 733.833C164.289 730.547 166.815 726.712 168.61 722.329C170.407 717.946 171.305 713.297 171.305 708.383C171.305 703.468 170.407 698.819 168.61 694.435C167.546 691.836 166.235 689.436 164.679 687.233L186.336 665.606L177.73 657.013L156.008 678.705C154.058 677.377 151.941 676.229 149.658 675.26C145.202 673.368 140.281 672.42 134.895 672.42C129.508 672.42 124.587 673.384 120.131 675.31C115.675 677.236 111.818 679.842 108.559 683.129C105.301 686.417 102.774 690.253 100.978 694.635C99.1828 699.018 98.2851 703.667 98.2851 708.582C98.2851 713.496 99.1828 718.144 100.978 722.528C102.044 725.128 103.355 727.529 104.911 729.733L83.2559 751.357L91.8613 759.95L113.582 738.259C115.532 739.587 117.649 740.735 119.932 741.704C124.388 743.596 129.309 744.543 134.695 744.543C140.082 744.543 145.003 743.579 149.459 741.654Z" fill="white"/>
</svg>
