<svg id="katman_1" data-name="katman 1" xmlns="http://www.w3.org/2000/svg" viewBox="0 0 953.4 297.5"><defs><style>.cls-1{fill:#fff;}</style></defs><path class="cls-1" d="M180,257.8c0,87.8-.1,94.2-1.8,100.3-4.6,16.4-15.7,27.2-31.5,30.5-14.4,3.1-30.3-2.2-42.9-14.3-3.8-3.7-7.9-8.5-8.9-10.6s-2.5-3.7-3.2-3.7-9.7,8.5-20.1,18.9l-18.9,19,2.8,3.8c13.8,18.2,40.5,34,66.4,39.3,12.1,2.4,31,2.7,43.2.5,33.1-5.8,59.9-29.4,68.9-60.5a76.69,76.69,0,0,1,3.3-9.5c.9-1.5,1.3-27.5,1.5-104.8l.3-102.7H180Z" transform="translate(-52.7 -164)"/><path class="cls-1" d="M963.8,228.6l-16.5,16.7-12.4-6.1a102.29,102.29,0,0,0-23.8-8.8c-10.7-2.5-12.4-2.6-30.5-2.2-16.9.5-20.1.8-27.9,3.2-68.3,20.5-101,91.4-69.7,151.5a131.9,131.9,0,0,0,7,11.8l2.9,3.8-18.6,18.7-18.6,18.6,12.6,12.8,12.6,12.9,18.9-18.8,18.9-18.9,8.4,4.6A142.29,142.29,0,0,0,858,440.6c8.7,2.2,35.5,3,44.6,1.5a114.22,114.22,0,0,0,59.7-29.8c27.7-26.7,39.3-61.9,32.1-98.3-2.1-11-8.5-25.8-16.2-37.3l-4.5-6.9,16.2-16.2,16.2-16.2L993.5,225c-6.9-6.9-12.7-12.6-12.9-12.8S972.9,219.4,963.8,228.6Zm-70.4,48.9c7.7,1.6,15.6,4.4,15.6,5.4,0,.4-17.1,17.8-38,38.6-35.4,35.2-38.2,37.7-39.4,35.9-4.5-6.4-6.1-25.9-3-37.8.9-3.3,1.9-6.3,2.3-6.6a40.26,40.26,0,0,0,3.7-5.9c8.3-15.5,25.9-27.8,42.9-30.1C886.1,275.9,885.9,275.9,893.4,277.5Zm46,44.2c5.1,19.5-2.1,42.4-17.8,56.9-16.8,15.7-38.6,19.6-58.9,10.6l-5.9-2.5,38.9-38.9L934.5,309l1.7,3.3A53.3,53.3,0,0,1,939.4,321.7Z" transform="translate(-52.7 -164)"/><path class="cls-1" d="M639.5,228.6a78.27,78.27,0,0,0-19.5,6.8c-6.8,3.3-10.3,5.8-17.2,12.7l-8.8,8.6V232H535V439l29.3-.2,29.2-.3.5-65,.5-65,3.4-7.2C605,286,619.6,277,637,277c12.3,0,20.8,3.7,28.4,12.1,4.9,5.4,6.7,8.8,9.4,17.4,1.3,4.3,1.6,14.4,1.9,68.7l.4,63.8H733V369.2c-.1-64.1-.2-70.4-1.9-78.7-4.6-21.9-13.5-36.9-29-48.6-14.2-10.8-24.6-13.9-46.1-13.8C648,228.2,640.6,228.4,639.5,228.6Z" transform="translate(-52.7 -164)"/><path class="cls-1" d="M290,303.8c0,58.2.3,73,1.4,78.5.8,3.7,1.9,7.3,2.4,8a25.63,25.63,0,0,1,2.2,5.2c6.1,19.3,24.8,37.3,46,44.5,9.3,3.2,31.6,4,42.5,1.5,16.4-3.6,29.5-11.1,39.4-22.2l5.1-5.8V439h58V232H429v59.6c0,64.3-.4,70.3-5,79.4-10.1,19.8-35.9,28.7-55.4,19.1-11.9-5.8-19.1-16.4-21.6-31.6-.6-3.4-1-31.9-1-66.3V232H290Z" transform="translate(-52.7 -164)"/></svg>